G04 #@! TF.GenerationSoftware,KiCad,Pcbnew,(5.1.2)-1*
G04 #@! TF.CreationDate,2024-09-29T13:42:58+01:00*
G04 #@! TF.ProjectId,ESP8266_PCB01,45535038-3236-4365-9f50-434230312e6b,rev?*
G04 #@! TF.SameCoordinates,Original*
G04 #@! TF.FileFunction,Copper,L1,Top*
G04 #@! TF.FilePolarity,Positive*
%FSLAX46Y46*%
G04 Gerber Fmt 4.6, Leading zero omitted, Abs format (unit mm)*
G04 Created by KiCad (PCBNEW (5.1.2)-1) date 2024-09-29 13:42:58*
%MOMM*%
%LPD*%
G04 APERTURE LIST*
%ADD10R,1.700000X1.700000*%
%ADD11O,1.700000X1.700000*%
%ADD12C,1.400000*%
%ADD13O,1.400000X1.400000*%
%ADD14R,1.600000X1.600000*%
%ADD15C,1.600000*%
%ADD16O,1.700000X2.000000*%
%ADD17C,0.150000*%
%ADD18C,1.700000*%
%ADD19O,1.600000X1.600000*%
%ADD20R,1.800000X1.800000*%
%ADD21C,1.800000*%
%ADD22O,3.048000X1.727200*%
%ADD23R,0.840000X0.840000*%
%ADD24C,0.840000*%
%ADD25O,0.850000X1.850000*%
%ADD26C,0.800000*%
%ADD27C,0.250000*%
%ADD28C,0.750000*%
%ADD29C,0.500000*%
G04 APERTURE END LIST*
D10*
X149702000Y-107442000D03*
D11*
X149702000Y-104902000D03*
X149702000Y-102362000D03*
X149702000Y-99822000D03*
X149702000Y-97282000D03*
X149702000Y-94742000D03*
X149702000Y-92202000D03*
X149702000Y-89662000D03*
X149702000Y-87122000D03*
X149702000Y-84582000D03*
X149702000Y-82042000D03*
X149702000Y-79502000D03*
X149702000Y-76962000D03*
X149702000Y-74422000D03*
X149702000Y-71882000D03*
X149702000Y-69342000D03*
X149702000Y-66802000D03*
X149702000Y-64262000D03*
X149702000Y-61722000D03*
X149702000Y-59182000D03*
D10*
X101844000Y-64516000D03*
D11*
X101844000Y-67056000D03*
X101844000Y-69596000D03*
X101844000Y-72136000D03*
X101844000Y-74676000D03*
X101844000Y-77216000D03*
X101844000Y-79756000D03*
X101844000Y-82296000D03*
X101844000Y-84836000D03*
X101844000Y-87376000D03*
X101844000Y-89916000D03*
X101844000Y-92456000D03*
X101844000Y-94996000D03*
X101844000Y-97536000D03*
X101844000Y-100076000D03*
D12*
X138176000Y-63754000D03*
D13*
X133096000Y-63754000D03*
D14*
X123698000Y-54102000D03*
D15*
X130198000Y-54102000D03*
X132922000Y-88900000D03*
X137922000Y-88900000D03*
X133096000Y-67056000D03*
X138096000Y-67056000D03*
D11*
X116586000Y-71882000D03*
X114046000Y-71882000D03*
X111506000Y-71882000D03*
X108966000Y-71882000D03*
D10*
X106426000Y-71882000D03*
X106426000Y-69342000D03*
D11*
X108966000Y-69342000D03*
X111506000Y-69342000D03*
X114046000Y-69342000D03*
X116586000Y-69342000D03*
X116586000Y-74422000D03*
X114046000Y-74422000D03*
X111506000Y-74422000D03*
X108966000Y-74422000D03*
D10*
X106426000Y-74422000D03*
X135382000Y-55118000D03*
D11*
X135382000Y-57658000D03*
X135382000Y-60198000D03*
X138684000Y-60198000D03*
X138684000Y-57658000D03*
D10*
X138684000Y-55118000D03*
X119126000Y-64770000D03*
D11*
X116586000Y-64770000D03*
X114046000Y-64770000D03*
X111506000Y-64770000D03*
X108966000Y-64770000D03*
X106426000Y-64770000D03*
D10*
X145796000Y-107442000D03*
D11*
X145796000Y-104902000D03*
X145796000Y-102362000D03*
X106426000Y-79756000D03*
X108966000Y-79756000D03*
D10*
X111506000Y-79756000D03*
D16*
X120610000Y-106172000D03*
D17*
G36*
X118734504Y-105173204D02*
G01*
X118758773Y-105176804D01*
X118782571Y-105182765D01*
X118805671Y-105191030D01*
X118827849Y-105201520D01*
X118848893Y-105214133D01*
X118868598Y-105228747D01*
X118886777Y-105245223D01*
X118903253Y-105263402D01*
X118917867Y-105283107D01*
X118930480Y-105304151D01*
X118940970Y-105326329D01*
X118949235Y-105349429D01*
X118955196Y-105373227D01*
X118958796Y-105397496D01*
X118960000Y-105422000D01*
X118960000Y-106922000D01*
X118958796Y-106946504D01*
X118955196Y-106970773D01*
X118949235Y-106994571D01*
X118940970Y-107017671D01*
X118930480Y-107039849D01*
X118917867Y-107060893D01*
X118903253Y-107080598D01*
X118886777Y-107098777D01*
X118868598Y-107115253D01*
X118848893Y-107129867D01*
X118827849Y-107142480D01*
X118805671Y-107152970D01*
X118782571Y-107161235D01*
X118758773Y-107167196D01*
X118734504Y-107170796D01*
X118710000Y-107172000D01*
X117510000Y-107172000D01*
X117485496Y-107170796D01*
X117461227Y-107167196D01*
X117437429Y-107161235D01*
X117414329Y-107152970D01*
X117392151Y-107142480D01*
X117371107Y-107129867D01*
X117351402Y-107115253D01*
X117333223Y-107098777D01*
X117316747Y-107080598D01*
X117302133Y-107060893D01*
X117289520Y-107039849D01*
X117279030Y-107017671D01*
X117270765Y-106994571D01*
X117264804Y-106970773D01*
X117261204Y-106946504D01*
X117260000Y-106922000D01*
X117260000Y-105422000D01*
X117261204Y-105397496D01*
X117264804Y-105373227D01*
X117270765Y-105349429D01*
X117279030Y-105326329D01*
X117289520Y-105304151D01*
X117302133Y-105283107D01*
X117316747Y-105263402D01*
X117333223Y-105245223D01*
X117351402Y-105228747D01*
X117371107Y-105214133D01*
X117392151Y-105201520D01*
X117414329Y-105191030D01*
X117437429Y-105182765D01*
X117461227Y-105176804D01*
X117485496Y-105173204D01*
X117510000Y-105172000D01*
X118710000Y-105172000D01*
X118734504Y-105173204D01*
X118734504Y-105173204D01*
G37*
D18*
X118110000Y-106172000D03*
D17*
G36*
X110098504Y-105173204D02*
G01*
X110122773Y-105176804D01*
X110146571Y-105182765D01*
X110169671Y-105191030D01*
X110191849Y-105201520D01*
X110212893Y-105214133D01*
X110232598Y-105228747D01*
X110250777Y-105245223D01*
X110267253Y-105263402D01*
X110281867Y-105283107D01*
X110294480Y-105304151D01*
X110304970Y-105326329D01*
X110313235Y-105349429D01*
X110319196Y-105373227D01*
X110322796Y-105397496D01*
X110324000Y-105422000D01*
X110324000Y-106922000D01*
X110322796Y-106946504D01*
X110319196Y-106970773D01*
X110313235Y-106994571D01*
X110304970Y-107017671D01*
X110294480Y-107039849D01*
X110281867Y-107060893D01*
X110267253Y-107080598D01*
X110250777Y-107098777D01*
X110232598Y-107115253D01*
X110212893Y-107129867D01*
X110191849Y-107142480D01*
X110169671Y-107152970D01*
X110146571Y-107161235D01*
X110122773Y-107167196D01*
X110098504Y-107170796D01*
X110074000Y-107172000D01*
X108874000Y-107172000D01*
X108849496Y-107170796D01*
X108825227Y-107167196D01*
X108801429Y-107161235D01*
X108778329Y-107152970D01*
X108756151Y-107142480D01*
X108735107Y-107129867D01*
X108715402Y-107115253D01*
X108697223Y-107098777D01*
X108680747Y-107080598D01*
X108666133Y-107060893D01*
X108653520Y-107039849D01*
X108643030Y-107017671D01*
X108634765Y-106994571D01*
X108628804Y-106970773D01*
X108625204Y-106946504D01*
X108624000Y-106922000D01*
X108624000Y-105422000D01*
X108625204Y-105397496D01*
X108628804Y-105373227D01*
X108634765Y-105349429D01*
X108643030Y-105326329D01*
X108653520Y-105304151D01*
X108666133Y-105283107D01*
X108680747Y-105263402D01*
X108697223Y-105245223D01*
X108715402Y-105228747D01*
X108735107Y-105214133D01*
X108756151Y-105201520D01*
X108778329Y-105191030D01*
X108801429Y-105182765D01*
X108825227Y-105176804D01*
X108849496Y-105173204D01*
X108874000Y-105172000D01*
X110074000Y-105172000D01*
X110098504Y-105173204D01*
X110098504Y-105173204D01*
G37*
D18*
X109474000Y-106172000D03*
D16*
X111974000Y-106172000D03*
X103338000Y-106172000D03*
D17*
G36*
X101462504Y-105173204D02*
G01*
X101486773Y-105176804D01*
X101510571Y-105182765D01*
X101533671Y-105191030D01*
X101555849Y-105201520D01*
X101576893Y-105214133D01*
X101596598Y-105228747D01*
X101614777Y-105245223D01*
X101631253Y-105263402D01*
X101645867Y-105283107D01*
X101658480Y-105304151D01*
X101668970Y-105326329D01*
X101677235Y-105349429D01*
X101683196Y-105373227D01*
X101686796Y-105397496D01*
X101688000Y-105422000D01*
X101688000Y-106922000D01*
X101686796Y-106946504D01*
X101683196Y-106970773D01*
X101677235Y-106994571D01*
X101668970Y-107017671D01*
X101658480Y-107039849D01*
X101645867Y-107060893D01*
X101631253Y-107080598D01*
X101614777Y-107098777D01*
X101596598Y-107115253D01*
X101576893Y-107129867D01*
X101555849Y-107142480D01*
X101533671Y-107152970D01*
X101510571Y-107161235D01*
X101486773Y-107167196D01*
X101462504Y-107170796D01*
X101438000Y-107172000D01*
X100238000Y-107172000D01*
X100213496Y-107170796D01*
X100189227Y-107167196D01*
X100165429Y-107161235D01*
X100142329Y-107152970D01*
X100120151Y-107142480D01*
X100099107Y-107129867D01*
X100079402Y-107115253D01*
X100061223Y-107098777D01*
X100044747Y-107080598D01*
X100030133Y-107060893D01*
X100017520Y-107039849D01*
X100007030Y-107017671D01*
X99998765Y-106994571D01*
X99992804Y-106970773D01*
X99989204Y-106946504D01*
X99988000Y-106922000D01*
X99988000Y-105422000D01*
X99989204Y-105397496D01*
X99992804Y-105373227D01*
X99998765Y-105349429D01*
X100007030Y-105326329D01*
X100017520Y-105304151D01*
X100030133Y-105283107D01*
X100044747Y-105263402D01*
X100061223Y-105245223D01*
X100079402Y-105228747D01*
X100099107Y-105214133D01*
X100120151Y-105201520D01*
X100142329Y-105191030D01*
X100165429Y-105182765D01*
X100189227Y-105176804D01*
X100213496Y-105173204D01*
X100238000Y-105172000D01*
X101438000Y-105172000D01*
X101462504Y-105173204D01*
X101462504Y-105173204D01*
G37*
D18*
X100838000Y-106172000D03*
D12*
X135910000Y-85344000D03*
D17*
G36*
X133825226Y-84645200D02*
G01*
X133849417Y-84648788D01*
X133873139Y-84654730D01*
X133896165Y-84662969D01*
X133918272Y-84673425D01*
X133939248Y-84685998D01*
X133958891Y-84700566D01*
X133977011Y-84716989D01*
X133993434Y-84735109D01*
X134008002Y-84754752D01*
X134020575Y-84775728D01*
X134031031Y-84797835D01*
X134039270Y-84820861D01*
X134045212Y-84844583D01*
X134048800Y-84868774D01*
X134050000Y-84893200D01*
X134050000Y-85794800D01*
X134048800Y-85819226D01*
X134045212Y-85843417D01*
X134039270Y-85867139D01*
X134031031Y-85890165D01*
X134020575Y-85912272D01*
X134008002Y-85933248D01*
X133993434Y-85952891D01*
X133977011Y-85971011D01*
X133958891Y-85987434D01*
X133939248Y-86002002D01*
X133918272Y-86014575D01*
X133896165Y-86025031D01*
X133873139Y-86033270D01*
X133849417Y-86039212D01*
X133825226Y-86042800D01*
X133800800Y-86044000D01*
X132899200Y-86044000D01*
X132874774Y-86042800D01*
X132850583Y-86039212D01*
X132826861Y-86033270D01*
X132803835Y-86025031D01*
X132781728Y-86014575D01*
X132760752Y-86002002D01*
X132741109Y-85987434D01*
X132722989Y-85971011D01*
X132706566Y-85952891D01*
X132691998Y-85933248D01*
X132679425Y-85912272D01*
X132668969Y-85890165D01*
X132660730Y-85867139D01*
X132654788Y-85843417D01*
X132651200Y-85819226D01*
X132650000Y-85794800D01*
X132650000Y-84893200D01*
X132651200Y-84868774D01*
X132654788Y-84844583D01*
X132660730Y-84820861D01*
X132668969Y-84797835D01*
X132679425Y-84775728D01*
X132691998Y-84754752D01*
X132706566Y-84735109D01*
X132722989Y-84716989D01*
X132741109Y-84700566D01*
X132760752Y-84685998D01*
X132781728Y-84673425D01*
X132803835Y-84662969D01*
X132826861Y-84654730D01*
X132850583Y-84648788D01*
X132874774Y-84645200D01*
X132899200Y-84644000D01*
X133800800Y-84644000D01*
X133825226Y-84645200D01*
X133825226Y-84645200D01*
G37*
D12*
X133350000Y-85344000D03*
D19*
X115316000Y-93472000D03*
D15*
X115316000Y-83312000D03*
X133096000Y-101854000D03*
D19*
X133096000Y-91694000D03*
D15*
X137922000Y-101854000D03*
D19*
X137922000Y-91694000D03*
D15*
X137922000Y-80518000D03*
D19*
X137922000Y-70358000D03*
X133350000Y-70358000D03*
D15*
X133350000Y-80518000D03*
D20*
X116332000Y-98298000D03*
D21*
X113792000Y-98298000D03*
D22*
X118364000Y-52658000D03*
X118364000Y-57658000D03*
X105864000Y-52658000D03*
X105864000Y-57658000D03*
D23*
X136144000Y-107188000D03*
D24*
X136794000Y-108188000D03*
X137444000Y-107188000D03*
X138094000Y-108188000D03*
X138744000Y-107188000D03*
D25*
X133869000Y-107408000D03*
X141019000Y-107408000D03*
D10*
X107188000Y-84836000D03*
D11*
X107188000Y-87376000D03*
X107188000Y-89916000D03*
X107188000Y-92456000D03*
X107188000Y-94996000D03*
X107188000Y-97536000D03*
X107188000Y-100076000D03*
D10*
X149702000Y-50292000D03*
D11*
X147162000Y-50292000D03*
X144622000Y-50292000D03*
X142082000Y-50292000D03*
X139542000Y-50292000D03*
X137002000Y-50292000D03*
X134462000Y-50292000D03*
D10*
X143510000Y-54610000D03*
D11*
X146050000Y-54610000D03*
X148590000Y-54610000D03*
D10*
X126746000Y-107442000D03*
D11*
X126746000Y-104902000D03*
X124704000Y-100076000D03*
X124704000Y-97536000D03*
X124704000Y-94996000D03*
X124704000Y-92456000D03*
X124704000Y-89916000D03*
X124704000Y-87376000D03*
X124704000Y-84836000D03*
X124704000Y-82296000D03*
X124704000Y-79756000D03*
X124704000Y-77216000D03*
X124704000Y-74676000D03*
X124704000Y-72136000D03*
X124704000Y-69596000D03*
X124704000Y-67056000D03*
D10*
X124704000Y-64516000D03*
D11*
X127450000Y-100076000D03*
X127450000Y-97536000D03*
X127450000Y-94996000D03*
X127450000Y-92456000D03*
X127450000Y-89916000D03*
X127450000Y-87376000D03*
X127450000Y-84836000D03*
X127450000Y-82296000D03*
X127450000Y-79756000D03*
X127450000Y-77216000D03*
X127450000Y-74676000D03*
X127450000Y-72136000D03*
X127450000Y-69596000D03*
X127450000Y-67056000D03*
D10*
X127450000Y-64516000D03*
X99060000Y-64516000D03*
D11*
X99060000Y-67056000D03*
X99060000Y-69596000D03*
X99060000Y-72136000D03*
X99060000Y-74676000D03*
X99060000Y-77216000D03*
X99060000Y-79756000D03*
X99060000Y-82296000D03*
X99060000Y-84836000D03*
X99060000Y-87376000D03*
X99060000Y-89916000D03*
X99060000Y-92456000D03*
X99060000Y-94996000D03*
X99060000Y-97536000D03*
X99060000Y-100076000D03*
D10*
X143510000Y-64262000D03*
D11*
X143510000Y-66802000D03*
X143510000Y-69342000D03*
X143510000Y-71882000D03*
X143510000Y-74422000D03*
X143510000Y-76962000D03*
X143510000Y-79502000D03*
X143510000Y-82042000D03*
X143510000Y-84582000D03*
X143510000Y-87122000D03*
X143510000Y-89662000D03*
D10*
X120142000Y-69342000D03*
D11*
X120142000Y-71882000D03*
X120142000Y-74422000D03*
X120142000Y-76962000D03*
X120142000Y-79502000D03*
X120142000Y-82042000D03*
D10*
X120142000Y-86106000D03*
D11*
X120142000Y-88646000D03*
X120142000Y-91186000D03*
X120142000Y-93726000D03*
D26*
X105410000Y-82042000D03*
X111252000Y-77216000D03*
X111506000Y-100330000D03*
X116840000Y-100330000D03*
X119888000Y-100330000D03*
X131572000Y-49784000D03*
X133096000Y-99060000D03*
X137922000Y-98335000D03*
X104394000Y-89916000D03*
X104648000Y-98552000D03*
X109982000Y-101600000D03*
X118364000Y-98298000D03*
X118364000Y-94996000D03*
D27*
X100262081Y-67056000D02*
X101844000Y-67056000D01*
X99060000Y-67056000D02*
X100262081Y-67056000D01*
X122648000Y-54102000D02*
X121632000Y-55118000D01*
X123698000Y-54102000D02*
X122648000Y-54102000D01*
X121632000Y-55118000D02*
X114808000Y-55118000D01*
X114808000Y-55118000D02*
X108458000Y-61468000D01*
X108458000Y-61468000D02*
X105156000Y-61468000D01*
X102094988Y-67056000D02*
X103378000Y-65772988D01*
X101844000Y-67056000D02*
X102094988Y-67056000D01*
X103378000Y-63246000D02*
X104140000Y-62484000D01*
X103378000Y-65772988D02*
X103378000Y-63246000D01*
X105156000Y-61468000D02*
X104140000Y-62484000D01*
X104140000Y-62484000D02*
X103886000Y-62738000D01*
D28*
X99060000Y-79756000D02*
X101844000Y-79756000D01*
X99060000Y-97536000D02*
X101844000Y-97536000D01*
X124704000Y-97536000D02*
X127450000Y-97536000D01*
X124704000Y-87376000D02*
X127450000Y-87376000D01*
X108966000Y-69342000D02*
X108966000Y-71882000D01*
X108966000Y-71882000D02*
X108966000Y-74422000D01*
X135382000Y-57658000D02*
X138684000Y-57658000D01*
D29*
X111506000Y-79756000D02*
X111506000Y-79502000D01*
X111506000Y-79502000D02*
X109982000Y-77978000D01*
X109982000Y-75438000D02*
X108966000Y-74422000D01*
X109982000Y-77978000D02*
X109982000Y-75438000D01*
X101844000Y-79756000D02*
X103124000Y-79756000D01*
X103124000Y-79756000D02*
X105410000Y-82042000D01*
D27*
X133350000Y-67310000D02*
X133096000Y-67056000D01*
X133350000Y-70358000D02*
X133350000Y-67310000D01*
X133096000Y-65924630D02*
X133096000Y-63754000D01*
X133096000Y-67056000D02*
X133096000Y-65924630D01*
X137922000Y-91694000D02*
X137922000Y-88900000D01*
X135910000Y-86888000D02*
X135910000Y-85344000D01*
X137922000Y-88900000D02*
X135910000Y-86888000D01*
D28*
X99060000Y-77216000D02*
X101844000Y-77216000D01*
X99060000Y-100076000D02*
X101844000Y-100076000D01*
X124704000Y-89916000D02*
X127450000Y-89916000D01*
X101844000Y-100076000D02*
X107188000Y-100076000D01*
X111506000Y-69342000D02*
X111506000Y-71882000D01*
X111506000Y-71882000D02*
X111506000Y-74422000D01*
X122428000Y-90932000D02*
X123444000Y-89916000D01*
X122428000Y-95758000D02*
X122428000Y-90932000D01*
X109220000Y-100076000D02*
X110236000Y-99060000D01*
X107188000Y-100076000D02*
X109220000Y-100076000D01*
X110236000Y-99060000D02*
X110236000Y-97536000D01*
X123444000Y-89916000D02*
X124704000Y-89916000D01*
X110236000Y-97536000D02*
X111506000Y-96266000D01*
X121920000Y-96266000D02*
X122428000Y-95758000D01*
X111506000Y-75624081D02*
X112843919Y-76962000D01*
X111506000Y-74422000D02*
X111506000Y-75624081D01*
X112843919Y-76962000D02*
X114554000Y-76962000D01*
X117348000Y-79756000D02*
X117348000Y-96266000D01*
X114554000Y-76962000D02*
X117348000Y-79756000D01*
X111506000Y-96266000D02*
X117348000Y-96266000D01*
X117348000Y-96266000D02*
X121920000Y-96266000D01*
X108966000Y-64770000D02*
X108966000Y-66040000D01*
X108966000Y-66040000D02*
X109982000Y-67056000D01*
X109982000Y-67056000D02*
X110998000Y-67056000D01*
X111506000Y-67564000D02*
X111506000Y-69342000D01*
X110998000Y-67056000D02*
X111506000Y-67564000D01*
X135382000Y-60198000D02*
X138684000Y-60198000D01*
X139886081Y-60198000D02*
X141224000Y-58860081D01*
X138684000Y-60198000D02*
X139886081Y-60198000D01*
X141224000Y-58860081D02*
X141224000Y-58674000D01*
X141224000Y-58674000D02*
X143256000Y-56642000D01*
X143256000Y-56642000D02*
X149860000Y-56642000D01*
X149860000Y-56642000D02*
X150876000Y-55626000D01*
X150876000Y-55626000D02*
X150876000Y-53086000D01*
X149702000Y-51912000D02*
X149702000Y-50292000D01*
X150876000Y-53086000D02*
X149702000Y-51912000D01*
X112589919Y-77216000D02*
X112843919Y-76962000D01*
X111252000Y-77216000D02*
X112589919Y-77216000D01*
X120610000Y-102656000D02*
X120610000Y-106172000D01*
X120650000Y-102616000D02*
X120610000Y-102656000D01*
X103338000Y-104422000D02*
X103378000Y-104382000D01*
X103338000Y-106172000D02*
X103338000Y-104422000D01*
X103378000Y-104382000D02*
X103378000Y-104140000D01*
X103378000Y-104140000D02*
X104902000Y-102616000D01*
X112014000Y-104382000D02*
X112014000Y-102616000D01*
X111974000Y-104422000D02*
X112014000Y-104382000D01*
X111974000Y-106172000D02*
X111974000Y-104422000D01*
X104902000Y-102616000D02*
X112014000Y-102616000D01*
X112014000Y-102616000D02*
X120650000Y-102616000D01*
X124704000Y-100076000D02*
X127450000Y-100076000D01*
X127450000Y-100076000D02*
X127450000Y-102166000D01*
X127450000Y-102166000D02*
X126746000Y-102870000D01*
X106426000Y-69342000D02*
X106426000Y-71882000D01*
X106426000Y-71882000D02*
X106426000Y-74422000D01*
X106426000Y-76022000D02*
X107366000Y-76962000D01*
X106426000Y-74422000D02*
X106426000Y-76022000D01*
X107366000Y-76962000D02*
X108204000Y-76962000D01*
X108966000Y-77724000D02*
X108966000Y-79756000D01*
X108204000Y-76962000D02*
X108966000Y-77724000D01*
X133350000Y-55118000D02*
X135382000Y-55118000D01*
X130302000Y-58166000D02*
X133350000Y-55118000D01*
X130302000Y-98552000D02*
X130302000Y-58166000D01*
X127450000Y-100076000D02*
X128778000Y-100076000D01*
X128778000Y-100076000D02*
X130302000Y-98552000D01*
X135382000Y-55118000D02*
X138684000Y-55118000D01*
X127450000Y-100076000D02*
X141224000Y-100076000D01*
X143510000Y-102362000D02*
X145796000Y-102362000D01*
X141224000Y-100076000D02*
X143510000Y-102362000D01*
X108966000Y-81788000D02*
X108966000Y-79756000D01*
X109982000Y-82804000D02*
X108966000Y-81788000D01*
X109982000Y-95944081D02*
X109982000Y-82804000D01*
X107188000Y-97536000D02*
X108390081Y-97536000D01*
X108390081Y-97536000D02*
X109982000Y-95944081D01*
X136144000Y-105664000D02*
X136144000Y-107188000D01*
X135128000Y-104648000D02*
X136144000Y-105664000D01*
X132334000Y-104648000D02*
X135128000Y-104648000D01*
X131572000Y-105410000D02*
X132334000Y-104648000D01*
X126746000Y-107442000D02*
X131572000Y-107442000D01*
X131572000Y-107442000D02*
X131572000Y-105410000D01*
X123698000Y-102616000D02*
X120650000Y-102616000D01*
X124460000Y-103378000D02*
X123698000Y-102616000D01*
X126746000Y-107442000D02*
X124460000Y-107442000D01*
X124460000Y-107442000D02*
X124460000Y-103378000D01*
X126746000Y-104902000D02*
X126746000Y-102870000D01*
X111506000Y-100330000D02*
X116840000Y-100330000D01*
X124450000Y-100330000D02*
X124704000Y-100076000D01*
X119888000Y-100330000D02*
X124450000Y-100330000D01*
D27*
X134227370Y-91694000D02*
X135128000Y-90793370D01*
X133096000Y-91694000D02*
X134227370Y-91694000D01*
X135128000Y-90793370D02*
X135128000Y-88138000D01*
X133350000Y-86360000D02*
X133350000Y-85344000D01*
X135128000Y-88138000D02*
X133350000Y-86360000D01*
X137160000Y-64770000D02*
X138176000Y-63754000D01*
X136906000Y-64770000D02*
X137160000Y-64770000D01*
X135890000Y-65786000D02*
X136906000Y-64770000D01*
X137922000Y-70358000D02*
X135890000Y-68326000D01*
X135890000Y-68326000D02*
X135890000Y-65786000D01*
X100262081Y-74676000D02*
X101844000Y-74676000D01*
X99060000Y-74676000D02*
X100262081Y-74676000D01*
X116586000Y-67310000D02*
X116586000Y-69342000D01*
X114046000Y-64770000D02*
X116586000Y-67310000D01*
X116586000Y-69342000D02*
X116586000Y-71882000D01*
X116586000Y-71882000D02*
X116586000Y-74422000D01*
X114046000Y-64770000D02*
X114046000Y-63500000D01*
X114046000Y-63500000D02*
X115570000Y-61976000D01*
X115570000Y-61976000D02*
X121412000Y-61976000D01*
X121412000Y-61976000D02*
X127762000Y-55626000D01*
X127762000Y-55626000D02*
X127762000Y-53340000D01*
X127762000Y-53340000D02*
X131318000Y-49784000D01*
X131318000Y-49784000D02*
X131572000Y-49784000D01*
X100262081Y-72136000D02*
X101844000Y-72136000D01*
X99060000Y-72136000D02*
X100262081Y-72136000D01*
X114046000Y-67310000D02*
X114046000Y-69342000D01*
X111506000Y-64770000D02*
X114046000Y-67310000D01*
X114046000Y-70544081D02*
X114046000Y-71882000D01*
X114046000Y-69342000D02*
X114046000Y-70544081D01*
X114046000Y-71882000D02*
X114046000Y-74422000D01*
X111506000Y-63500000D02*
X111506000Y-64770000D01*
X110998000Y-62992000D02*
X111506000Y-63500000D01*
X102693999Y-71286001D02*
X103544001Y-71286001D01*
X103544001Y-71286001D02*
X104140000Y-70690002D01*
X101844000Y-72136000D02*
X102693999Y-71286001D01*
X104140000Y-70690002D02*
X104140000Y-63500000D01*
X104140000Y-63500000D02*
X104648000Y-62992000D01*
X104648000Y-62992000D02*
X110998000Y-62992000D01*
X113284000Y-60960000D02*
X111506000Y-62738000D01*
X111506000Y-62738000D02*
X111506000Y-64770000D01*
X120904000Y-60960000D02*
X113284000Y-60960000D01*
X142082000Y-49089919D02*
X141506081Y-48514000D01*
X142082000Y-50292000D02*
X142082000Y-49089919D01*
X141506081Y-48514000D02*
X131064000Y-48514000D01*
X131064000Y-48514000D02*
X126746000Y-52832000D01*
X126746000Y-52832000D02*
X126746000Y-55118000D01*
X126746000Y-55118000D02*
X120904000Y-60960000D01*
X99060000Y-84836000D02*
X101844000Y-84836000D01*
X103046081Y-84836000D02*
X105410000Y-87199919D01*
X101844000Y-84836000D02*
X103046081Y-84836000D01*
X105410000Y-87199919D02*
X105410000Y-88138000D01*
X105410000Y-88138000D02*
X107188000Y-89916000D01*
X99060000Y-82296000D02*
X101844000Y-82296000D01*
X103046081Y-82296000D02*
X105410000Y-84659919D01*
X101844000Y-82296000D02*
X103046081Y-82296000D01*
X105410000Y-84659919D02*
X105410000Y-85598000D01*
X105410000Y-85598000D02*
X107188000Y-87376000D01*
X99060000Y-87376000D02*
X101844000Y-87376000D01*
X103046081Y-87376000D02*
X103300081Y-87630000D01*
X101844000Y-87376000D02*
X103046081Y-87376000D01*
X103300081Y-87630000D02*
X103632000Y-87630000D01*
X103632000Y-87630000D02*
X105410000Y-89408000D01*
X105410000Y-90678000D02*
X107188000Y-92456000D01*
X105410000Y-89408000D02*
X105410000Y-90678000D01*
X139542000Y-50292000D02*
X141320000Y-52070000D01*
X141320000Y-52070000D02*
X147574000Y-52070000D01*
X148590000Y-53086000D02*
X148590000Y-54610000D01*
X147574000Y-52070000D02*
X148590000Y-53086000D01*
X137851999Y-51141999D02*
X138009999Y-51141999D01*
X137002000Y-50292000D02*
X137851999Y-51141999D01*
X138009999Y-51141999D02*
X139192000Y-52324000D01*
X139192000Y-52324000D02*
X140462000Y-52324000D01*
X140462000Y-52324000D02*
X140970000Y-52832000D01*
X146050000Y-54610000D02*
X146050000Y-53086000D01*
X146050000Y-53086000D02*
X145796000Y-52832000D01*
X145796000Y-52832000D02*
X140970000Y-52832000D01*
X140970000Y-54610000D02*
X143510000Y-54610000D01*
X140970000Y-53468410D02*
X140970000Y-54610000D01*
X140333590Y-52832000D02*
X140970000Y-53468410D01*
X135799919Y-52832000D02*
X140333590Y-52832000D01*
X134462000Y-50292000D02*
X134462000Y-51494081D01*
X134462000Y-51494081D02*
X135799919Y-52832000D01*
X146645999Y-105751999D02*
X146899999Y-105751999D01*
X145796000Y-104902000D02*
X146645999Y-105751999D01*
X148590000Y-107442000D02*
X149702000Y-107442000D01*
X146899999Y-105751999D02*
X148590000Y-107442000D01*
X148499919Y-104902000D02*
X147737919Y-104140000D01*
X149702000Y-104902000D02*
X148499919Y-104902000D01*
X147737919Y-104140000D02*
X147737919Y-100747919D01*
X147737919Y-100747919D02*
X147066000Y-100076000D01*
X147066000Y-100076000D02*
X142240000Y-100076000D01*
X142240000Y-100076000D02*
X141224000Y-99060000D01*
X141224000Y-99060000D02*
X133096000Y-99060000D01*
X148526999Y-100900589D02*
X147194410Y-99568000D01*
X149702000Y-102362000D02*
X148526999Y-101186999D01*
X148526999Y-101186999D02*
X148526999Y-100900589D01*
X147194410Y-99568000D02*
X142494000Y-99568000D01*
X142494000Y-99568000D02*
X141261000Y-98335000D01*
X141261000Y-98335000D02*
X137922000Y-98335000D01*
X148852001Y-98972001D02*
X148756001Y-98972001D01*
X149702000Y-99822000D02*
X148852001Y-98972001D01*
X148756001Y-98972001D02*
X146304000Y-96520000D01*
X146304000Y-96520000D02*
X146304000Y-95250000D01*
X146304000Y-95250000D02*
X143256000Y-92202000D01*
X143256000Y-92202000D02*
X142240000Y-92202000D01*
X142240000Y-92202000D02*
X139700000Y-89662000D01*
X139700000Y-89662000D02*
X139700000Y-87376000D01*
X139700000Y-87376000D02*
X137922000Y-85598000D01*
X137922000Y-85598000D02*
X137922000Y-83058000D01*
X137922000Y-83058000D02*
X136906000Y-82042000D01*
X134874000Y-82042000D02*
X133350000Y-80518000D01*
X136906000Y-82042000D02*
X134874000Y-82042000D01*
X139954000Y-80518000D02*
X137922000Y-80518000D01*
X148852001Y-96432001D02*
X148756001Y-96432001D01*
X141224000Y-81788000D02*
X139954000Y-80518000D01*
X149702000Y-97282000D02*
X148852001Y-96432001D01*
X148756001Y-96432001D02*
X143510000Y-91186000D01*
X143510000Y-91186000D02*
X142240000Y-91186000D01*
X142240000Y-91186000D02*
X141224000Y-90170000D01*
X141224000Y-90170000D02*
X141224000Y-81788000D01*
X143510000Y-89662000D02*
X148082000Y-94234000D01*
X148082000Y-94324081D02*
X148082000Y-94234000D01*
X148499919Y-94742000D02*
X148082000Y-94324081D01*
X149702000Y-94742000D02*
X148499919Y-94742000D01*
X148590000Y-92202000D02*
X149702000Y-92202000D01*
X145796000Y-89408000D02*
X148590000Y-92202000D01*
X145796000Y-87884000D02*
X145796000Y-89408000D01*
X143510000Y-87122000D02*
X145034000Y-87122000D01*
X145034000Y-87122000D02*
X145796000Y-87884000D01*
X147828000Y-89662000D02*
X149702000Y-89662000D01*
X146812000Y-88646000D02*
X147828000Y-89662000D01*
X146812000Y-85344000D02*
X146812000Y-88646000D01*
X143510000Y-84582000D02*
X146050000Y-84582000D01*
X146050000Y-84582000D02*
X146812000Y-85344000D01*
X143510000Y-79502000D02*
X149702000Y-79502000D01*
X143510000Y-76962000D02*
X149702000Y-76962000D01*
X143510000Y-74422000D02*
X149702000Y-74422000D01*
X143510000Y-71882000D02*
X149702000Y-71882000D01*
X144712081Y-69342000D02*
X149702000Y-69342000D01*
X143510000Y-69342000D02*
X144712081Y-69342000D01*
X144712081Y-66802000D02*
X149702000Y-66802000D01*
X143510000Y-66802000D02*
X144712081Y-66802000D01*
X144610000Y-64262000D02*
X149702000Y-64262000D01*
X143510000Y-64262000D02*
X144610000Y-64262000D01*
X125906081Y-94996000D02*
X127450000Y-94996000D01*
X124704000Y-94996000D02*
X125906081Y-94996000D01*
X124704000Y-92456000D02*
X127450000Y-92456000D01*
X125906081Y-84836000D02*
X127450000Y-84836000D01*
X124704000Y-84836000D02*
X125906081Y-84836000D01*
X121666000Y-92202000D02*
X121666000Y-90044410D01*
X120142000Y-93726000D02*
X121666000Y-92202000D01*
X121666000Y-90044410D02*
X122936000Y-88774410D01*
X122936000Y-88774410D02*
X122936000Y-87250410D01*
X122936000Y-87250410D02*
X123698000Y-86488410D01*
X123698000Y-85842000D02*
X124704000Y-84836000D01*
X123698000Y-86488410D02*
X123698000Y-85842000D01*
X124704000Y-82296000D02*
X127450000Y-82296000D01*
X122624010Y-84375990D02*
X124704000Y-82296000D01*
X120991999Y-90336001D02*
X120991999Y-90082001D01*
X120142000Y-91186000D02*
X120991999Y-90336001D01*
X120991999Y-90082001D02*
X121920000Y-89154000D01*
X121920000Y-89154000D02*
X121920000Y-87630000D01*
X121920000Y-87630000D02*
X122624010Y-86925990D01*
X122624010Y-86925990D02*
X122624010Y-84375990D01*
X124704000Y-79756000D02*
X127450000Y-79756000D01*
X122936000Y-81524000D02*
X124704000Y-79756000D01*
X122936000Y-83058000D02*
X122936000Y-81524000D01*
X122174000Y-83820000D02*
X122936000Y-83058000D01*
X120142000Y-88646000D02*
X122174000Y-86614000D01*
X122174000Y-86614000D02*
X122174000Y-83820000D01*
X125906081Y-77216000D02*
X127450000Y-77216000D01*
X124704000Y-77216000D02*
X125906081Y-77216000D01*
X120142000Y-85006000D02*
X122174000Y-82974000D01*
X120142000Y-86106000D02*
X120142000Y-85006000D01*
X122174000Y-79746000D02*
X124704000Y-77216000D01*
X122174000Y-82974000D02*
X122174000Y-79746000D01*
X125906081Y-74676000D02*
X127450000Y-74676000D01*
X124704000Y-74676000D02*
X125906081Y-74676000D01*
X121344081Y-79502000D02*
X122936000Y-77910081D01*
X120142000Y-79502000D02*
X121344081Y-79502000D01*
X122936000Y-76444000D02*
X124704000Y-74676000D01*
X122936000Y-77910081D02*
X122936000Y-76444000D01*
X125906081Y-72136000D02*
X127450000Y-72136000D01*
X124704000Y-72136000D02*
X125906081Y-72136000D01*
X120142000Y-76962000D02*
X121920000Y-76962000D01*
X121920000Y-76962000D02*
X122428000Y-76454000D01*
X122428000Y-76454000D02*
X122428000Y-74168000D01*
X122428000Y-74168000D02*
X123190000Y-73406000D01*
X123190000Y-73406000D02*
X123190000Y-72390000D01*
X123444000Y-72136000D02*
X124704000Y-72136000D01*
X123190000Y-72390000D02*
X123444000Y-72136000D01*
X125906081Y-69596000D02*
X127450000Y-69596000D01*
X124704000Y-69596000D02*
X125906081Y-69596000D01*
X124704000Y-67056000D02*
X127450000Y-67056000D01*
X124704000Y-64516000D02*
X127450000Y-64516000D01*
X121344081Y-74422000D02*
X121852081Y-73914000D01*
X120142000Y-74422000D02*
X121344081Y-74422000D01*
X121852081Y-73914000D02*
X121920000Y-73914000D01*
X121920000Y-73914000D02*
X122682000Y-73152000D01*
X122682000Y-73152000D02*
X122682000Y-65024000D01*
X123190000Y-64516000D02*
X124704000Y-64516000D01*
X122682000Y-65024000D02*
X123190000Y-64516000D01*
X99060000Y-89916000D02*
X101844000Y-89916000D01*
X101844000Y-89916000D02*
X104394000Y-89916000D01*
X99060000Y-64516000D02*
X101844000Y-64516000D01*
X116590000Y-52658000D02*
X105864000Y-52658000D01*
X118364000Y-52658000D02*
X116590000Y-52658000D01*
X105864000Y-53771600D02*
X103378000Y-56257600D01*
X105864000Y-52658000D02*
X105864000Y-53771600D01*
X103378000Y-56257600D02*
X103378000Y-61214000D01*
X101844000Y-62748000D02*
X101844000Y-64516000D01*
X103378000Y-61214000D02*
X101844000Y-62748000D01*
X100262081Y-69596000D02*
X101844000Y-69596000D01*
X99060000Y-69596000D02*
X100262081Y-69596000D01*
X99060000Y-92456000D02*
X101844000Y-92456000D01*
X99060000Y-94996000D02*
X101844000Y-94996000D01*
X101844000Y-94996000D02*
X104648000Y-97800000D01*
X104648000Y-97800000D02*
X104648000Y-98552000D01*
X109982000Y-101600000D02*
X110547685Y-101600000D01*
X110547685Y-101600000D02*
X117094000Y-101600000D01*
X117094000Y-101600000D02*
X118364000Y-100330000D01*
X118364000Y-100330000D02*
X118364000Y-98298000D01*
X118364000Y-94996000D02*
X118364000Y-83312000D01*
X118872000Y-83312000D02*
X120142000Y-82042000D01*
X118364000Y-83312000D02*
X118872000Y-83312000D01*
X144712081Y-82042000D02*
X149702000Y-82042000D01*
X143510000Y-82042000D02*
X144712081Y-82042000D01*
M02*
