M48
; DRILL file {KiCad (5.1.2)-1} date 29/09/2024 13:43:36
; FORMAT={-:-/ absolute / metric / decimal}
; #@! TF.CreationDate,2024-09-29T13:43:36+01:00
; #@! TF.GenerationSoftware,Kicad,Pcbnew,(5.1.2)-1
; #@! TF.FileFunction,Plated,1,2,PTH
FMAT,2
METRIC
T1C0.350
T2C0.400
T3C0.440
T4C0.700
T5C0.800
T6C0.813
T7C0.900
T8C1.000
%
G90
G05
T2
X104.394Y-89.916
X104.648Y-98.552
X105.41Y-82.042
X109.982Y-101.6
X111.252Y-77.216
X111.506Y-100.33
X116.84Y-100.33
X118.364Y-94.996
X118.364Y-98.298
X119.888Y-100.33
X131.572Y-49.784
X133.096Y-99.06
X137.922Y-98.335
T3
X136.144Y-107.188
X136.794Y-108.188
X137.444Y-107.188
X138.094Y-108.188
X138.744Y-107.188
T4
X133.35Y-85.344
X135.91Y-85.344
X133.096Y-63.754
X138.176Y-63.754
T5
X115.316Y-83.312
X115.316Y-93.472
X133.096Y-67.056
X138.096Y-67.056
X137.922Y-91.694
X137.922Y-101.854
X133.096Y-91.694
X133.096Y-101.854
X133.35Y-70.358
X133.35Y-80.518
X137.922Y-70.358
X137.922Y-80.518
X132.922Y-88.9
X137.922Y-88.9
T7
X113.792Y-98.298
X116.332Y-98.298
T8
X106.426Y-64.77
X108.966Y-64.77
X111.506Y-64.77
X114.046Y-64.77
X116.586Y-64.77
X119.126Y-64.77
X126.746Y-104.902
X126.746Y-107.442
X99.06Y-64.516
X99.06Y-67.056
X99.06Y-69.596
X99.06Y-72.136
X99.06Y-74.676
X99.06Y-77.216
X99.06Y-79.756
X99.06Y-82.296
X99.06Y-84.836
X99.06Y-87.376
X99.06Y-89.916
X99.06Y-92.456
X99.06Y-94.996
X99.06Y-97.536
X99.06Y-100.076
X120.142Y-69.342
X120.142Y-71.882
X120.142Y-74.422
X120.142Y-76.962
X120.142Y-79.502
X120.142Y-82.042
X123.698Y-54.102
X130.198Y-54.102
X143.51Y-54.61
X146.05Y-54.61
X148.59Y-54.61
X106.426Y-69.342
X108.966Y-69.342
X111.506Y-69.342
X114.046Y-69.342
X116.586Y-69.342
X149.702Y-59.182
X149.702Y-61.722
X149.702Y-64.262
X149.702Y-66.802
X149.702Y-69.342
X149.702Y-71.882
X149.702Y-74.422
X149.702Y-76.962
X149.702Y-79.502
X149.702Y-82.042
X149.702Y-84.582
X149.702Y-87.122
X149.702Y-89.662
X149.702Y-92.202
X149.702Y-94.742
X149.702Y-97.282
X149.702Y-99.822
X149.702Y-102.362
X149.702Y-104.902
X149.702Y-107.442
X106.426Y-71.882
X108.966Y-71.882
X111.506Y-71.882
X114.046Y-71.882
X116.586Y-71.882
X145.796Y-102.362
X145.796Y-104.902
X145.796Y-107.442
X127.45Y-64.516
X127.45Y-67.056
X127.45Y-69.596
X127.45Y-72.136
X127.45Y-74.676
X127.45Y-77.216
X127.45Y-79.756
X127.45Y-82.296
X127.45Y-84.836
X127.45Y-87.376
X127.45Y-89.916
X127.45Y-92.456
X127.45Y-94.996
X127.45Y-97.536
X127.45Y-100.076
X120.142Y-86.106
X120.142Y-88.646
X120.142Y-91.186
X120.142Y-93.726
X107.188Y-84.836
X107.188Y-87.376
X107.188Y-89.916
X107.188Y-92.456
X107.188Y-94.996
X107.188Y-97.536
X107.188Y-100.076
X124.704Y-64.516
X124.704Y-67.056
X124.704Y-69.596
X124.704Y-72.136
X124.704Y-74.676
X124.704Y-77.216
X124.704Y-79.756
X124.704Y-82.296
X124.704Y-84.836
X124.704Y-87.376
X124.704Y-89.916
X124.704Y-92.456
X124.704Y-94.996
X124.704Y-97.536
X124.704Y-100.076
X134.462Y-50.292
X137.002Y-50.292
X139.542Y-50.292
X142.082Y-50.292
X144.622Y-50.292
X147.162Y-50.292
X149.702Y-50.292
X118.11Y-106.172
X120.61Y-106.172
X135.382Y-55.118
X135.382Y-57.658
X135.382Y-60.198
X138.684Y-55.118
X138.684Y-57.658
X138.684Y-60.198
X106.426Y-79.756
X108.966Y-79.756
X111.506Y-79.756
X101.844Y-64.516
X101.844Y-67.056
X101.844Y-69.596
X101.844Y-72.136
X101.844Y-74.676
X101.844Y-77.216
X101.844Y-79.756
X101.844Y-82.296
X101.844Y-84.836
X101.844Y-87.376
X101.844Y-89.916
X101.844Y-92.456
X101.844Y-94.996
X101.844Y-97.536
X101.844Y-100.076
X106.426Y-74.422
X108.966Y-74.422
X111.506Y-74.422
X114.046Y-74.422
X116.586Y-74.422
X100.838Y-106.172
X103.338Y-106.172
X143.51Y-64.262
X143.51Y-66.802
X143.51Y-69.342
X143.51Y-71.882
X143.51Y-74.422
X143.51Y-76.962
X143.51Y-79.502
X143.51Y-82.042
X143.51Y-84.582
X143.51Y-87.122
X143.51Y-89.662
X109.474Y-106.172
X111.974Y-106.172
T1
X133.869Y-106.908G85X133.869Y-107.908
G05
X141.019Y-106.908G85X141.019Y-107.908
G05
T6
X105.864Y-52.858G85X105.864Y-52.458
G05
X105.864Y-57.858G85X105.864Y-57.458
G05
X118.364Y-52.858G85X118.364Y-52.458
G05
X118.364Y-57.858G85X118.364Y-57.458
G05
T0
M30
