G04 #@! TF.GenerationSoftware,KiCad,Pcbnew,(5.1.2)-1*
G04 #@! TF.CreationDate,2024-09-29T13:42:58+01:00*
G04 #@! TF.ProjectId,ESP8266_PCB01,45535038-3236-4365-9f50-434230312e6b,rev?*
G04 #@! TF.SameCoordinates,Original*
G04 #@! TF.FileFunction,Copper,L2,Bot*
G04 #@! TF.FilePolarity,Positive*
%FSLAX46Y46*%
G04 Gerber Fmt 4.6, Leading zero omitted, Abs format (unit mm)*
G04 Created by KiCad (PCBNEW (5.1.2)-1) date 2024-09-29 13:42:58*
%MOMM*%
%LPD*%
G04 APERTURE LIST*
%ADD10R,1.700000X1.700000*%
%ADD11O,1.700000X1.700000*%
%ADD12C,1.400000*%
%ADD13O,1.400000X1.400000*%
%ADD14R,1.600000X1.600000*%
%ADD15C,1.600000*%
%ADD16O,1.700000X2.000000*%
%ADD17C,0.150000*%
%ADD18C,1.700000*%
%ADD19O,1.600000X1.600000*%
%ADD20R,1.800000X1.800000*%
%ADD21C,1.800000*%
%ADD22O,3.048000X1.727200*%
%ADD23R,0.840000X0.840000*%
%ADD24C,0.840000*%
%ADD25O,0.850000X1.850000*%
%ADD26C,0.800000*%
%ADD27C,0.500000*%
%ADD28C,0.250000*%
%ADD29C,0.750000*%
%ADD30C,0.508000*%
G04 APERTURE END LIST*
D10*
X149702000Y-107442000D03*
D11*
X149702000Y-104902000D03*
X149702000Y-102362000D03*
X149702000Y-99822000D03*
X149702000Y-97282000D03*
X149702000Y-94742000D03*
X149702000Y-92202000D03*
X149702000Y-89662000D03*
X149702000Y-87122000D03*
X149702000Y-84582000D03*
X149702000Y-82042000D03*
X149702000Y-79502000D03*
X149702000Y-76962000D03*
X149702000Y-74422000D03*
X149702000Y-71882000D03*
X149702000Y-69342000D03*
X149702000Y-66802000D03*
X149702000Y-64262000D03*
X149702000Y-61722000D03*
X149702000Y-59182000D03*
D10*
X101844000Y-64516000D03*
D11*
X101844000Y-67056000D03*
X101844000Y-69596000D03*
X101844000Y-72136000D03*
X101844000Y-74676000D03*
X101844000Y-77216000D03*
X101844000Y-79756000D03*
X101844000Y-82296000D03*
X101844000Y-84836000D03*
X101844000Y-87376000D03*
X101844000Y-89916000D03*
X101844000Y-92456000D03*
X101844000Y-94996000D03*
X101844000Y-97536000D03*
X101844000Y-100076000D03*
D12*
X138176000Y-63754000D03*
D13*
X133096000Y-63754000D03*
D14*
X123698000Y-54102000D03*
D15*
X130198000Y-54102000D03*
X132922000Y-88900000D03*
X137922000Y-88900000D03*
X133096000Y-67056000D03*
X138096000Y-67056000D03*
D11*
X116586000Y-71882000D03*
X114046000Y-71882000D03*
X111506000Y-71882000D03*
X108966000Y-71882000D03*
D10*
X106426000Y-71882000D03*
X106426000Y-69342000D03*
D11*
X108966000Y-69342000D03*
X111506000Y-69342000D03*
X114046000Y-69342000D03*
X116586000Y-69342000D03*
X116586000Y-74422000D03*
X114046000Y-74422000D03*
X111506000Y-74422000D03*
X108966000Y-74422000D03*
D10*
X106426000Y-74422000D03*
X135382000Y-55118000D03*
D11*
X135382000Y-57658000D03*
X135382000Y-60198000D03*
X138684000Y-60198000D03*
X138684000Y-57658000D03*
D10*
X138684000Y-55118000D03*
X119126000Y-64770000D03*
D11*
X116586000Y-64770000D03*
X114046000Y-64770000D03*
X111506000Y-64770000D03*
X108966000Y-64770000D03*
X106426000Y-64770000D03*
D10*
X145796000Y-107442000D03*
D11*
X145796000Y-104902000D03*
X145796000Y-102362000D03*
X106426000Y-79756000D03*
X108966000Y-79756000D03*
D10*
X111506000Y-79756000D03*
D16*
X120610000Y-106172000D03*
D17*
G36*
X118734504Y-105173204D02*
G01*
X118758773Y-105176804D01*
X118782571Y-105182765D01*
X118805671Y-105191030D01*
X118827849Y-105201520D01*
X118848893Y-105214133D01*
X118868598Y-105228747D01*
X118886777Y-105245223D01*
X118903253Y-105263402D01*
X118917867Y-105283107D01*
X118930480Y-105304151D01*
X118940970Y-105326329D01*
X118949235Y-105349429D01*
X118955196Y-105373227D01*
X118958796Y-105397496D01*
X118960000Y-105422000D01*
X118960000Y-106922000D01*
X118958796Y-106946504D01*
X118955196Y-106970773D01*
X118949235Y-106994571D01*
X118940970Y-107017671D01*
X118930480Y-107039849D01*
X118917867Y-107060893D01*
X118903253Y-107080598D01*
X118886777Y-107098777D01*
X118868598Y-107115253D01*
X118848893Y-107129867D01*
X118827849Y-107142480D01*
X118805671Y-107152970D01*
X118782571Y-107161235D01*
X118758773Y-107167196D01*
X118734504Y-107170796D01*
X118710000Y-107172000D01*
X117510000Y-107172000D01*
X117485496Y-107170796D01*
X117461227Y-107167196D01*
X117437429Y-107161235D01*
X117414329Y-107152970D01*
X117392151Y-107142480D01*
X117371107Y-107129867D01*
X117351402Y-107115253D01*
X117333223Y-107098777D01*
X117316747Y-107080598D01*
X117302133Y-107060893D01*
X117289520Y-107039849D01*
X117279030Y-107017671D01*
X117270765Y-106994571D01*
X117264804Y-106970773D01*
X117261204Y-106946504D01*
X117260000Y-106922000D01*
X117260000Y-105422000D01*
X117261204Y-105397496D01*
X117264804Y-105373227D01*
X117270765Y-105349429D01*
X117279030Y-105326329D01*
X117289520Y-105304151D01*
X117302133Y-105283107D01*
X117316747Y-105263402D01*
X117333223Y-105245223D01*
X117351402Y-105228747D01*
X117371107Y-105214133D01*
X117392151Y-105201520D01*
X117414329Y-105191030D01*
X117437429Y-105182765D01*
X117461227Y-105176804D01*
X117485496Y-105173204D01*
X117510000Y-105172000D01*
X118710000Y-105172000D01*
X118734504Y-105173204D01*
X118734504Y-105173204D01*
G37*
D18*
X118110000Y-106172000D03*
D17*
G36*
X110098504Y-105173204D02*
G01*
X110122773Y-105176804D01*
X110146571Y-105182765D01*
X110169671Y-105191030D01*
X110191849Y-105201520D01*
X110212893Y-105214133D01*
X110232598Y-105228747D01*
X110250777Y-105245223D01*
X110267253Y-105263402D01*
X110281867Y-105283107D01*
X110294480Y-105304151D01*
X110304970Y-105326329D01*
X110313235Y-105349429D01*
X110319196Y-105373227D01*
X110322796Y-105397496D01*
X110324000Y-105422000D01*
X110324000Y-106922000D01*
X110322796Y-106946504D01*
X110319196Y-106970773D01*
X110313235Y-106994571D01*
X110304970Y-107017671D01*
X110294480Y-107039849D01*
X110281867Y-107060893D01*
X110267253Y-107080598D01*
X110250777Y-107098777D01*
X110232598Y-107115253D01*
X110212893Y-107129867D01*
X110191849Y-107142480D01*
X110169671Y-107152970D01*
X110146571Y-107161235D01*
X110122773Y-107167196D01*
X110098504Y-107170796D01*
X110074000Y-107172000D01*
X108874000Y-107172000D01*
X108849496Y-107170796D01*
X108825227Y-107167196D01*
X108801429Y-107161235D01*
X108778329Y-107152970D01*
X108756151Y-107142480D01*
X108735107Y-107129867D01*
X108715402Y-107115253D01*
X108697223Y-107098777D01*
X108680747Y-107080598D01*
X108666133Y-107060893D01*
X108653520Y-107039849D01*
X108643030Y-107017671D01*
X108634765Y-106994571D01*
X108628804Y-106970773D01*
X108625204Y-106946504D01*
X108624000Y-106922000D01*
X108624000Y-105422000D01*
X108625204Y-105397496D01*
X108628804Y-105373227D01*
X108634765Y-105349429D01*
X108643030Y-105326329D01*
X108653520Y-105304151D01*
X108666133Y-105283107D01*
X108680747Y-105263402D01*
X108697223Y-105245223D01*
X108715402Y-105228747D01*
X108735107Y-105214133D01*
X108756151Y-105201520D01*
X108778329Y-105191030D01*
X108801429Y-105182765D01*
X108825227Y-105176804D01*
X108849496Y-105173204D01*
X108874000Y-105172000D01*
X110074000Y-105172000D01*
X110098504Y-105173204D01*
X110098504Y-105173204D01*
G37*
D18*
X109474000Y-106172000D03*
D16*
X111974000Y-106172000D03*
X103338000Y-106172000D03*
D17*
G36*
X101462504Y-105173204D02*
G01*
X101486773Y-105176804D01*
X101510571Y-105182765D01*
X101533671Y-105191030D01*
X101555849Y-105201520D01*
X101576893Y-105214133D01*
X101596598Y-105228747D01*
X101614777Y-105245223D01*
X101631253Y-105263402D01*
X101645867Y-105283107D01*
X101658480Y-105304151D01*
X101668970Y-105326329D01*
X101677235Y-105349429D01*
X101683196Y-105373227D01*
X101686796Y-105397496D01*
X101688000Y-105422000D01*
X101688000Y-106922000D01*
X101686796Y-106946504D01*
X101683196Y-106970773D01*
X101677235Y-106994571D01*
X101668970Y-107017671D01*
X101658480Y-107039849D01*
X101645867Y-107060893D01*
X101631253Y-107080598D01*
X101614777Y-107098777D01*
X101596598Y-107115253D01*
X101576893Y-107129867D01*
X101555849Y-107142480D01*
X101533671Y-107152970D01*
X101510571Y-107161235D01*
X101486773Y-107167196D01*
X101462504Y-107170796D01*
X101438000Y-107172000D01*
X100238000Y-107172000D01*
X100213496Y-107170796D01*
X100189227Y-107167196D01*
X100165429Y-107161235D01*
X100142329Y-107152970D01*
X100120151Y-107142480D01*
X100099107Y-107129867D01*
X100079402Y-107115253D01*
X100061223Y-107098777D01*
X100044747Y-107080598D01*
X100030133Y-107060893D01*
X100017520Y-107039849D01*
X100007030Y-107017671D01*
X99998765Y-106994571D01*
X99992804Y-106970773D01*
X99989204Y-106946504D01*
X99988000Y-106922000D01*
X99988000Y-105422000D01*
X99989204Y-105397496D01*
X99992804Y-105373227D01*
X99998765Y-105349429D01*
X100007030Y-105326329D01*
X100017520Y-105304151D01*
X100030133Y-105283107D01*
X100044747Y-105263402D01*
X100061223Y-105245223D01*
X100079402Y-105228747D01*
X100099107Y-105214133D01*
X100120151Y-105201520D01*
X100142329Y-105191030D01*
X100165429Y-105182765D01*
X100189227Y-105176804D01*
X100213496Y-105173204D01*
X100238000Y-105172000D01*
X101438000Y-105172000D01*
X101462504Y-105173204D01*
X101462504Y-105173204D01*
G37*
D18*
X100838000Y-106172000D03*
D12*
X135910000Y-85344000D03*
D17*
G36*
X133825226Y-84645200D02*
G01*
X133849417Y-84648788D01*
X133873139Y-84654730D01*
X133896165Y-84662969D01*
X133918272Y-84673425D01*
X133939248Y-84685998D01*
X133958891Y-84700566D01*
X133977011Y-84716989D01*
X133993434Y-84735109D01*
X134008002Y-84754752D01*
X134020575Y-84775728D01*
X134031031Y-84797835D01*
X134039270Y-84820861D01*
X134045212Y-84844583D01*
X134048800Y-84868774D01*
X134050000Y-84893200D01*
X134050000Y-85794800D01*
X134048800Y-85819226D01*
X134045212Y-85843417D01*
X134039270Y-85867139D01*
X134031031Y-85890165D01*
X134020575Y-85912272D01*
X134008002Y-85933248D01*
X133993434Y-85952891D01*
X133977011Y-85971011D01*
X133958891Y-85987434D01*
X133939248Y-86002002D01*
X133918272Y-86014575D01*
X133896165Y-86025031D01*
X133873139Y-86033270D01*
X133849417Y-86039212D01*
X133825226Y-86042800D01*
X133800800Y-86044000D01*
X132899200Y-86044000D01*
X132874774Y-86042800D01*
X132850583Y-86039212D01*
X132826861Y-86033270D01*
X132803835Y-86025031D01*
X132781728Y-86014575D01*
X132760752Y-86002002D01*
X132741109Y-85987434D01*
X132722989Y-85971011D01*
X132706566Y-85952891D01*
X132691998Y-85933248D01*
X132679425Y-85912272D01*
X132668969Y-85890165D01*
X132660730Y-85867139D01*
X132654788Y-85843417D01*
X132651200Y-85819226D01*
X132650000Y-85794800D01*
X132650000Y-84893200D01*
X132651200Y-84868774D01*
X132654788Y-84844583D01*
X132660730Y-84820861D01*
X132668969Y-84797835D01*
X132679425Y-84775728D01*
X132691998Y-84754752D01*
X132706566Y-84735109D01*
X132722989Y-84716989D01*
X132741109Y-84700566D01*
X132760752Y-84685998D01*
X132781728Y-84673425D01*
X132803835Y-84662969D01*
X132826861Y-84654730D01*
X132850583Y-84648788D01*
X132874774Y-84645200D01*
X132899200Y-84644000D01*
X133800800Y-84644000D01*
X133825226Y-84645200D01*
X133825226Y-84645200D01*
G37*
D12*
X133350000Y-85344000D03*
D19*
X115316000Y-93472000D03*
D15*
X115316000Y-83312000D03*
X133096000Y-101854000D03*
D19*
X133096000Y-91694000D03*
D15*
X137922000Y-101854000D03*
D19*
X137922000Y-91694000D03*
D15*
X137922000Y-80518000D03*
D19*
X137922000Y-70358000D03*
X133350000Y-70358000D03*
D15*
X133350000Y-80518000D03*
D20*
X116332000Y-98298000D03*
D21*
X113792000Y-98298000D03*
D22*
X118364000Y-52658000D03*
X118364000Y-57658000D03*
X105864000Y-52658000D03*
X105864000Y-57658000D03*
D23*
X136144000Y-107188000D03*
D24*
X136794000Y-108188000D03*
X137444000Y-107188000D03*
X138094000Y-108188000D03*
X138744000Y-107188000D03*
D25*
X133869000Y-107408000D03*
X141019000Y-107408000D03*
D10*
X107188000Y-84836000D03*
D11*
X107188000Y-87376000D03*
X107188000Y-89916000D03*
X107188000Y-92456000D03*
X107188000Y-94996000D03*
X107188000Y-97536000D03*
X107188000Y-100076000D03*
D10*
X149702000Y-50292000D03*
D11*
X147162000Y-50292000D03*
X144622000Y-50292000D03*
X142082000Y-50292000D03*
X139542000Y-50292000D03*
X137002000Y-50292000D03*
X134462000Y-50292000D03*
D10*
X143510000Y-54610000D03*
D11*
X146050000Y-54610000D03*
X148590000Y-54610000D03*
D10*
X126746000Y-107442000D03*
D11*
X126746000Y-104902000D03*
X124704000Y-100076000D03*
X124704000Y-97536000D03*
X124704000Y-94996000D03*
X124704000Y-92456000D03*
X124704000Y-89916000D03*
X124704000Y-87376000D03*
X124704000Y-84836000D03*
X124704000Y-82296000D03*
X124704000Y-79756000D03*
X124704000Y-77216000D03*
X124704000Y-74676000D03*
X124704000Y-72136000D03*
X124704000Y-69596000D03*
X124704000Y-67056000D03*
D10*
X124704000Y-64516000D03*
D11*
X127450000Y-100076000D03*
X127450000Y-97536000D03*
X127450000Y-94996000D03*
X127450000Y-92456000D03*
X127450000Y-89916000D03*
X127450000Y-87376000D03*
X127450000Y-84836000D03*
X127450000Y-82296000D03*
X127450000Y-79756000D03*
X127450000Y-77216000D03*
X127450000Y-74676000D03*
X127450000Y-72136000D03*
X127450000Y-69596000D03*
X127450000Y-67056000D03*
D10*
X127450000Y-64516000D03*
X99060000Y-64516000D03*
D11*
X99060000Y-67056000D03*
X99060000Y-69596000D03*
X99060000Y-72136000D03*
X99060000Y-74676000D03*
X99060000Y-77216000D03*
X99060000Y-79756000D03*
X99060000Y-82296000D03*
X99060000Y-84836000D03*
X99060000Y-87376000D03*
X99060000Y-89916000D03*
X99060000Y-92456000D03*
X99060000Y-94996000D03*
X99060000Y-97536000D03*
X99060000Y-100076000D03*
D10*
X143510000Y-64262000D03*
D11*
X143510000Y-66802000D03*
X143510000Y-69342000D03*
X143510000Y-71882000D03*
X143510000Y-74422000D03*
X143510000Y-76962000D03*
X143510000Y-79502000D03*
X143510000Y-82042000D03*
X143510000Y-84582000D03*
X143510000Y-87122000D03*
X143510000Y-89662000D03*
D10*
X120142000Y-69342000D03*
D11*
X120142000Y-71882000D03*
X120142000Y-74422000D03*
X120142000Y-76962000D03*
X120142000Y-79502000D03*
X120142000Y-82042000D03*
D10*
X120142000Y-86106000D03*
D11*
X120142000Y-88646000D03*
X120142000Y-91186000D03*
X120142000Y-93726000D03*
D26*
X105410000Y-82042000D03*
X111252000Y-77216000D03*
X111506000Y-100330000D03*
X116840000Y-100330000D03*
X119888000Y-100330000D03*
X131572000Y-49784000D03*
X133096000Y-99060000D03*
X137922000Y-98335000D03*
X104394000Y-89916000D03*
X104648000Y-98552000D03*
X109982000Y-101600000D03*
X118364000Y-98298000D03*
X118364000Y-94996000D03*
D27*
X116586000Y-95250000D02*
X116586000Y-94488000D01*
X116586000Y-94488000D02*
X117602000Y-93472000D01*
X138744000Y-107188000D02*
X139700000Y-106232000D01*
X139700000Y-106232000D02*
X139700000Y-105664000D01*
D28*
X138744000Y-107188000D02*
X139446000Y-107188000D01*
X139446000Y-107188000D02*
X139446000Y-108712000D01*
D27*
X119126000Y-64770000D02*
X121412000Y-64770000D01*
X121412000Y-64770000D02*
X123698000Y-62484000D01*
X123698000Y-62484000D02*
X129286000Y-62484000D01*
X129286000Y-62484000D02*
X130048000Y-63246000D01*
X103046081Y-97536000D02*
X103886000Y-96696081D01*
X101844000Y-97536000D02*
X103046081Y-97536000D01*
X116332000Y-98298000D02*
X116332000Y-98806000D01*
X116332000Y-98806000D02*
X114554000Y-100584000D01*
X114554000Y-100584000D02*
X114554000Y-101346000D01*
X102693999Y-98385999D02*
X102703999Y-98385999D01*
X101844000Y-97536000D02*
X102693999Y-98385999D01*
X102703999Y-98385999D02*
X103632000Y-99314000D01*
X103632000Y-99314000D02*
X103632000Y-101854000D01*
D29*
X108966000Y-63567919D02*
X110303919Y-62230000D01*
X108966000Y-64770000D02*
X108966000Y-63567919D01*
X110303919Y-62230000D02*
X122428000Y-62230000D01*
X122428000Y-62230000D02*
X123444000Y-61214000D01*
X134366000Y-61214000D02*
X135382000Y-60198000D01*
X123444000Y-61214000D02*
X134366000Y-61214000D01*
X101844000Y-77216000D02*
X111252000Y-77216000D01*
X107188000Y-97536000D02*
X108712000Y-97536000D01*
X108712000Y-97536000D02*
X111506000Y-100330000D01*
X116840000Y-100330000D02*
X119126000Y-100330000D01*
X119126000Y-100330000D02*
X119888000Y-100330000D01*
D28*
X144622000Y-49089919D02*
X144622000Y-50292000D01*
X144046081Y-48514000D02*
X144622000Y-49089919D01*
X132080000Y-48514000D02*
X144046081Y-48514000D01*
X131572000Y-49022000D02*
X132080000Y-48514000D01*
X131572000Y-49784000D02*
X131572000Y-49022000D01*
X116586000Y-75946000D02*
X116586000Y-74422000D01*
X116078000Y-76454000D02*
X116586000Y-75946000D01*
X104824081Y-76454000D02*
X116078000Y-76454000D01*
X101844000Y-74676000D02*
X103046081Y-74676000D01*
X103046081Y-74676000D02*
X104824081Y-76454000D01*
X114046000Y-94742000D02*
X115316000Y-93472000D01*
X114046000Y-96771208D02*
X114046000Y-94742000D01*
X113792000Y-98298000D02*
X113792000Y-97025208D01*
X113792000Y-97025208D02*
X114046000Y-96771208D01*
X133096000Y-99060000D02*
X133096000Y-101854000D01*
X137922000Y-98335000D02*
X137922000Y-101854000D01*
X121344081Y-71882000D02*
X121852081Y-72390000D01*
X120142000Y-71882000D02*
X121344081Y-71882000D01*
X121852081Y-72390000D02*
X121852081Y-92896081D01*
X121852081Y-92896081D02*
X122936000Y-93980000D01*
X122936000Y-93980000D02*
X122936000Y-94996000D01*
X122936000Y-94996000D02*
X124704000Y-94996000D01*
X123444000Y-92456000D02*
X124704000Y-92456000D01*
X122936000Y-91948000D02*
X123444000Y-92456000D01*
X122936000Y-70358000D02*
X122936000Y-91948000D01*
X120142000Y-69342000D02*
X121920000Y-69342000D01*
X121920000Y-69342000D02*
X122936000Y-70358000D01*
X104394000Y-89916000D02*
X104394000Y-86106000D01*
X105664000Y-84836000D02*
X107188000Y-84836000D01*
X104394000Y-86106000D02*
X105664000Y-84836000D01*
X102693999Y-68746001D02*
X102693999Y-68502001D01*
X101844000Y-69596000D02*
X102693999Y-68746001D01*
X102693999Y-68502001D02*
X103886000Y-67310000D01*
X103886000Y-67310000D02*
X118110000Y-67310000D01*
X118110000Y-67310000D02*
X117856000Y-67564000D01*
X117856000Y-80772000D02*
X115316000Y-83312000D01*
X117856000Y-67564000D02*
X117856000Y-80772000D01*
X106426000Y-79756000D02*
X104140000Y-79756000D01*
X104140000Y-79756000D02*
X103632000Y-80264000D01*
X103632000Y-90668000D02*
X101844000Y-92456000D01*
X103632000Y-80264000D02*
X103632000Y-90668000D01*
X104648000Y-98552000D02*
X104648000Y-100330000D01*
X104648000Y-100330000D02*
X105918000Y-101600000D01*
X105918000Y-101600000D02*
X109982000Y-101600000D01*
X118364000Y-98298000D02*
X118364000Y-94996000D01*
D30*
G36*
X129902000Y-49619519D02*
G01*
X129902000Y-49948481D01*
X129966178Y-50271121D01*
X130092066Y-50575041D01*
X130274827Y-50848563D01*
X130507437Y-51081173D01*
X130780959Y-51263934D01*
X131084879Y-51389822D01*
X131407519Y-51454000D01*
X131736481Y-51454000D01*
X132059121Y-51389822D01*
X132363041Y-51263934D01*
X132521186Y-51158265D01*
X132690756Y-51475507D01*
X132955681Y-51798319D01*
X133278493Y-52063244D01*
X133646786Y-52260101D01*
X134046407Y-52381325D01*
X134357858Y-52412000D01*
X134566142Y-52412000D01*
X134877593Y-52381325D01*
X135277214Y-52260101D01*
X135645507Y-52063244D01*
X135732000Y-51992261D01*
X135818493Y-52063244D01*
X136186786Y-52260101D01*
X136586407Y-52381325D01*
X136897858Y-52412000D01*
X137106142Y-52412000D01*
X137417593Y-52381325D01*
X137817214Y-52260101D01*
X138185507Y-52063244D01*
X138272000Y-51992261D01*
X138358493Y-52063244D01*
X138726786Y-52260101D01*
X139126407Y-52381325D01*
X139437858Y-52412000D01*
X139646142Y-52412000D01*
X139957593Y-52381325D01*
X140357214Y-52260101D01*
X140725507Y-52063244D01*
X140812000Y-51992261D01*
X140898493Y-52063244D01*
X141266786Y-52260101D01*
X141666407Y-52381325D01*
X141977858Y-52412000D01*
X142186142Y-52412000D01*
X142497593Y-52381325D01*
X142897214Y-52260101D01*
X143265507Y-52063244D01*
X143352000Y-51992261D01*
X143438493Y-52063244D01*
X143806786Y-52260101D01*
X144206407Y-52381325D01*
X144517858Y-52412000D01*
X144726142Y-52412000D01*
X145037593Y-52381325D01*
X145437214Y-52260101D01*
X145805507Y-52063244D01*
X145900923Y-51984938D01*
X146130357Y-52144065D01*
X146511500Y-52309742D01*
X146581875Y-52331082D01*
X146908000Y-52076514D01*
X146908000Y-50546000D01*
X146888000Y-50546000D01*
X146888000Y-50038000D01*
X146908000Y-50038000D01*
X146908000Y-50018000D01*
X147416000Y-50018000D01*
X147416000Y-50038000D01*
X147436000Y-50038000D01*
X147436000Y-50546000D01*
X147416000Y-50546000D01*
X147416000Y-52076514D01*
X147742125Y-52331082D01*
X147812500Y-52309742D01*
X148113537Y-52178886D01*
X148143012Y-52203075D01*
X148363641Y-52321003D01*
X148603037Y-52393623D01*
X148852000Y-52418144D01*
X150552000Y-52418144D01*
X150597000Y-52413712D01*
X150597000Y-53923019D01*
X150558101Y-53794786D01*
X150361244Y-53426493D01*
X150096319Y-53103681D01*
X149773507Y-52838756D01*
X149405214Y-52641899D01*
X149005593Y-52520675D01*
X148694142Y-52490000D01*
X148485858Y-52490000D01*
X148174407Y-52520675D01*
X147774786Y-52641899D01*
X147406493Y-52838756D01*
X147320000Y-52909739D01*
X147233507Y-52838756D01*
X146865214Y-52641899D01*
X146465593Y-52520675D01*
X146154142Y-52490000D01*
X145945858Y-52490000D01*
X145634407Y-52520675D01*
X145234786Y-52641899D01*
X145092302Y-52718058D01*
X145068988Y-52698925D01*
X144848359Y-52580997D01*
X144608963Y-52508377D01*
X144360000Y-52483856D01*
X142660000Y-52483856D01*
X142411037Y-52508377D01*
X142171641Y-52580997D01*
X141951012Y-52698925D01*
X141757630Y-52857630D01*
X141598925Y-53051012D01*
X141480997Y-53271641D01*
X141408377Y-53511037D01*
X141383856Y-53760000D01*
X141383856Y-55460000D01*
X141408377Y-55708963D01*
X141480997Y-55948359D01*
X141598925Y-56168988D01*
X141757630Y-56362370D01*
X141951012Y-56521075D01*
X142171641Y-56639003D01*
X142411037Y-56711623D01*
X142660000Y-56736144D01*
X144360000Y-56736144D01*
X144608963Y-56711623D01*
X144848359Y-56639003D01*
X145068988Y-56521075D01*
X145092302Y-56501942D01*
X145234786Y-56578101D01*
X145634407Y-56699325D01*
X145945858Y-56730000D01*
X146154142Y-56730000D01*
X146465593Y-56699325D01*
X146865214Y-56578101D01*
X147233507Y-56381244D01*
X147320000Y-56310261D01*
X147406493Y-56381244D01*
X147774786Y-56578101D01*
X148174407Y-56699325D01*
X148485858Y-56730000D01*
X148694142Y-56730000D01*
X149005593Y-56699325D01*
X149405214Y-56578101D01*
X149773507Y-56381244D01*
X150096319Y-56116319D01*
X150361244Y-55793507D01*
X150558101Y-55425214D01*
X150597000Y-55296981D01*
X150597000Y-57256546D01*
X150517214Y-57213899D01*
X150117593Y-57092675D01*
X149806142Y-57062000D01*
X149597858Y-57062000D01*
X149286407Y-57092675D01*
X148886786Y-57213899D01*
X148518493Y-57410756D01*
X148195681Y-57675681D01*
X147930756Y-57998493D01*
X147733899Y-58366786D01*
X147612675Y-58766407D01*
X147571743Y-59182000D01*
X147612675Y-59597593D01*
X147733899Y-59997214D01*
X147930756Y-60365507D01*
X148009062Y-60460923D01*
X147849935Y-60690357D01*
X147684258Y-61071500D01*
X147662918Y-61141875D01*
X147917486Y-61468000D01*
X149448000Y-61468000D01*
X149448000Y-61448000D01*
X149956000Y-61448000D01*
X149956000Y-61468000D01*
X149976000Y-61468000D01*
X149976000Y-61976000D01*
X149956000Y-61976000D01*
X149956000Y-61996000D01*
X149448000Y-61996000D01*
X149448000Y-61976000D01*
X147917486Y-61976000D01*
X147662918Y-62302125D01*
X147684258Y-62372500D01*
X147849935Y-62753643D01*
X148009062Y-62983077D01*
X147930756Y-63078493D01*
X147733899Y-63446786D01*
X147612675Y-63846407D01*
X147571743Y-64262000D01*
X147612675Y-64677593D01*
X147733899Y-65077214D01*
X147930756Y-65445507D01*
X148001739Y-65532000D01*
X147930756Y-65618493D01*
X147733899Y-65986786D01*
X147612675Y-66386407D01*
X147571743Y-66802000D01*
X147612675Y-67217593D01*
X147733899Y-67617214D01*
X147930756Y-67985507D01*
X148001739Y-68072000D01*
X147930756Y-68158493D01*
X147733899Y-68526786D01*
X147612675Y-68926407D01*
X147571743Y-69342000D01*
X147612675Y-69757593D01*
X147733899Y-70157214D01*
X147930756Y-70525507D01*
X148001739Y-70612000D01*
X147930756Y-70698493D01*
X147733899Y-71066786D01*
X147612675Y-71466407D01*
X147571743Y-71882000D01*
X147612675Y-72297593D01*
X147733899Y-72697214D01*
X147930756Y-73065507D01*
X148001739Y-73152000D01*
X147930756Y-73238493D01*
X147733899Y-73606786D01*
X147612675Y-74006407D01*
X147571743Y-74422000D01*
X147612675Y-74837593D01*
X147733899Y-75237214D01*
X147930756Y-75605507D01*
X148001739Y-75692000D01*
X147930756Y-75778493D01*
X147733899Y-76146786D01*
X147612675Y-76546407D01*
X147571743Y-76962000D01*
X147612675Y-77377593D01*
X147733899Y-77777214D01*
X147930756Y-78145507D01*
X148001739Y-78232000D01*
X147930756Y-78318493D01*
X147733899Y-78686786D01*
X147612675Y-79086407D01*
X147571743Y-79502000D01*
X147612675Y-79917593D01*
X147733899Y-80317214D01*
X147930756Y-80685507D01*
X148001739Y-80772000D01*
X147930756Y-80858493D01*
X147733899Y-81226786D01*
X147612675Y-81626407D01*
X147571743Y-82042000D01*
X147612675Y-82457593D01*
X147733899Y-82857214D01*
X147930756Y-83225507D01*
X148001739Y-83312000D01*
X147930756Y-83398493D01*
X147733899Y-83766786D01*
X147612675Y-84166407D01*
X147571743Y-84582000D01*
X147612675Y-84997593D01*
X147733899Y-85397214D01*
X147930756Y-85765507D01*
X148009062Y-85860923D01*
X147849935Y-86090357D01*
X147684258Y-86471500D01*
X147662918Y-86541875D01*
X147917486Y-86868000D01*
X149448000Y-86868000D01*
X149448000Y-86848000D01*
X149956000Y-86848000D01*
X149956000Y-86868000D01*
X149976000Y-86868000D01*
X149976000Y-87376000D01*
X149956000Y-87376000D01*
X149956000Y-87396000D01*
X149448000Y-87396000D01*
X149448000Y-87376000D01*
X147917486Y-87376000D01*
X147662918Y-87702125D01*
X147684258Y-87772500D01*
X147849935Y-88153643D01*
X148009062Y-88383077D01*
X147930756Y-88478493D01*
X147733899Y-88846786D01*
X147612675Y-89246407D01*
X147571743Y-89662000D01*
X147612675Y-90077593D01*
X147733899Y-90477214D01*
X147930756Y-90845507D01*
X148001739Y-90932000D01*
X147930756Y-91018493D01*
X147733899Y-91386786D01*
X147612675Y-91786407D01*
X147571743Y-92202000D01*
X147612675Y-92617593D01*
X147733899Y-93017214D01*
X147930756Y-93385507D01*
X148001739Y-93472000D01*
X147930756Y-93558493D01*
X147733899Y-93926786D01*
X147612675Y-94326407D01*
X147571743Y-94742000D01*
X147612675Y-95157593D01*
X147733899Y-95557214D01*
X147930756Y-95925507D01*
X148001739Y-96012000D01*
X147930756Y-96098493D01*
X147733899Y-96466786D01*
X147612675Y-96866407D01*
X147571743Y-97282000D01*
X147612675Y-97697593D01*
X147733899Y-98097214D01*
X147930756Y-98465507D01*
X148001739Y-98552000D01*
X147930756Y-98638493D01*
X147733899Y-99006786D01*
X147612675Y-99406407D01*
X147571743Y-99822000D01*
X147612675Y-100237593D01*
X147733899Y-100637214D01*
X147930756Y-101005507D01*
X148001739Y-101092000D01*
X147930756Y-101178493D01*
X147749000Y-101518534D01*
X147567244Y-101178493D01*
X147302319Y-100855681D01*
X146979507Y-100590756D01*
X146611214Y-100393899D01*
X146211593Y-100272675D01*
X145900142Y-100242000D01*
X145691858Y-100242000D01*
X145380407Y-100272675D01*
X144980786Y-100393899D01*
X144612493Y-100590756D01*
X144289681Y-100855681D01*
X144024756Y-101178493D01*
X143827899Y-101546786D01*
X143706675Y-101946407D01*
X143665743Y-102362000D01*
X143706675Y-102777593D01*
X143827899Y-103177214D01*
X144024756Y-103545507D01*
X144095739Y-103632000D01*
X144024756Y-103718493D01*
X143827899Y-104086786D01*
X143706675Y-104486407D01*
X143665743Y-104902000D01*
X143706675Y-105317593D01*
X143827899Y-105717214D01*
X143904058Y-105859697D01*
X143884924Y-105883012D01*
X143766996Y-106103640D01*
X143694376Y-106343036D01*
X143669855Y-106592000D01*
X143676000Y-106870500D01*
X143993500Y-107188000D01*
X145542000Y-107188000D01*
X145542000Y-107168000D01*
X146050000Y-107168000D01*
X146050000Y-107188000D01*
X146070000Y-107188000D01*
X146070000Y-107696000D01*
X146050000Y-107696000D01*
X146050000Y-107716000D01*
X145542000Y-107716000D01*
X145542000Y-107696000D01*
X143993500Y-107696000D01*
X143676000Y-108013500D01*
X143669855Y-108292000D01*
X143683742Y-108433000D01*
X142631013Y-108433000D01*
X142689474Y-108240278D01*
X142714000Y-107991265D01*
X142714000Y-106824735D01*
X142689474Y-106575722D01*
X142592553Y-106256213D01*
X142435160Y-105961752D01*
X142223345Y-105703655D01*
X141965247Y-105491840D01*
X141670786Y-105334447D01*
X141351277Y-105237526D01*
X141019000Y-105204799D01*
X140686722Y-105237526D01*
X140367213Y-105334447D01*
X140072752Y-105491840D01*
X139814655Y-105703655D01*
X139602840Y-105961753D01*
X139598345Y-105970163D01*
X139603087Y-105723153D01*
X139300802Y-105583700D01*
X138977120Y-105505900D01*
X138644479Y-105492741D01*
X138315663Y-105544731D01*
X138092011Y-105627172D01*
X137936955Y-105562946D01*
X137610450Y-105498000D01*
X137277550Y-105498000D01*
X136960367Y-105561092D01*
X136812963Y-105516377D01*
X136564000Y-105491856D01*
X135724000Y-105491856D01*
X135475037Y-105516377D01*
X135235641Y-105588997D01*
X135052750Y-105686754D01*
X134815247Y-105491840D01*
X134520786Y-105334447D01*
X134201277Y-105237526D01*
X133869000Y-105204799D01*
X133536722Y-105237526D01*
X133217213Y-105334447D01*
X132922752Y-105491840D01*
X132664655Y-105703655D01*
X132452840Y-105961753D01*
X132295447Y-106256214D01*
X132198526Y-106575723D01*
X132174000Y-106824736D01*
X132174000Y-107991265D01*
X132198526Y-108240278D01*
X132256987Y-108433000D01*
X128858257Y-108433000D01*
X128872144Y-108292000D01*
X128872144Y-106592000D01*
X128847623Y-106343037D01*
X128775003Y-106103641D01*
X128657075Y-105883012D01*
X128637942Y-105859698D01*
X128714101Y-105717214D01*
X128835325Y-105317593D01*
X128876257Y-104902000D01*
X128835325Y-104486407D01*
X128714101Y-104086786D01*
X128517244Y-103718493D01*
X128252319Y-103395681D01*
X127929507Y-103130756D01*
X127561214Y-102933899D01*
X127161593Y-102812675D01*
X126850142Y-102782000D01*
X126641858Y-102782000D01*
X126330407Y-102812675D01*
X125930786Y-102933899D01*
X125562493Y-103130756D01*
X125239681Y-103395681D01*
X124974756Y-103718493D01*
X124777899Y-104086786D01*
X124656675Y-104486407D01*
X124615743Y-104902000D01*
X124656675Y-105317593D01*
X124777899Y-105717214D01*
X124854058Y-105859698D01*
X124834925Y-105883012D01*
X124716997Y-106103641D01*
X124644377Y-106343037D01*
X124619856Y-106592000D01*
X124619856Y-108292000D01*
X124633743Y-108433000D01*
X120805521Y-108433000D01*
X121025593Y-108411325D01*
X121425214Y-108290101D01*
X121793507Y-108093244D01*
X122116319Y-107828319D01*
X122381244Y-107505507D01*
X122578101Y-107137213D01*
X122699325Y-106737592D01*
X122730000Y-106426141D01*
X122730000Y-105917858D01*
X122699325Y-105606407D01*
X122578101Y-105206786D01*
X122381244Y-104838493D01*
X122116319Y-104515681D01*
X121793507Y-104250756D01*
X121425213Y-104053899D01*
X121025592Y-103932675D01*
X120610000Y-103891743D01*
X120194407Y-103932675D01*
X119794786Y-104053899D01*
X119676526Y-104117110D01*
X119668988Y-104110924D01*
X119448360Y-103992996D01*
X119208964Y-103920376D01*
X118960000Y-103895855D01*
X118681500Y-103902000D01*
X118364000Y-104219500D01*
X118364000Y-105918000D01*
X118384000Y-105918000D01*
X118384000Y-106426000D01*
X118364000Y-106426000D01*
X118364000Y-106446000D01*
X117856000Y-106446000D01*
X117856000Y-106426000D01*
X116307500Y-106426000D01*
X115990000Y-106743500D01*
X115983855Y-107172000D01*
X116008376Y-107420964D01*
X116080996Y-107660360D01*
X116198924Y-107880988D01*
X116357629Y-108074371D01*
X116551012Y-108233076D01*
X116771640Y-108351004D01*
X117011036Y-108423624D01*
X117106231Y-108433000D01*
X112169521Y-108433000D01*
X112389593Y-108411325D01*
X112789214Y-108290101D01*
X113157507Y-108093244D01*
X113480319Y-107828319D01*
X113745244Y-107505507D01*
X113942101Y-107137213D01*
X114063325Y-106737592D01*
X114094000Y-106426141D01*
X114094000Y-105917858D01*
X114063325Y-105606407D01*
X113942101Y-105206786D01*
X113923508Y-105172000D01*
X115983855Y-105172000D01*
X115990000Y-105600500D01*
X116307500Y-105918000D01*
X117856000Y-105918000D01*
X117856000Y-104219500D01*
X117538500Y-103902000D01*
X117260000Y-103895855D01*
X117011036Y-103920376D01*
X116771640Y-103992996D01*
X116551012Y-104110924D01*
X116357629Y-104269629D01*
X116198924Y-104463012D01*
X116080996Y-104683640D01*
X116008376Y-104923036D01*
X115983855Y-105172000D01*
X113923508Y-105172000D01*
X113745244Y-104838493D01*
X113480319Y-104515681D01*
X113157507Y-104250756D01*
X112789213Y-104053899D01*
X112389592Y-103932675D01*
X111974000Y-103891743D01*
X111558407Y-103932675D01*
X111158786Y-104053899D01*
X111040526Y-104117110D01*
X111032988Y-104110924D01*
X110812360Y-103992996D01*
X110572964Y-103920376D01*
X110324000Y-103895855D01*
X110045500Y-103902000D01*
X109728000Y-104219500D01*
X109728000Y-105918000D01*
X109748000Y-105918000D01*
X109748000Y-106426000D01*
X109728000Y-106426000D01*
X109728000Y-106446000D01*
X109220000Y-106446000D01*
X109220000Y-106426000D01*
X107671500Y-106426000D01*
X107354000Y-106743500D01*
X107347855Y-107172000D01*
X107372376Y-107420964D01*
X107444996Y-107660360D01*
X107562924Y-107880988D01*
X107721629Y-108074371D01*
X107915012Y-108233076D01*
X108135640Y-108351004D01*
X108375036Y-108423624D01*
X108470231Y-108433000D01*
X103533521Y-108433000D01*
X103753593Y-108411325D01*
X104153214Y-108290101D01*
X104521507Y-108093244D01*
X104844319Y-107828319D01*
X105109244Y-107505507D01*
X105306101Y-107137213D01*
X105427325Y-106737592D01*
X105458000Y-106426141D01*
X105458000Y-105917858D01*
X105427325Y-105606407D01*
X105306101Y-105206786D01*
X105287508Y-105172000D01*
X107347855Y-105172000D01*
X107354000Y-105600500D01*
X107671500Y-105918000D01*
X109220000Y-105918000D01*
X109220000Y-104219500D01*
X108902500Y-103902000D01*
X108624000Y-103895855D01*
X108375036Y-103920376D01*
X108135640Y-103992996D01*
X107915012Y-104110924D01*
X107721629Y-104269629D01*
X107562924Y-104463012D01*
X107444996Y-104683640D01*
X107372376Y-104923036D01*
X107347855Y-105172000D01*
X105287508Y-105172000D01*
X105109244Y-104838493D01*
X104844319Y-104515681D01*
X104521507Y-104250756D01*
X104153213Y-104053899D01*
X103753592Y-103932675D01*
X103338000Y-103891743D01*
X102922407Y-103932675D01*
X102522786Y-104053899D01*
X102404526Y-104117110D01*
X102396988Y-104110924D01*
X102176360Y-103992996D01*
X101936964Y-103920376D01*
X101688000Y-103895855D01*
X101409500Y-103902000D01*
X101092000Y-104219500D01*
X101092000Y-105918000D01*
X101112000Y-105918000D01*
X101112000Y-106426000D01*
X101092000Y-106426000D01*
X101092000Y-106446000D01*
X100584000Y-106446000D01*
X100584000Y-106426000D01*
X99035500Y-106426000D01*
X98718000Y-106743500D01*
X98711855Y-107172000D01*
X98736376Y-107420964D01*
X98808996Y-107660360D01*
X98926924Y-107880988D01*
X99085629Y-108074371D01*
X99279012Y-108233076D01*
X99499640Y-108351004D01*
X99739036Y-108423624D01*
X99834231Y-108433000D01*
X98069000Y-108433000D01*
X98069000Y-105172000D01*
X98711855Y-105172000D01*
X98718000Y-105600500D01*
X99035500Y-105918000D01*
X100584000Y-105918000D01*
X100584000Y-104219500D01*
X100266500Y-103902000D01*
X99988000Y-103895855D01*
X99739036Y-103920376D01*
X99499640Y-103992996D01*
X99279012Y-104110924D01*
X99085629Y-104269629D01*
X98926924Y-104463012D01*
X98808996Y-104683640D01*
X98736376Y-104923036D01*
X98711855Y-105172000D01*
X98069000Y-105172000D01*
X98069000Y-101950141D01*
X98244786Y-102044101D01*
X98644407Y-102165325D01*
X98955858Y-102196000D01*
X99164142Y-102196000D01*
X99475593Y-102165325D01*
X99875214Y-102044101D01*
X100243507Y-101847244D01*
X100452000Y-101676138D01*
X100660493Y-101847244D01*
X101028786Y-102044101D01*
X101428407Y-102165325D01*
X101739858Y-102196000D01*
X101948142Y-102196000D01*
X102259593Y-102165325D01*
X102659214Y-102044101D01*
X103027507Y-101847244D01*
X103350319Y-101582319D01*
X103610720Y-101265019D01*
X103656815Y-101321186D01*
X103710039Y-101364866D01*
X104883134Y-102537962D01*
X104926814Y-102591186D01*
X105139230Y-102765512D01*
X105381574Y-102895047D01*
X105644532Y-102974815D01*
X105849476Y-102995000D01*
X105849485Y-102995000D01*
X105917999Y-103001748D01*
X105986513Y-102995000D01*
X109063846Y-102995000D01*
X109190959Y-103079934D01*
X109494879Y-103205822D01*
X109817519Y-103270000D01*
X110146481Y-103270000D01*
X110469121Y-103205822D01*
X110773041Y-103079934D01*
X111046563Y-102897173D01*
X111279173Y-102664563D01*
X111461934Y-102391041D01*
X111587822Y-102087121D01*
X111605152Y-102000000D01*
X111670481Y-102000000D01*
X111993121Y-101935822D01*
X112297041Y-101809934D01*
X112570563Y-101627173D01*
X112803173Y-101394563D01*
X112985934Y-101121041D01*
X113111822Y-100817121D01*
X113176000Y-100494481D01*
X113176000Y-100387983D01*
X113578274Y-100468000D01*
X114005726Y-100468000D01*
X114424966Y-100384608D01*
X114725202Y-100260246D01*
X114943640Y-100377004D01*
X115170000Y-100445670D01*
X115170000Y-100494481D01*
X115234178Y-100817121D01*
X115360066Y-101121041D01*
X115542827Y-101394563D01*
X115775437Y-101627173D01*
X116048959Y-101809934D01*
X116352879Y-101935822D01*
X116675519Y-102000000D01*
X117004481Y-102000000D01*
X117130163Y-101975000D01*
X119597837Y-101975000D01*
X119723519Y-102000000D01*
X120052481Y-102000000D01*
X120375121Y-101935822D01*
X120679041Y-101809934D01*
X120952563Y-101627173D01*
X121185173Y-101394563D01*
X121367934Y-101121041D01*
X121493822Y-100817121D01*
X121558000Y-100494481D01*
X121558000Y-100165519D01*
X121540194Y-100076000D01*
X122573743Y-100076000D01*
X122614675Y-100491593D01*
X122735899Y-100891214D01*
X122932756Y-101259507D01*
X123197681Y-101582319D01*
X123520493Y-101847244D01*
X123888786Y-102044101D01*
X124288407Y-102165325D01*
X124599858Y-102196000D01*
X124808142Y-102196000D01*
X125119593Y-102165325D01*
X125519214Y-102044101D01*
X125887507Y-101847244D01*
X126077000Y-101691731D01*
X126266493Y-101847244D01*
X126634786Y-102044101D01*
X127034407Y-102165325D01*
X127345858Y-102196000D01*
X127554142Y-102196000D01*
X127865593Y-102165325D01*
X128265214Y-102044101D01*
X128633507Y-101847244D01*
X128873699Y-101650123D01*
X131026000Y-101650123D01*
X131026000Y-102057877D01*
X131105549Y-102457797D01*
X131261590Y-102834513D01*
X131488126Y-103173548D01*
X131776452Y-103461874D01*
X132115487Y-103688410D01*
X132492203Y-103844451D01*
X132892123Y-103924000D01*
X133299877Y-103924000D01*
X133699797Y-103844451D01*
X134076513Y-103688410D01*
X134415548Y-103461874D01*
X134703874Y-103173548D01*
X134930410Y-102834513D01*
X135086451Y-102457797D01*
X135166000Y-102057877D01*
X135166000Y-101650123D01*
X135852000Y-101650123D01*
X135852000Y-102057877D01*
X135931549Y-102457797D01*
X136087590Y-102834513D01*
X136314126Y-103173548D01*
X136602452Y-103461874D01*
X136941487Y-103688410D01*
X137318203Y-103844451D01*
X137718123Y-103924000D01*
X138125877Y-103924000D01*
X138525797Y-103844451D01*
X138902513Y-103688410D01*
X139241548Y-103461874D01*
X139529874Y-103173548D01*
X139756410Y-102834513D01*
X139912451Y-102457797D01*
X139992000Y-102057877D01*
X139992000Y-101650123D01*
X139912451Y-101250203D01*
X139756410Y-100873487D01*
X139529874Y-100534452D01*
X139317000Y-100321578D01*
X139317000Y-99253154D01*
X139401934Y-99126041D01*
X139527822Y-98822121D01*
X139592000Y-98499481D01*
X139592000Y-98170519D01*
X139527822Y-97847879D01*
X139401934Y-97543959D01*
X139219173Y-97270437D01*
X138986563Y-97037827D01*
X138713041Y-96855066D01*
X138409121Y-96729178D01*
X138086481Y-96665000D01*
X137757519Y-96665000D01*
X137434879Y-96729178D01*
X137130959Y-96855066D01*
X136857437Y-97037827D01*
X136624827Y-97270437D01*
X136442066Y-97543959D01*
X136316178Y-97847879D01*
X136252000Y-98170519D01*
X136252000Y-98499481D01*
X136316178Y-98822121D01*
X136442066Y-99126041D01*
X136527000Y-99253155D01*
X136527001Y-100321577D01*
X136314126Y-100534452D01*
X136087590Y-100873487D01*
X135931549Y-101250203D01*
X135852000Y-101650123D01*
X135166000Y-101650123D01*
X135086451Y-101250203D01*
X134930410Y-100873487D01*
X134703874Y-100534452D01*
X134491000Y-100321578D01*
X134491000Y-99978154D01*
X134575934Y-99851041D01*
X134701822Y-99547121D01*
X134766000Y-99224481D01*
X134766000Y-98895519D01*
X134701822Y-98572879D01*
X134575934Y-98268959D01*
X134393173Y-97995437D01*
X134160563Y-97762827D01*
X133887041Y-97580066D01*
X133583121Y-97454178D01*
X133260481Y-97390000D01*
X132931519Y-97390000D01*
X132608879Y-97454178D01*
X132304959Y-97580066D01*
X132031437Y-97762827D01*
X131798827Y-97995437D01*
X131616066Y-98268959D01*
X131490178Y-98572879D01*
X131426000Y-98895519D01*
X131426000Y-99224481D01*
X131490178Y-99547121D01*
X131616066Y-99851041D01*
X131701000Y-99978155D01*
X131701000Y-100321578D01*
X131488126Y-100534452D01*
X131261590Y-100873487D01*
X131105549Y-101250203D01*
X131026000Y-101650123D01*
X128873699Y-101650123D01*
X128956319Y-101582319D01*
X129221244Y-101259507D01*
X129418101Y-100891214D01*
X129539325Y-100491593D01*
X129580257Y-100076000D01*
X129539325Y-99660407D01*
X129418101Y-99260786D01*
X129221244Y-98892493D01*
X129142938Y-98797077D01*
X129302065Y-98567643D01*
X129467742Y-98186500D01*
X129489082Y-98116125D01*
X129234514Y-97790000D01*
X127704000Y-97790000D01*
X127704000Y-97810000D01*
X127196000Y-97810000D01*
X127196000Y-97790000D01*
X124958000Y-97790000D01*
X124958000Y-97810000D01*
X124450000Y-97810000D01*
X124450000Y-97790000D01*
X122919486Y-97790000D01*
X122664918Y-98116125D01*
X122686258Y-98186500D01*
X122851935Y-98567643D01*
X123011062Y-98797077D01*
X122932756Y-98892493D01*
X122735899Y-99260786D01*
X122614675Y-99660407D01*
X122573743Y-100076000D01*
X121540194Y-100076000D01*
X121493822Y-99842879D01*
X121367934Y-99538959D01*
X121185173Y-99265437D01*
X120952563Y-99032827D01*
X120679041Y-98850066D01*
X120375121Y-98724178D01*
X120052481Y-98660000D01*
X119994710Y-98660000D01*
X120034000Y-98462481D01*
X120034000Y-98133519D01*
X119969822Y-97810879D01*
X119843934Y-97506959D01*
X119759000Y-97379846D01*
X119759000Y-95914154D01*
X119818945Y-95824439D01*
X120037858Y-95846000D01*
X120246142Y-95846000D01*
X120557593Y-95815325D01*
X120957214Y-95694101D01*
X121325507Y-95497244D01*
X121569530Y-95296979D01*
X121640953Y-95532426D01*
X121770488Y-95774770D01*
X121944814Y-95987186D01*
X122157230Y-96161512D01*
X122399574Y-96291047D01*
X122662532Y-96370815D01*
X122867476Y-96391000D01*
X122926522Y-96396815D01*
X122851935Y-96504357D01*
X122686258Y-96885500D01*
X122664918Y-96955875D01*
X122919486Y-97282000D01*
X124450000Y-97282000D01*
X124450000Y-97262000D01*
X124958000Y-97262000D01*
X124958000Y-97282000D01*
X127196000Y-97282000D01*
X127196000Y-97262000D01*
X127704000Y-97262000D01*
X127704000Y-97282000D01*
X129234514Y-97282000D01*
X129489082Y-96955875D01*
X129467742Y-96885500D01*
X129302065Y-96504357D01*
X129142938Y-96274923D01*
X129145499Y-96271802D01*
X140990000Y-96271802D01*
X140990000Y-96768198D01*
X141086842Y-97255057D01*
X141276805Y-97713668D01*
X141552588Y-98126406D01*
X141903594Y-98477412D01*
X142316332Y-98753195D01*
X142774943Y-98943158D01*
X143261802Y-99040000D01*
X143758198Y-99040000D01*
X144245057Y-98943158D01*
X144703668Y-98753195D01*
X145116406Y-98477412D01*
X145467412Y-98126406D01*
X145743195Y-97713668D01*
X145933158Y-97255057D01*
X146030000Y-96768198D01*
X146030000Y-96271802D01*
X145933158Y-95784943D01*
X145743195Y-95326332D01*
X145467412Y-94913594D01*
X145116406Y-94562588D01*
X144703668Y-94286805D01*
X144245057Y-94096842D01*
X143758198Y-94000000D01*
X143261802Y-94000000D01*
X142774943Y-94096842D01*
X142316332Y-94286805D01*
X141903594Y-94562588D01*
X141552588Y-94913594D01*
X141276805Y-95326332D01*
X141086842Y-95784943D01*
X140990000Y-96271802D01*
X129145499Y-96271802D01*
X129221244Y-96179507D01*
X129418101Y-95811214D01*
X129539325Y-95411593D01*
X129580257Y-94996000D01*
X129539325Y-94580407D01*
X129418101Y-94180786D01*
X129221244Y-93812493D01*
X129150261Y-93726000D01*
X129221244Y-93639507D01*
X129418101Y-93271214D01*
X129539325Y-92871593D01*
X129580257Y-92456000D01*
X129539325Y-92040407D01*
X129434244Y-91694000D01*
X131015985Y-91694000D01*
X131055952Y-92099791D01*
X131174317Y-92489987D01*
X131366531Y-92849594D01*
X131625207Y-93164793D01*
X131940406Y-93423469D01*
X132300013Y-93615683D01*
X132690209Y-93734048D01*
X132994316Y-93764000D01*
X133197684Y-93764000D01*
X133501791Y-93734048D01*
X133891987Y-93615683D01*
X134251594Y-93423469D01*
X134566793Y-93164793D01*
X134825469Y-92849594D01*
X135017683Y-92489987D01*
X135136048Y-92099791D01*
X135176015Y-91694000D01*
X135841985Y-91694000D01*
X135881952Y-92099791D01*
X136000317Y-92489987D01*
X136192531Y-92849594D01*
X136451207Y-93164793D01*
X136766406Y-93423469D01*
X137126013Y-93615683D01*
X137516209Y-93734048D01*
X137820316Y-93764000D01*
X138023684Y-93764000D01*
X138327791Y-93734048D01*
X138717987Y-93615683D01*
X139077594Y-93423469D01*
X139392793Y-93164793D01*
X139651469Y-92849594D01*
X139843683Y-92489987D01*
X139962048Y-92099791D01*
X140002015Y-91694000D01*
X139962048Y-91288209D01*
X139843683Y-90898013D01*
X139651469Y-90538406D01*
X139452933Y-90296489D01*
X139529874Y-90219548D01*
X139756410Y-89880513D01*
X139912451Y-89503797D01*
X139992000Y-89103877D01*
X139992000Y-88696123D01*
X139912451Y-88296203D01*
X139756410Y-87919487D01*
X139529874Y-87580452D01*
X139241548Y-87292126D01*
X138902513Y-87065590D01*
X138525797Y-86909549D01*
X138125877Y-86830000D01*
X137718123Y-86830000D01*
X137318203Y-86909549D01*
X136941487Y-87065590D01*
X136602452Y-87292126D01*
X136314126Y-87580452D01*
X136087590Y-87919487D01*
X135931549Y-88296203D01*
X135852000Y-88696123D01*
X135852000Y-89103877D01*
X135931549Y-89503797D01*
X136087590Y-89880513D01*
X136314126Y-90219548D01*
X136391067Y-90296489D01*
X136192531Y-90538406D01*
X136000317Y-90898013D01*
X135881952Y-91288209D01*
X135841985Y-91694000D01*
X135176015Y-91694000D01*
X135136048Y-91288209D01*
X135017683Y-90898013D01*
X134825469Y-90538406D01*
X134566793Y-90223207D01*
X134551331Y-90210518D01*
X134571531Y-90190318D01*
X134334886Y-89953673D01*
X134741472Y-89907962D01*
X134903156Y-89533633D01*
X134988704Y-89134954D01*
X134994830Y-88727245D01*
X134921298Y-88326176D01*
X134770934Y-87947158D01*
X134741472Y-87892038D01*
X134334883Y-87846327D01*
X133281210Y-88900000D01*
X133295353Y-88914143D01*
X132936143Y-89273353D01*
X132922000Y-89259210D01*
X132456303Y-89724907D01*
X132300013Y-89772317D01*
X131940406Y-89964531D01*
X131625207Y-90223207D01*
X131366531Y-90538406D01*
X131174317Y-90898013D01*
X131055952Y-91288209D01*
X131015985Y-91694000D01*
X129434244Y-91694000D01*
X129418101Y-91640786D01*
X129221244Y-91272493D01*
X129150261Y-91186000D01*
X129221244Y-91099507D01*
X129418101Y-90731214D01*
X129539325Y-90331593D01*
X129580257Y-89916000D01*
X129539325Y-89500407D01*
X129418101Y-89100786D01*
X129403119Y-89072755D01*
X130849170Y-89072755D01*
X130922702Y-89473824D01*
X131073066Y-89852842D01*
X131102528Y-89907962D01*
X131509117Y-89953673D01*
X132562790Y-88900000D01*
X131509117Y-87846327D01*
X131102528Y-87892038D01*
X130940844Y-88266367D01*
X130855296Y-88665046D01*
X130849170Y-89072755D01*
X129403119Y-89072755D01*
X129221244Y-88732493D01*
X129142938Y-88637077D01*
X129302065Y-88407643D01*
X129467742Y-88026500D01*
X129489082Y-87956125D01*
X129234514Y-87630000D01*
X127704000Y-87630000D01*
X127704000Y-87650000D01*
X127196000Y-87650000D01*
X127196000Y-87630000D01*
X124958000Y-87630000D01*
X124958000Y-87650000D01*
X124450000Y-87650000D01*
X124450000Y-87630000D01*
X124430000Y-87630000D01*
X124430000Y-87122000D01*
X124450000Y-87122000D01*
X124450000Y-87102000D01*
X124958000Y-87102000D01*
X124958000Y-87122000D01*
X127196000Y-87122000D01*
X127196000Y-87102000D01*
X127704000Y-87102000D01*
X127704000Y-87122000D01*
X129234514Y-87122000D01*
X129489082Y-86795875D01*
X129467742Y-86725500D01*
X129302065Y-86344357D01*
X129142938Y-86114923D01*
X129221244Y-86019507D01*
X129418101Y-85651214D01*
X129539325Y-85251593D01*
X129574623Y-84893200D01*
X131373856Y-84893200D01*
X131373856Y-85794800D01*
X131403165Y-86092380D01*
X131489966Y-86378524D01*
X131630923Y-86642236D01*
X131820619Y-86873381D01*
X132014979Y-87032888D01*
X131969158Y-87051066D01*
X131914038Y-87080528D01*
X131868327Y-87487117D01*
X132922000Y-88540790D01*
X133975673Y-87487117D01*
X133955191Y-87304938D01*
X134098380Y-87290835D01*
X134384524Y-87204034D01*
X134648236Y-87063077D01*
X134777773Y-86956769D01*
X134976855Y-87089791D01*
X135335372Y-87238294D01*
X135715972Y-87314000D01*
X136104028Y-87314000D01*
X136484628Y-87238294D01*
X136843145Y-87089791D01*
X137165802Y-86874199D01*
X137440199Y-86599802D01*
X137655791Y-86277145D01*
X137804294Y-85918628D01*
X137880000Y-85538028D01*
X137880000Y-85149972D01*
X137804294Y-84769372D01*
X137655791Y-84410855D01*
X137440199Y-84088198D01*
X137165802Y-83813801D01*
X136843145Y-83598209D01*
X136484628Y-83449706D01*
X136104028Y-83374000D01*
X135715972Y-83374000D01*
X135335372Y-83449706D01*
X134976855Y-83598209D01*
X134777773Y-83731231D01*
X134648236Y-83624923D01*
X134384524Y-83483966D01*
X134098380Y-83397165D01*
X133800800Y-83367856D01*
X132899200Y-83367856D01*
X132601620Y-83397165D01*
X132315476Y-83483966D01*
X132051764Y-83624923D01*
X131820619Y-83814619D01*
X131630923Y-84045764D01*
X131489966Y-84309476D01*
X131403165Y-84595620D01*
X131373856Y-84893200D01*
X129574623Y-84893200D01*
X129580257Y-84836000D01*
X129539325Y-84420407D01*
X129418101Y-84020786D01*
X129221244Y-83652493D01*
X129150261Y-83566000D01*
X129221244Y-83479507D01*
X129418101Y-83111214D01*
X129539325Y-82711593D01*
X129580257Y-82296000D01*
X129539325Y-81880407D01*
X129418101Y-81480786D01*
X129221244Y-81112493D01*
X129150261Y-81026000D01*
X129221244Y-80939507D01*
X129418101Y-80571214D01*
X129496088Y-80314123D01*
X131280000Y-80314123D01*
X131280000Y-80721877D01*
X131359549Y-81121797D01*
X131515590Y-81498513D01*
X131742126Y-81837548D01*
X132030452Y-82125874D01*
X132369487Y-82352410D01*
X132746203Y-82508451D01*
X133146123Y-82588000D01*
X133553877Y-82588000D01*
X133953797Y-82508451D01*
X134330513Y-82352410D01*
X134669548Y-82125874D01*
X134957874Y-81837548D01*
X135184410Y-81498513D01*
X135340451Y-81121797D01*
X135420000Y-80721877D01*
X135420000Y-80314123D01*
X135852000Y-80314123D01*
X135852000Y-80721877D01*
X135931549Y-81121797D01*
X136087590Y-81498513D01*
X136314126Y-81837548D01*
X136602452Y-82125874D01*
X136941487Y-82352410D01*
X137318203Y-82508451D01*
X137718123Y-82588000D01*
X138125877Y-82588000D01*
X138525797Y-82508451D01*
X138902513Y-82352410D01*
X139241548Y-82125874D01*
X139529874Y-81837548D01*
X139756410Y-81498513D01*
X139912451Y-81121797D01*
X139992000Y-80721877D01*
X139992000Y-80314123D01*
X139912451Y-79914203D01*
X139756410Y-79537487D01*
X139529874Y-79198452D01*
X139241548Y-78910126D01*
X138902513Y-78683590D01*
X138525797Y-78527549D01*
X138125877Y-78448000D01*
X137718123Y-78448000D01*
X137318203Y-78527549D01*
X136941487Y-78683590D01*
X136602452Y-78910126D01*
X136314126Y-79198452D01*
X136087590Y-79537487D01*
X135931549Y-79914203D01*
X135852000Y-80314123D01*
X135420000Y-80314123D01*
X135340451Y-79914203D01*
X135184410Y-79537487D01*
X134957874Y-79198452D01*
X134669548Y-78910126D01*
X134330513Y-78683590D01*
X133953797Y-78527549D01*
X133553877Y-78448000D01*
X133146123Y-78448000D01*
X132746203Y-78527549D01*
X132369487Y-78683590D01*
X132030452Y-78910126D01*
X131742126Y-79198452D01*
X131515590Y-79537487D01*
X131359549Y-79914203D01*
X131280000Y-80314123D01*
X129496088Y-80314123D01*
X129539325Y-80171593D01*
X129580257Y-79756000D01*
X129539325Y-79340407D01*
X129418101Y-78940786D01*
X129221244Y-78572493D01*
X129150261Y-78486000D01*
X129221244Y-78399507D01*
X129418101Y-78031214D01*
X129539325Y-77631593D01*
X129580257Y-77216000D01*
X129539325Y-76800407D01*
X129418101Y-76400786D01*
X129221244Y-76032493D01*
X129150261Y-75946000D01*
X129221244Y-75859507D01*
X129418101Y-75491214D01*
X129539325Y-75091593D01*
X129580257Y-74676000D01*
X129539325Y-74260407D01*
X129418101Y-73860786D01*
X129221244Y-73492493D01*
X129150261Y-73406000D01*
X129221244Y-73319507D01*
X129418101Y-72951214D01*
X129539325Y-72551593D01*
X129580257Y-72136000D01*
X129539325Y-71720407D01*
X129418101Y-71320786D01*
X129221244Y-70952493D01*
X129150261Y-70866000D01*
X129221244Y-70779507D01*
X129418101Y-70411214D01*
X129539325Y-70011593D01*
X129580257Y-69596000D01*
X129539325Y-69180407D01*
X129418101Y-68780786D01*
X129221244Y-68412493D01*
X129150261Y-68326000D01*
X129221244Y-68239507D01*
X129418101Y-67871214D01*
X129539325Y-67471593D01*
X129580257Y-67056000D01*
X129539325Y-66640407D01*
X129418101Y-66240786D01*
X129341942Y-66098302D01*
X129361075Y-66074988D01*
X129479003Y-65854359D01*
X129551623Y-65614963D01*
X129576144Y-65366000D01*
X129576144Y-63666000D01*
X129551623Y-63417037D01*
X129479003Y-63177641D01*
X129361075Y-62957012D01*
X129280638Y-62859000D01*
X131340629Y-62859000D01*
X131267152Y-62996466D01*
X131154505Y-63367813D01*
X131116469Y-63754000D01*
X131154505Y-64140187D01*
X131267152Y-64511534D01*
X131450080Y-64853768D01*
X131696260Y-65153740D01*
X131929976Y-65345545D01*
X131776452Y-65448126D01*
X131488126Y-65736452D01*
X131261590Y-66075487D01*
X131105549Y-66452203D01*
X131026000Y-66852123D01*
X131026000Y-67259877D01*
X131105549Y-67659797D01*
X131261590Y-68036513D01*
X131488126Y-68375548D01*
X131776452Y-68663874D01*
X131983095Y-68801949D01*
X131879207Y-68887207D01*
X131620531Y-69202406D01*
X131428317Y-69562013D01*
X131309952Y-69952209D01*
X131269985Y-70358000D01*
X131309952Y-70763791D01*
X131428317Y-71153987D01*
X131620531Y-71513594D01*
X131879207Y-71828793D01*
X132194406Y-72087469D01*
X132554013Y-72279683D01*
X132944209Y-72398048D01*
X133248316Y-72428000D01*
X133451684Y-72428000D01*
X133755791Y-72398048D01*
X134145987Y-72279683D01*
X134505594Y-72087469D01*
X134820793Y-71828793D01*
X135079469Y-71513594D01*
X135271683Y-71153987D01*
X135390048Y-70763791D01*
X135430015Y-70358000D01*
X135841985Y-70358000D01*
X135881952Y-70763791D01*
X136000317Y-71153987D01*
X136192531Y-71513594D01*
X136451207Y-71828793D01*
X136766406Y-72087469D01*
X137126013Y-72279683D01*
X137516209Y-72398048D01*
X137820316Y-72428000D01*
X138023684Y-72428000D01*
X138327791Y-72398048D01*
X138717987Y-72279683D01*
X139077594Y-72087469D01*
X139392793Y-71828793D01*
X139651469Y-71513594D01*
X139843683Y-71153987D01*
X139962048Y-70763791D01*
X140002015Y-70358000D01*
X139962048Y-69952209D01*
X139843683Y-69562013D01*
X139651469Y-69202406D01*
X139392793Y-68887207D01*
X139127152Y-68669202D01*
X139149673Y-68468883D01*
X138096000Y-67415210D01*
X137042327Y-68468883D01*
X137043617Y-68480359D01*
X136766406Y-68628531D01*
X136451207Y-68887207D01*
X136192531Y-69202406D01*
X136000317Y-69562013D01*
X135881952Y-69952209D01*
X135841985Y-70358000D01*
X135430015Y-70358000D01*
X135390048Y-69952209D01*
X135271683Y-69562013D01*
X135079469Y-69202406D01*
X134820793Y-68887207D01*
X134505594Y-68628531D01*
X134469946Y-68609476D01*
X134703874Y-68375548D01*
X134930410Y-68036513D01*
X135086451Y-67659797D01*
X135166000Y-67259877D01*
X135166000Y-67228755D01*
X136023170Y-67228755D01*
X136096702Y-67629824D01*
X136247066Y-68008842D01*
X136276528Y-68063962D01*
X136683117Y-68109673D01*
X137736790Y-67056000D01*
X138455210Y-67056000D01*
X139508883Y-68109673D01*
X139915472Y-68063962D01*
X140077156Y-67689633D01*
X140162704Y-67290954D01*
X140168830Y-66883245D01*
X140153935Y-66802000D01*
X141379743Y-66802000D01*
X141420675Y-67217593D01*
X141541899Y-67617214D01*
X141738756Y-67985507D01*
X141809739Y-68072000D01*
X141738756Y-68158493D01*
X141541899Y-68526786D01*
X141420675Y-68926407D01*
X141379743Y-69342000D01*
X141420675Y-69757593D01*
X141541899Y-70157214D01*
X141738756Y-70525507D01*
X141809739Y-70612000D01*
X141738756Y-70698493D01*
X141541899Y-71066786D01*
X141420675Y-71466407D01*
X141379743Y-71882000D01*
X141420675Y-72297593D01*
X141541899Y-72697214D01*
X141738756Y-73065507D01*
X141809739Y-73152000D01*
X141738756Y-73238493D01*
X141541899Y-73606786D01*
X141420675Y-74006407D01*
X141379743Y-74422000D01*
X141420675Y-74837593D01*
X141541899Y-75237214D01*
X141738756Y-75605507D01*
X141809739Y-75692000D01*
X141738756Y-75778493D01*
X141541899Y-76146786D01*
X141420675Y-76546407D01*
X141379743Y-76962000D01*
X141420675Y-77377593D01*
X141541899Y-77777214D01*
X141738756Y-78145507D01*
X141809739Y-78232000D01*
X141738756Y-78318493D01*
X141541899Y-78686786D01*
X141420675Y-79086407D01*
X141379743Y-79502000D01*
X141420675Y-79917593D01*
X141541899Y-80317214D01*
X141738756Y-80685507D01*
X141809739Y-80772000D01*
X141738756Y-80858493D01*
X141541899Y-81226786D01*
X141420675Y-81626407D01*
X141379743Y-82042000D01*
X141420675Y-82457593D01*
X141541899Y-82857214D01*
X141738756Y-83225507D01*
X141809739Y-83312000D01*
X141738756Y-83398493D01*
X141541899Y-83766786D01*
X141420675Y-84166407D01*
X141379743Y-84582000D01*
X141420675Y-84997593D01*
X141541899Y-85397214D01*
X141738756Y-85765507D01*
X141809739Y-85852000D01*
X141738756Y-85938493D01*
X141541899Y-86306786D01*
X141420675Y-86706407D01*
X141379743Y-87122000D01*
X141420675Y-87537593D01*
X141541899Y-87937214D01*
X141738756Y-88305507D01*
X141809739Y-88392000D01*
X141738756Y-88478493D01*
X141541899Y-88846786D01*
X141420675Y-89246407D01*
X141379743Y-89662000D01*
X141420675Y-90077593D01*
X141541899Y-90477214D01*
X141738756Y-90845507D01*
X142003681Y-91168319D01*
X142326493Y-91433244D01*
X142694786Y-91630101D01*
X143094407Y-91751325D01*
X143405858Y-91782000D01*
X143614142Y-91782000D01*
X143925593Y-91751325D01*
X144325214Y-91630101D01*
X144693507Y-91433244D01*
X145016319Y-91168319D01*
X145281244Y-90845507D01*
X145478101Y-90477214D01*
X145599325Y-90077593D01*
X145640257Y-89662000D01*
X145599325Y-89246407D01*
X145478101Y-88846786D01*
X145281244Y-88478493D01*
X145210261Y-88392000D01*
X145281244Y-88305507D01*
X145478101Y-87937214D01*
X145599325Y-87537593D01*
X145640257Y-87122000D01*
X145599325Y-86706407D01*
X145478101Y-86306786D01*
X145281244Y-85938493D01*
X145210261Y-85852000D01*
X145281244Y-85765507D01*
X145478101Y-85397214D01*
X145599325Y-84997593D01*
X145640257Y-84582000D01*
X145599325Y-84166407D01*
X145478101Y-83766786D01*
X145281244Y-83398493D01*
X145210261Y-83312000D01*
X145281244Y-83225507D01*
X145478101Y-82857214D01*
X145599325Y-82457593D01*
X145640257Y-82042000D01*
X145599325Y-81626407D01*
X145478101Y-81226786D01*
X145281244Y-80858493D01*
X145210261Y-80772000D01*
X145281244Y-80685507D01*
X145478101Y-80317214D01*
X145599325Y-79917593D01*
X145640257Y-79502000D01*
X145599325Y-79086407D01*
X145478101Y-78686786D01*
X145281244Y-78318493D01*
X145210261Y-78232000D01*
X145281244Y-78145507D01*
X145478101Y-77777214D01*
X145599325Y-77377593D01*
X145640257Y-76962000D01*
X145599325Y-76546407D01*
X145478101Y-76146786D01*
X145281244Y-75778493D01*
X145210261Y-75692000D01*
X145281244Y-75605507D01*
X145478101Y-75237214D01*
X145599325Y-74837593D01*
X145640257Y-74422000D01*
X145599325Y-74006407D01*
X145478101Y-73606786D01*
X145281244Y-73238493D01*
X145210261Y-73152000D01*
X145281244Y-73065507D01*
X145478101Y-72697214D01*
X145599325Y-72297593D01*
X145640257Y-71882000D01*
X145599325Y-71466407D01*
X145478101Y-71066786D01*
X145281244Y-70698493D01*
X145210261Y-70612000D01*
X145281244Y-70525507D01*
X145478101Y-70157214D01*
X145599325Y-69757593D01*
X145640257Y-69342000D01*
X145599325Y-68926407D01*
X145478101Y-68526786D01*
X145281244Y-68158493D01*
X145210261Y-68072000D01*
X145281244Y-67985507D01*
X145478101Y-67617214D01*
X145599325Y-67217593D01*
X145640257Y-66802000D01*
X145599325Y-66386407D01*
X145478101Y-65986786D01*
X145401942Y-65844302D01*
X145421075Y-65820988D01*
X145539003Y-65600359D01*
X145611623Y-65360963D01*
X145636144Y-65112000D01*
X145636144Y-63412000D01*
X145611623Y-63163037D01*
X145539003Y-62923641D01*
X145421075Y-62703012D01*
X145262370Y-62509630D01*
X145068988Y-62350925D01*
X144848359Y-62232997D01*
X144608963Y-62160377D01*
X144360000Y-62135856D01*
X142660000Y-62135856D01*
X142411037Y-62160377D01*
X142171641Y-62232997D01*
X141951012Y-62350925D01*
X141757630Y-62509630D01*
X141598925Y-62703012D01*
X141480997Y-62923641D01*
X141408377Y-63163037D01*
X141383856Y-63412000D01*
X141383856Y-65112000D01*
X141408377Y-65360963D01*
X141480997Y-65600359D01*
X141598925Y-65820988D01*
X141618058Y-65844302D01*
X141541899Y-65986786D01*
X141420675Y-66386407D01*
X141379743Y-66802000D01*
X140153935Y-66802000D01*
X140095298Y-66482176D01*
X139944934Y-66103158D01*
X139915472Y-66048038D01*
X139508883Y-66002327D01*
X138455210Y-67056000D01*
X137736790Y-67056000D01*
X136683117Y-66002327D01*
X136276528Y-66048038D01*
X136114844Y-66422367D01*
X136029296Y-66821046D01*
X136023170Y-67228755D01*
X135166000Y-67228755D01*
X135166000Y-66852123D01*
X135086451Y-66452203D01*
X134930410Y-66075487D01*
X134703874Y-65736452D01*
X134415548Y-65448126D01*
X134262024Y-65345545D01*
X134495740Y-65153740D01*
X134741920Y-64853768D01*
X134924848Y-64511534D01*
X135037495Y-64140187D01*
X135075531Y-63754000D01*
X135037495Y-63367813D01*
X134924848Y-62996466D01*
X134817696Y-62795999D01*
X134998560Y-62741135D01*
X135284335Y-62588385D01*
X135534819Y-62382819D01*
X135586336Y-62320045D01*
X135599551Y-62306830D01*
X135797593Y-62287325D01*
X136197214Y-62166101D01*
X136565507Y-61969244D01*
X136888319Y-61704319D01*
X137033000Y-61528025D01*
X137177681Y-61704319D01*
X137445628Y-61924217D01*
X137242855Y-62008209D01*
X136920198Y-62223801D01*
X136645801Y-62498198D01*
X136430209Y-62820855D01*
X136281706Y-63179372D01*
X136206000Y-63559972D01*
X136206000Y-63948028D01*
X136281706Y-64328628D01*
X136430209Y-64687145D01*
X136645801Y-65009802D01*
X136920198Y-65284199D01*
X137071326Y-65385179D01*
X137042327Y-65643117D01*
X138096000Y-66696790D01*
X139149673Y-65643117D01*
X139131854Y-65484618D01*
X139431802Y-65284199D01*
X139706199Y-65009802D01*
X139921791Y-64687145D01*
X140070294Y-64328628D01*
X140146000Y-63948028D01*
X140146000Y-63559972D01*
X140070294Y-63179372D01*
X139921791Y-62820855D01*
X139706199Y-62498198D01*
X139431802Y-62223801D01*
X139393459Y-62198181D01*
X139499214Y-62166101D01*
X139867507Y-61969244D01*
X140190319Y-61704319D01*
X140455244Y-61381507D01*
X140652101Y-61013214D01*
X140773325Y-60613593D01*
X140814257Y-60198000D01*
X140773325Y-59782407D01*
X140652101Y-59382786D01*
X140547880Y-59187802D01*
X142260000Y-59187802D01*
X142260000Y-59684198D01*
X142356842Y-60171057D01*
X142546805Y-60629668D01*
X142822588Y-61042406D01*
X143173594Y-61393412D01*
X143586332Y-61669195D01*
X144044943Y-61859158D01*
X144531802Y-61956000D01*
X145028198Y-61956000D01*
X145515057Y-61859158D01*
X145973668Y-61669195D01*
X146386406Y-61393412D01*
X146737412Y-61042406D01*
X147013195Y-60629668D01*
X147203158Y-60171057D01*
X147300000Y-59684198D01*
X147300000Y-59187802D01*
X147203158Y-58700943D01*
X147013195Y-58242332D01*
X146737412Y-57829594D01*
X146386406Y-57478588D01*
X145973668Y-57202805D01*
X145515057Y-57012842D01*
X145028198Y-56916000D01*
X144531802Y-56916000D01*
X144044943Y-57012842D01*
X143586332Y-57202805D01*
X143173594Y-57478588D01*
X142822588Y-57829594D01*
X142546805Y-58242332D01*
X142356842Y-58700943D01*
X142260000Y-59187802D01*
X140547880Y-59187802D01*
X140455244Y-59014493D01*
X140376938Y-58919077D01*
X140536065Y-58689643D01*
X140701742Y-58308500D01*
X140723082Y-58238125D01*
X140468514Y-57912000D01*
X138938000Y-57912000D01*
X138938000Y-57932000D01*
X138430000Y-57932000D01*
X138430000Y-57912000D01*
X135636000Y-57912000D01*
X135636000Y-57932000D01*
X135128000Y-57932000D01*
X135128000Y-57912000D01*
X133597486Y-57912000D01*
X133342918Y-58238125D01*
X133364258Y-58308500D01*
X133529935Y-58689643D01*
X133689062Y-58919077D01*
X133610756Y-59014493D01*
X133413899Y-59382786D01*
X133357411Y-59569000D01*
X123524807Y-59569000D01*
X123444000Y-59561041D01*
X123363193Y-59569000D01*
X123363191Y-59569000D01*
X123121524Y-59592802D01*
X122811440Y-59686865D01*
X122678414Y-59757969D01*
X122525664Y-59839615D01*
X122439147Y-59910618D01*
X122275181Y-60045181D01*
X122223664Y-60107955D01*
X121746619Y-60585000D01*
X110384725Y-60585000D01*
X110303918Y-60577041D01*
X110223111Y-60585000D01*
X110223110Y-60585000D01*
X109981443Y-60608802D01*
X109671359Y-60702865D01*
X109385584Y-60855615D01*
X109135100Y-61061181D01*
X109083587Y-61123950D01*
X107859950Y-62347588D01*
X107797182Y-62399100D01*
X107745669Y-62461869D01*
X107591615Y-62649584D01*
X107530657Y-62763630D01*
X107450428Y-62913726D01*
X107241214Y-62801899D01*
X106841593Y-62680675D01*
X106530142Y-62650000D01*
X106321858Y-62650000D01*
X106010407Y-62680675D01*
X105610786Y-62801899D01*
X105242493Y-62998756D01*
X104919681Y-63263681D01*
X104654756Y-63586493D01*
X104457899Y-63954786D01*
X104336675Y-64354407D01*
X104295743Y-64770000D01*
X104336675Y-65185593D01*
X104457899Y-65585214D01*
X104634174Y-65915000D01*
X103954517Y-65915000D01*
X103886000Y-65908252D01*
X103841874Y-65912598D01*
X103873003Y-65854359D01*
X103945623Y-65614963D01*
X103970144Y-65366000D01*
X103970144Y-63666000D01*
X103945623Y-63417037D01*
X103873003Y-63177641D01*
X103755075Y-62957012D01*
X103596370Y-62763630D01*
X103402988Y-62604925D01*
X103182359Y-62486997D01*
X102942963Y-62414377D01*
X102694000Y-62389856D01*
X100994000Y-62389856D01*
X100745037Y-62414377D01*
X100505641Y-62486997D01*
X100452000Y-62515669D01*
X100398359Y-62486997D01*
X100158963Y-62414377D01*
X99910000Y-62389856D01*
X98210000Y-62389856D01*
X98069000Y-62403743D01*
X98069000Y-58240268D01*
X103150989Y-58240268D01*
X103288462Y-58632171D01*
X103515312Y-58987078D01*
X103807042Y-59290909D01*
X104152441Y-59531988D01*
X104538236Y-59701051D01*
X104949600Y-59791600D01*
X105610000Y-59791600D01*
X105610000Y-57912000D01*
X106118000Y-57912000D01*
X106118000Y-59791600D01*
X106778400Y-59791600D01*
X107189764Y-59701051D01*
X107575559Y-59531988D01*
X107920958Y-59290909D01*
X108212688Y-58987078D01*
X108439538Y-58632171D01*
X108577011Y-58240268D01*
X115650989Y-58240268D01*
X115788462Y-58632171D01*
X116015312Y-58987078D01*
X116307042Y-59290909D01*
X116652441Y-59531988D01*
X117038236Y-59701051D01*
X117449600Y-59791600D01*
X118110000Y-59791600D01*
X118110000Y-57912000D01*
X118618000Y-57912000D01*
X118618000Y-59791600D01*
X119278400Y-59791600D01*
X119689764Y-59701051D01*
X120075559Y-59531988D01*
X120420958Y-59290909D01*
X120712688Y-58987078D01*
X120939538Y-58632171D01*
X121077011Y-58240268D01*
X120822650Y-57912000D01*
X118618000Y-57912000D01*
X118110000Y-57912000D01*
X115905350Y-57912000D01*
X115650989Y-58240268D01*
X108577011Y-58240268D01*
X108322650Y-57912000D01*
X106118000Y-57912000D01*
X105610000Y-57912000D01*
X103405350Y-57912000D01*
X103150989Y-58240268D01*
X98069000Y-58240268D01*
X98069000Y-55391335D01*
X98160842Y-55853057D01*
X98350805Y-56311668D01*
X98626588Y-56724406D01*
X98977594Y-57075412D01*
X99390332Y-57351195D01*
X99848943Y-57541158D01*
X100335802Y-57638000D01*
X100832198Y-57638000D01*
X101319057Y-57541158D01*
X101777668Y-57351195D01*
X102189927Y-57075732D01*
X103150989Y-57075732D01*
X103405350Y-57404000D01*
X105610000Y-57404000D01*
X105610000Y-55524400D01*
X106118000Y-55524400D01*
X106118000Y-57404000D01*
X108322650Y-57404000D01*
X108577011Y-57075732D01*
X115650989Y-57075732D01*
X115905350Y-57404000D01*
X118110000Y-57404000D01*
X118110000Y-55524400D01*
X118618000Y-55524400D01*
X118618000Y-57404000D01*
X120822650Y-57404000D01*
X121077011Y-57075732D01*
X120939538Y-56683829D01*
X120712688Y-56328922D01*
X120420958Y-56025091D01*
X120075559Y-55784012D01*
X119689764Y-55614949D01*
X119278400Y-55524400D01*
X118618000Y-55524400D01*
X118110000Y-55524400D01*
X117449600Y-55524400D01*
X117038236Y-55614949D01*
X116652441Y-55784012D01*
X116307042Y-56025091D01*
X116015312Y-56328922D01*
X115788462Y-56683829D01*
X115650989Y-57075732D01*
X108577011Y-57075732D01*
X108439538Y-56683829D01*
X108212688Y-56328922D01*
X107920958Y-56025091D01*
X107575559Y-55784012D01*
X107189764Y-55614949D01*
X106778400Y-55524400D01*
X106118000Y-55524400D01*
X105610000Y-55524400D01*
X104949600Y-55524400D01*
X104538236Y-55614949D01*
X104152441Y-55784012D01*
X103807042Y-56025091D01*
X103515312Y-56328922D01*
X103288462Y-56683829D01*
X103150989Y-57075732D01*
X102189927Y-57075732D01*
X102190406Y-57075412D01*
X102541412Y-56724406D01*
X102817195Y-56311668D01*
X103007158Y-55853057D01*
X103104000Y-55366198D01*
X103104000Y-54869802D01*
X103007158Y-54382943D01*
X102817195Y-53924332D01*
X102541412Y-53511594D01*
X102190406Y-53160588D01*
X101777668Y-52884805D01*
X101319057Y-52694842D01*
X101133840Y-52658000D01*
X103059677Y-52658000D01*
X103100872Y-53076259D01*
X103222873Y-53478444D01*
X103420993Y-53849100D01*
X103687618Y-54173982D01*
X104012500Y-54440607D01*
X104383156Y-54638727D01*
X104785341Y-54760728D01*
X105098789Y-54791600D01*
X106629211Y-54791600D01*
X106942659Y-54760728D01*
X107344844Y-54638727D01*
X107715500Y-54440607D01*
X108040382Y-54173982D01*
X108307007Y-53849100D01*
X108505127Y-53478444D01*
X108627128Y-53076259D01*
X108668323Y-52658000D01*
X115559677Y-52658000D01*
X115600872Y-53076259D01*
X115722873Y-53478444D01*
X115920993Y-53849100D01*
X116187618Y-54173982D01*
X116512500Y-54440607D01*
X116883156Y-54638727D01*
X117285341Y-54760728D01*
X117598789Y-54791600D01*
X119129211Y-54791600D01*
X119442659Y-54760728D01*
X119844844Y-54638727D01*
X120215500Y-54440607D01*
X120540382Y-54173982D01*
X120807007Y-53849100D01*
X121005127Y-53478444D01*
X121058650Y-53302000D01*
X121621856Y-53302000D01*
X121621856Y-54902000D01*
X121646377Y-55150963D01*
X121718997Y-55390359D01*
X121836925Y-55610988D01*
X121995630Y-55804370D01*
X122189012Y-55963075D01*
X122409641Y-56081003D01*
X122649037Y-56153623D01*
X122898000Y-56178144D01*
X124498000Y-56178144D01*
X124746963Y-56153623D01*
X124986359Y-56081003D01*
X125206988Y-55963075D01*
X125400370Y-55804370D01*
X125559075Y-55610988D01*
X125610443Y-55514883D01*
X129144327Y-55514883D01*
X129190038Y-55921472D01*
X129564367Y-56083156D01*
X129963046Y-56168704D01*
X130370755Y-56174830D01*
X130771824Y-56101298D01*
X131150842Y-55950934D01*
X131205962Y-55921472D01*
X131251673Y-55514883D01*
X130198000Y-54461210D01*
X129144327Y-55514883D01*
X125610443Y-55514883D01*
X125677003Y-55390359D01*
X125749623Y-55150963D01*
X125774144Y-54902000D01*
X125774144Y-54274755D01*
X128125170Y-54274755D01*
X128198702Y-54675824D01*
X128349066Y-55054842D01*
X128378528Y-55109962D01*
X128785117Y-55155673D01*
X129838790Y-54102000D01*
X130557210Y-54102000D01*
X131610883Y-55155673D01*
X132017472Y-55109962D01*
X132179156Y-54735633D01*
X132264704Y-54336954D01*
X132265740Y-54268000D01*
X133255856Y-54268000D01*
X133255856Y-55968000D01*
X133280377Y-56216963D01*
X133352997Y-56456359D01*
X133470925Y-56676988D01*
X133495114Y-56706463D01*
X133364258Y-57007500D01*
X133342918Y-57077875D01*
X133597486Y-57404000D01*
X135128000Y-57404000D01*
X135128000Y-57384000D01*
X135636000Y-57384000D01*
X135636000Y-57404000D01*
X138430000Y-57404000D01*
X138430000Y-57384000D01*
X138938000Y-57384000D01*
X138938000Y-57404000D01*
X140468514Y-57404000D01*
X140723082Y-57077875D01*
X140701742Y-57007500D01*
X140570886Y-56706463D01*
X140595075Y-56676988D01*
X140713003Y-56456359D01*
X140785623Y-56216963D01*
X140810144Y-55968000D01*
X140810144Y-54268000D01*
X140785623Y-54019037D01*
X140713003Y-53779641D01*
X140595075Y-53559012D01*
X140436370Y-53365630D01*
X140242988Y-53206925D01*
X140022359Y-53088997D01*
X139782963Y-53016377D01*
X139534000Y-52991856D01*
X137834000Y-52991856D01*
X137585037Y-53016377D01*
X137345641Y-53088997D01*
X137125012Y-53206925D01*
X137033000Y-53282438D01*
X136940988Y-53206925D01*
X136720359Y-53088997D01*
X136480963Y-53016377D01*
X136232000Y-52991856D01*
X134532000Y-52991856D01*
X134283037Y-53016377D01*
X134043641Y-53088997D01*
X133823012Y-53206925D01*
X133629630Y-53365630D01*
X133470925Y-53559012D01*
X133352997Y-53779641D01*
X133280377Y-54019037D01*
X133255856Y-54268000D01*
X132265740Y-54268000D01*
X132270830Y-53929245D01*
X132197298Y-53528176D01*
X132046934Y-53149158D01*
X132017472Y-53094038D01*
X131610883Y-53048327D01*
X130557210Y-54102000D01*
X129838790Y-54102000D01*
X128785117Y-53048327D01*
X128378528Y-53094038D01*
X128216844Y-53468367D01*
X128131296Y-53867046D01*
X128125170Y-54274755D01*
X125774144Y-54274755D01*
X125774144Y-53302000D01*
X125749623Y-53053037D01*
X125677003Y-52813641D01*
X125610444Y-52689117D01*
X129144327Y-52689117D01*
X130198000Y-53742790D01*
X131251673Y-52689117D01*
X131205962Y-52282528D01*
X130831633Y-52120844D01*
X130432954Y-52035296D01*
X130025245Y-52029170D01*
X129624176Y-52102702D01*
X129245158Y-52253066D01*
X129190038Y-52282528D01*
X129144327Y-52689117D01*
X125610444Y-52689117D01*
X125559075Y-52593012D01*
X125400370Y-52399630D01*
X125206988Y-52240925D01*
X124986359Y-52122997D01*
X124746963Y-52050377D01*
X124498000Y-52025856D01*
X122898000Y-52025856D01*
X122649037Y-52050377D01*
X122409641Y-52122997D01*
X122189012Y-52240925D01*
X121995630Y-52399630D01*
X121836925Y-52593012D01*
X121718997Y-52813641D01*
X121646377Y-53053037D01*
X121621856Y-53302000D01*
X121058650Y-53302000D01*
X121127128Y-53076259D01*
X121168323Y-52658000D01*
X121127128Y-52239741D01*
X121005127Y-51837556D01*
X120807007Y-51466900D01*
X120540382Y-51142018D01*
X120215500Y-50875393D01*
X119844844Y-50677273D01*
X119442659Y-50555272D01*
X119129211Y-50524400D01*
X117598789Y-50524400D01*
X117285341Y-50555272D01*
X116883156Y-50677273D01*
X116512500Y-50875393D01*
X116187618Y-51142018D01*
X115920993Y-51466900D01*
X115722873Y-51837556D01*
X115600872Y-52239741D01*
X115559677Y-52658000D01*
X108668323Y-52658000D01*
X108627128Y-52239741D01*
X108505127Y-51837556D01*
X108307007Y-51466900D01*
X108040382Y-51142018D01*
X107715500Y-50875393D01*
X107344844Y-50677273D01*
X106942659Y-50555272D01*
X106629211Y-50524400D01*
X105098789Y-50524400D01*
X104785341Y-50555272D01*
X104383156Y-50677273D01*
X104012500Y-50875393D01*
X103687618Y-51142018D01*
X103420993Y-51466900D01*
X103222873Y-51837556D01*
X103100872Y-52239741D01*
X103059677Y-52658000D01*
X101133840Y-52658000D01*
X100832198Y-52598000D01*
X100335802Y-52598000D01*
X99848943Y-52694842D01*
X99390332Y-52884805D01*
X98977594Y-53160588D01*
X98626588Y-53511594D01*
X98350805Y-53924332D01*
X98160842Y-54382943D01*
X98069000Y-54844665D01*
X98069000Y-49301000D01*
X129965358Y-49301000D01*
X129902000Y-49619519D01*
X129902000Y-49619519D01*
G37*
X129902000Y-49619519D02*
X129902000Y-49948481D01*
X129966178Y-50271121D01*
X130092066Y-50575041D01*
X130274827Y-50848563D01*
X130507437Y-51081173D01*
X130780959Y-51263934D01*
X131084879Y-51389822D01*
X131407519Y-51454000D01*
X131736481Y-51454000D01*
X132059121Y-51389822D01*
X132363041Y-51263934D01*
X132521186Y-51158265D01*
X132690756Y-51475507D01*
X132955681Y-51798319D01*
X133278493Y-52063244D01*
X133646786Y-52260101D01*
X134046407Y-52381325D01*
X134357858Y-52412000D01*
X134566142Y-52412000D01*
X134877593Y-52381325D01*
X135277214Y-52260101D01*
X135645507Y-52063244D01*
X135732000Y-51992261D01*
X135818493Y-52063244D01*
X136186786Y-52260101D01*
X136586407Y-52381325D01*
X136897858Y-52412000D01*
X137106142Y-52412000D01*
X137417593Y-52381325D01*
X137817214Y-52260101D01*
X138185507Y-52063244D01*
X138272000Y-51992261D01*
X138358493Y-52063244D01*
X138726786Y-52260101D01*
X139126407Y-52381325D01*
X139437858Y-52412000D01*
X139646142Y-52412000D01*
X139957593Y-52381325D01*
X140357214Y-52260101D01*
X140725507Y-52063244D01*
X140812000Y-51992261D01*
X140898493Y-52063244D01*
X141266786Y-52260101D01*
X141666407Y-52381325D01*
X141977858Y-52412000D01*
X142186142Y-52412000D01*
X142497593Y-52381325D01*
X142897214Y-52260101D01*
X143265507Y-52063244D01*
X143352000Y-51992261D01*
X143438493Y-52063244D01*
X143806786Y-52260101D01*
X144206407Y-52381325D01*
X144517858Y-52412000D01*
X144726142Y-52412000D01*
X145037593Y-52381325D01*
X145437214Y-52260101D01*
X145805507Y-52063244D01*
X145900923Y-51984938D01*
X146130357Y-52144065D01*
X146511500Y-52309742D01*
X146581875Y-52331082D01*
X146908000Y-52076514D01*
X146908000Y-50546000D01*
X146888000Y-50546000D01*
X146888000Y-50038000D01*
X146908000Y-50038000D01*
X146908000Y-50018000D01*
X147416000Y-50018000D01*
X147416000Y-50038000D01*
X147436000Y-50038000D01*
X147436000Y-50546000D01*
X147416000Y-50546000D01*
X147416000Y-52076514D01*
X147742125Y-52331082D01*
X147812500Y-52309742D01*
X148113537Y-52178886D01*
X148143012Y-52203075D01*
X148363641Y-52321003D01*
X148603037Y-52393623D01*
X148852000Y-52418144D01*
X150552000Y-52418144D01*
X150597000Y-52413712D01*
X150597000Y-53923019D01*
X150558101Y-53794786D01*
X150361244Y-53426493D01*
X150096319Y-53103681D01*
X149773507Y-52838756D01*
X149405214Y-52641899D01*
X149005593Y-52520675D01*
X148694142Y-52490000D01*
X148485858Y-52490000D01*
X148174407Y-52520675D01*
X147774786Y-52641899D01*
X147406493Y-52838756D01*
X147320000Y-52909739D01*
X147233507Y-52838756D01*
X146865214Y-52641899D01*
X146465593Y-52520675D01*
X146154142Y-52490000D01*
X145945858Y-52490000D01*
X145634407Y-52520675D01*
X145234786Y-52641899D01*
X145092302Y-52718058D01*
X145068988Y-52698925D01*
X144848359Y-52580997D01*
X144608963Y-52508377D01*
X144360000Y-52483856D01*
X142660000Y-52483856D01*
X142411037Y-52508377D01*
X142171641Y-52580997D01*
X141951012Y-52698925D01*
X141757630Y-52857630D01*
X141598925Y-53051012D01*
X141480997Y-53271641D01*
X141408377Y-53511037D01*
X141383856Y-53760000D01*
X141383856Y-55460000D01*
X141408377Y-55708963D01*
X141480997Y-55948359D01*
X141598925Y-56168988D01*
X141757630Y-56362370D01*
X141951012Y-56521075D01*
X142171641Y-56639003D01*
X142411037Y-56711623D01*
X142660000Y-56736144D01*
X144360000Y-56736144D01*
X144608963Y-56711623D01*
X144848359Y-56639003D01*
X145068988Y-56521075D01*
X145092302Y-56501942D01*
X145234786Y-56578101D01*
X145634407Y-56699325D01*
X145945858Y-56730000D01*
X146154142Y-56730000D01*
X146465593Y-56699325D01*
X146865214Y-56578101D01*
X147233507Y-56381244D01*
X147320000Y-56310261D01*
X147406493Y-56381244D01*
X147774786Y-56578101D01*
X148174407Y-56699325D01*
X148485858Y-56730000D01*
X148694142Y-56730000D01*
X149005593Y-56699325D01*
X149405214Y-56578101D01*
X149773507Y-56381244D01*
X150096319Y-56116319D01*
X150361244Y-55793507D01*
X150558101Y-55425214D01*
X150597000Y-55296981D01*
X150597000Y-57256546D01*
X150517214Y-57213899D01*
X150117593Y-57092675D01*
X149806142Y-57062000D01*
X149597858Y-57062000D01*
X149286407Y-57092675D01*
X148886786Y-57213899D01*
X148518493Y-57410756D01*
X148195681Y-57675681D01*
X147930756Y-57998493D01*
X147733899Y-58366786D01*
X147612675Y-58766407D01*
X147571743Y-59182000D01*
X147612675Y-59597593D01*
X147733899Y-59997214D01*
X147930756Y-60365507D01*
X148009062Y-60460923D01*
X147849935Y-60690357D01*
X147684258Y-61071500D01*
X147662918Y-61141875D01*
X147917486Y-61468000D01*
X149448000Y-61468000D01*
X149448000Y-61448000D01*
X149956000Y-61448000D01*
X149956000Y-61468000D01*
X149976000Y-61468000D01*
X149976000Y-61976000D01*
X149956000Y-61976000D01*
X149956000Y-61996000D01*
X149448000Y-61996000D01*
X149448000Y-61976000D01*
X147917486Y-61976000D01*
X147662918Y-62302125D01*
X147684258Y-62372500D01*
X147849935Y-62753643D01*
X148009062Y-62983077D01*
X147930756Y-63078493D01*
X147733899Y-63446786D01*
X147612675Y-63846407D01*
X147571743Y-64262000D01*
X147612675Y-64677593D01*
X147733899Y-65077214D01*
X147930756Y-65445507D01*
X148001739Y-65532000D01*
X147930756Y-65618493D01*
X147733899Y-65986786D01*
X147612675Y-66386407D01*
X147571743Y-66802000D01*
X147612675Y-67217593D01*
X147733899Y-67617214D01*
X147930756Y-67985507D01*
X148001739Y-68072000D01*
X147930756Y-68158493D01*
X147733899Y-68526786D01*
X147612675Y-68926407D01*
X147571743Y-69342000D01*
X147612675Y-69757593D01*
X147733899Y-70157214D01*
X147930756Y-70525507D01*
X148001739Y-70612000D01*
X147930756Y-70698493D01*
X147733899Y-71066786D01*
X147612675Y-71466407D01*
X147571743Y-71882000D01*
X147612675Y-72297593D01*
X147733899Y-72697214D01*
X147930756Y-73065507D01*
X148001739Y-73152000D01*
X147930756Y-73238493D01*
X147733899Y-73606786D01*
X147612675Y-74006407D01*
X147571743Y-74422000D01*
X147612675Y-74837593D01*
X147733899Y-75237214D01*
X147930756Y-75605507D01*
X148001739Y-75692000D01*
X147930756Y-75778493D01*
X147733899Y-76146786D01*
X147612675Y-76546407D01*
X147571743Y-76962000D01*
X147612675Y-77377593D01*
X147733899Y-77777214D01*
X147930756Y-78145507D01*
X148001739Y-78232000D01*
X147930756Y-78318493D01*
X147733899Y-78686786D01*
X147612675Y-79086407D01*
X147571743Y-79502000D01*
X147612675Y-79917593D01*
X147733899Y-80317214D01*
X147930756Y-80685507D01*
X148001739Y-80772000D01*
X147930756Y-80858493D01*
X147733899Y-81226786D01*
X147612675Y-81626407D01*
X147571743Y-82042000D01*
X147612675Y-82457593D01*
X147733899Y-82857214D01*
X147930756Y-83225507D01*
X148001739Y-83312000D01*
X147930756Y-83398493D01*
X147733899Y-83766786D01*
X147612675Y-84166407D01*
X147571743Y-84582000D01*
X147612675Y-84997593D01*
X147733899Y-85397214D01*
X147930756Y-85765507D01*
X148009062Y-85860923D01*
X147849935Y-86090357D01*
X147684258Y-86471500D01*
X147662918Y-86541875D01*
X147917486Y-86868000D01*
X149448000Y-86868000D01*
X149448000Y-86848000D01*
X149956000Y-86848000D01*
X149956000Y-86868000D01*
X149976000Y-86868000D01*
X149976000Y-87376000D01*
X149956000Y-87376000D01*
X149956000Y-87396000D01*
X149448000Y-87396000D01*
X149448000Y-87376000D01*
X147917486Y-87376000D01*
X147662918Y-87702125D01*
X147684258Y-87772500D01*
X147849935Y-88153643D01*
X148009062Y-88383077D01*
X147930756Y-88478493D01*
X147733899Y-88846786D01*
X147612675Y-89246407D01*
X147571743Y-89662000D01*
X147612675Y-90077593D01*
X147733899Y-90477214D01*
X147930756Y-90845507D01*
X148001739Y-90932000D01*
X147930756Y-91018493D01*
X147733899Y-91386786D01*
X147612675Y-91786407D01*
X147571743Y-92202000D01*
X147612675Y-92617593D01*
X147733899Y-93017214D01*
X147930756Y-93385507D01*
X148001739Y-93472000D01*
X147930756Y-93558493D01*
X147733899Y-93926786D01*
X147612675Y-94326407D01*
X147571743Y-94742000D01*
X147612675Y-95157593D01*
X147733899Y-95557214D01*
X147930756Y-95925507D01*
X148001739Y-96012000D01*
X147930756Y-96098493D01*
X147733899Y-96466786D01*
X147612675Y-96866407D01*
X147571743Y-97282000D01*
X147612675Y-97697593D01*
X147733899Y-98097214D01*
X147930756Y-98465507D01*
X148001739Y-98552000D01*
X147930756Y-98638493D01*
X147733899Y-99006786D01*
X147612675Y-99406407D01*
X147571743Y-99822000D01*
X147612675Y-100237593D01*
X147733899Y-100637214D01*
X147930756Y-101005507D01*
X148001739Y-101092000D01*
X147930756Y-101178493D01*
X147749000Y-101518534D01*
X147567244Y-101178493D01*
X147302319Y-100855681D01*
X146979507Y-100590756D01*
X146611214Y-100393899D01*
X146211593Y-100272675D01*
X145900142Y-100242000D01*
X145691858Y-100242000D01*
X145380407Y-100272675D01*
X144980786Y-100393899D01*
X144612493Y-100590756D01*
X144289681Y-100855681D01*
X144024756Y-101178493D01*
X143827899Y-101546786D01*
X143706675Y-101946407D01*
X143665743Y-102362000D01*
X143706675Y-102777593D01*
X143827899Y-103177214D01*
X144024756Y-103545507D01*
X144095739Y-103632000D01*
X144024756Y-103718493D01*
X143827899Y-104086786D01*
X143706675Y-104486407D01*
X143665743Y-104902000D01*
X143706675Y-105317593D01*
X143827899Y-105717214D01*
X143904058Y-105859697D01*
X143884924Y-105883012D01*
X143766996Y-106103640D01*
X143694376Y-106343036D01*
X143669855Y-106592000D01*
X143676000Y-106870500D01*
X143993500Y-107188000D01*
X145542000Y-107188000D01*
X145542000Y-107168000D01*
X146050000Y-107168000D01*
X146050000Y-107188000D01*
X146070000Y-107188000D01*
X146070000Y-107696000D01*
X146050000Y-107696000D01*
X146050000Y-107716000D01*
X145542000Y-107716000D01*
X145542000Y-107696000D01*
X143993500Y-107696000D01*
X143676000Y-108013500D01*
X143669855Y-108292000D01*
X143683742Y-108433000D01*
X142631013Y-108433000D01*
X142689474Y-108240278D01*
X142714000Y-107991265D01*
X142714000Y-106824735D01*
X142689474Y-106575722D01*
X142592553Y-106256213D01*
X142435160Y-105961752D01*
X142223345Y-105703655D01*
X141965247Y-105491840D01*
X141670786Y-105334447D01*
X141351277Y-105237526D01*
X141019000Y-105204799D01*
X140686722Y-105237526D01*
X140367213Y-105334447D01*
X140072752Y-105491840D01*
X139814655Y-105703655D01*
X139602840Y-105961753D01*
X139598345Y-105970163D01*
X139603087Y-105723153D01*
X139300802Y-105583700D01*
X138977120Y-105505900D01*
X138644479Y-105492741D01*
X138315663Y-105544731D01*
X138092011Y-105627172D01*
X137936955Y-105562946D01*
X137610450Y-105498000D01*
X137277550Y-105498000D01*
X136960367Y-105561092D01*
X136812963Y-105516377D01*
X136564000Y-105491856D01*
X135724000Y-105491856D01*
X135475037Y-105516377D01*
X135235641Y-105588997D01*
X135052750Y-105686754D01*
X134815247Y-105491840D01*
X134520786Y-105334447D01*
X134201277Y-105237526D01*
X133869000Y-105204799D01*
X133536722Y-105237526D01*
X133217213Y-105334447D01*
X132922752Y-105491840D01*
X132664655Y-105703655D01*
X132452840Y-105961753D01*
X132295447Y-106256214D01*
X132198526Y-106575723D01*
X132174000Y-106824736D01*
X132174000Y-107991265D01*
X132198526Y-108240278D01*
X132256987Y-108433000D01*
X128858257Y-108433000D01*
X128872144Y-108292000D01*
X128872144Y-106592000D01*
X128847623Y-106343037D01*
X128775003Y-106103641D01*
X128657075Y-105883012D01*
X128637942Y-105859698D01*
X128714101Y-105717214D01*
X128835325Y-105317593D01*
X128876257Y-104902000D01*
X128835325Y-104486407D01*
X128714101Y-104086786D01*
X128517244Y-103718493D01*
X128252319Y-103395681D01*
X127929507Y-103130756D01*
X127561214Y-102933899D01*
X127161593Y-102812675D01*
X126850142Y-102782000D01*
X126641858Y-102782000D01*
X126330407Y-102812675D01*
X125930786Y-102933899D01*
X125562493Y-103130756D01*
X125239681Y-103395681D01*
X124974756Y-103718493D01*
X124777899Y-104086786D01*
X124656675Y-104486407D01*
X124615743Y-104902000D01*
X124656675Y-105317593D01*
X124777899Y-105717214D01*
X124854058Y-105859698D01*
X124834925Y-105883012D01*
X124716997Y-106103641D01*
X124644377Y-106343037D01*
X124619856Y-106592000D01*
X124619856Y-108292000D01*
X124633743Y-108433000D01*
X120805521Y-108433000D01*
X121025593Y-108411325D01*
X121425214Y-108290101D01*
X121793507Y-108093244D01*
X122116319Y-107828319D01*
X122381244Y-107505507D01*
X122578101Y-107137213D01*
X122699325Y-106737592D01*
X122730000Y-106426141D01*
X122730000Y-105917858D01*
X122699325Y-105606407D01*
X122578101Y-105206786D01*
X122381244Y-104838493D01*
X122116319Y-104515681D01*
X121793507Y-104250756D01*
X121425213Y-104053899D01*
X121025592Y-103932675D01*
X120610000Y-103891743D01*
X120194407Y-103932675D01*
X119794786Y-104053899D01*
X119676526Y-104117110D01*
X119668988Y-104110924D01*
X119448360Y-103992996D01*
X119208964Y-103920376D01*
X118960000Y-103895855D01*
X118681500Y-103902000D01*
X118364000Y-104219500D01*
X118364000Y-105918000D01*
X118384000Y-105918000D01*
X118384000Y-106426000D01*
X118364000Y-106426000D01*
X118364000Y-106446000D01*
X117856000Y-106446000D01*
X117856000Y-106426000D01*
X116307500Y-106426000D01*
X115990000Y-106743500D01*
X115983855Y-107172000D01*
X116008376Y-107420964D01*
X116080996Y-107660360D01*
X116198924Y-107880988D01*
X116357629Y-108074371D01*
X116551012Y-108233076D01*
X116771640Y-108351004D01*
X117011036Y-108423624D01*
X117106231Y-108433000D01*
X112169521Y-108433000D01*
X112389593Y-108411325D01*
X112789214Y-108290101D01*
X113157507Y-108093244D01*
X113480319Y-107828319D01*
X113745244Y-107505507D01*
X113942101Y-107137213D01*
X114063325Y-106737592D01*
X114094000Y-106426141D01*
X114094000Y-105917858D01*
X114063325Y-105606407D01*
X113942101Y-105206786D01*
X113923508Y-105172000D01*
X115983855Y-105172000D01*
X115990000Y-105600500D01*
X116307500Y-105918000D01*
X117856000Y-105918000D01*
X117856000Y-104219500D01*
X117538500Y-103902000D01*
X117260000Y-103895855D01*
X117011036Y-103920376D01*
X116771640Y-103992996D01*
X116551012Y-104110924D01*
X116357629Y-104269629D01*
X116198924Y-104463012D01*
X116080996Y-104683640D01*
X116008376Y-104923036D01*
X115983855Y-105172000D01*
X113923508Y-105172000D01*
X113745244Y-104838493D01*
X113480319Y-104515681D01*
X113157507Y-104250756D01*
X112789213Y-104053899D01*
X112389592Y-103932675D01*
X111974000Y-103891743D01*
X111558407Y-103932675D01*
X111158786Y-104053899D01*
X111040526Y-104117110D01*
X111032988Y-104110924D01*
X110812360Y-103992996D01*
X110572964Y-103920376D01*
X110324000Y-103895855D01*
X110045500Y-103902000D01*
X109728000Y-104219500D01*
X109728000Y-105918000D01*
X109748000Y-105918000D01*
X109748000Y-106426000D01*
X109728000Y-106426000D01*
X109728000Y-106446000D01*
X109220000Y-106446000D01*
X109220000Y-106426000D01*
X107671500Y-106426000D01*
X107354000Y-106743500D01*
X107347855Y-107172000D01*
X107372376Y-107420964D01*
X107444996Y-107660360D01*
X107562924Y-107880988D01*
X107721629Y-108074371D01*
X107915012Y-108233076D01*
X108135640Y-108351004D01*
X108375036Y-108423624D01*
X108470231Y-108433000D01*
X103533521Y-108433000D01*
X103753593Y-108411325D01*
X104153214Y-108290101D01*
X104521507Y-108093244D01*
X104844319Y-107828319D01*
X105109244Y-107505507D01*
X105306101Y-107137213D01*
X105427325Y-106737592D01*
X105458000Y-106426141D01*
X105458000Y-105917858D01*
X105427325Y-105606407D01*
X105306101Y-105206786D01*
X105287508Y-105172000D01*
X107347855Y-105172000D01*
X107354000Y-105600500D01*
X107671500Y-105918000D01*
X109220000Y-105918000D01*
X109220000Y-104219500D01*
X108902500Y-103902000D01*
X108624000Y-103895855D01*
X108375036Y-103920376D01*
X108135640Y-103992996D01*
X107915012Y-104110924D01*
X107721629Y-104269629D01*
X107562924Y-104463012D01*
X107444996Y-104683640D01*
X107372376Y-104923036D01*
X107347855Y-105172000D01*
X105287508Y-105172000D01*
X105109244Y-104838493D01*
X104844319Y-104515681D01*
X104521507Y-104250756D01*
X104153213Y-104053899D01*
X103753592Y-103932675D01*
X103338000Y-103891743D01*
X102922407Y-103932675D01*
X102522786Y-104053899D01*
X102404526Y-104117110D01*
X102396988Y-104110924D01*
X102176360Y-103992996D01*
X101936964Y-103920376D01*
X101688000Y-103895855D01*
X101409500Y-103902000D01*
X101092000Y-104219500D01*
X101092000Y-105918000D01*
X101112000Y-105918000D01*
X101112000Y-106426000D01*
X101092000Y-106426000D01*
X101092000Y-106446000D01*
X100584000Y-106446000D01*
X100584000Y-106426000D01*
X99035500Y-106426000D01*
X98718000Y-106743500D01*
X98711855Y-107172000D01*
X98736376Y-107420964D01*
X98808996Y-107660360D01*
X98926924Y-107880988D01*
X99085629Y-108074371D01*
X99279012Y-108233076D01*
X99499640Y-108351004D01*
X99739036Y-108423624D01*
X99834231Y-108433000D01*
X98069000Y-108433000D01*
X98069000Y-105172000D01*
X98711855Y-105172000D01*
X98718000Y-105600500D01*
X99035500Y-105918000D01*
X100584000Y-105918000D01*
X100584000Y-104219500D01*
X100266500Y-103902000D01*
X99988000Y-103895855D01*
X99739036Y-103920376D01*
X99499640Y-103992996D01*
X99279012Y-104110924D01*
X99085629Y-104269629D01*
X98926924Y-104463012D01*
X98808996Y-104683640D01*
X98736376Y-104923036D01*
X98711855Y-105172000D01*
X98069000Y-105172000D01*
X98069000Y-101950141D01*
X98244786Y-102044101D01*
X98644407Y-102165325D01*
X98955858Y-102196000D01*
X99164142Y-102196000D01*
X99475593Y-102165325D01*
X99875214Y-102044101D01*
X100243507Y-101847244D01*
X100452000Y-101676138D01*
X100660493Y-101847244D01*
X101028786Y-102044101D01*
X101428407Y-102165325D01*
X101739858Y-102196000D01*
X101948142Y-102196000D01*
X102259593Y-102165325D01*
X102659214Y-102044101D01*
X103027507Y-101847244D01*
X103350319Y-101582319D01*
X103610720Y-101265019D01*
X103656815Y-101321186D01*
X103710039Y-101364866D01*
X104883134Y-102537962D01*
X104926814Y-102591186D01*
X105139230Y-102765512D01*
X105381574Y-102895047D01*
X105644532Y-102974815D01*
X105849476Y-102995000D01*
X105849485Y-102995000D01*
X105917999Y-103001748D01*
X105986513Y-102995000D01*
X109063846Y-102995000D01*
X109190959Y-103079934D01*
X109494879Y-103205822D01*
X109817519Y-103270000D01*
X110146481Y-103270000D01*
X110469121Y-103205822D01*
X110773041Y-103079934D01*
X111046563Y-102897173D01*
X111279173Y-102664563D01*
X111461934Y-102391041D01*
X111587822Y-102087121D01*
X111605152Y-102000000D01*
X111670481Y-102000000D01*
X111993121Y-101935822D01*
X112297041Y-101809934D01*
X112570563Y-101627173D01*
X112803173Y-101394563D01*
X112985934Y-101121041D01*
X113111822Y-100817121D01*
X113176000Y-100494481D01*
X113176000Y-100387983D01*
X113578274Y-100468000D01*
X114005726Y-100468000D01*
X114424966Y-100384608D01*
X114725202Y-100260246D01*
X114943640Y-100377004D01*
X115170000Y-100445670D01*
X115170000Y-100494481D01*
X115234178Y-100817121D01*
X115360066Y-101121041D01*
X115542827Y-101394563D01*
X115775437Y-101627173D01*
X116048959Y-101809934D01*
X116352879Y-101935822D01*
X116675519Y-102000000D01*
X117004481Y-102000000D01*
X117130163Y-101975000D01*
X119597837Y-101975000D01*
X119723519Y-102000000D01*
X120052481Y-102000000D01*
X120375121Y-101935822D01*
X120679041Y-101809934D01*
X120952563Y-101627173D01*
X121185173Y-101394563D01*
X121367934Y-101121041D01*
X121493822Y-100817121D01*
X121558000Y-100494481D01*
X121558000Y-100165519D01*
X121540194Y-100076000D01*
X122573743Y-100076000D01*
X122614675Y-100491593D01*
X122735899Y-100891214D01*
X122932756Y-101259507D01*
X123197681Y-101582319D01*
X123520493Y-101847244D01*
X123888786Y-102044101D01*
X124288407Y-102165325D01*
X124599858Y-102196000D01*
X124808142Y-102196000D01*
X125119593Y-102165325D01*
X125519214Y-102044101D01*
X125887507Y-101847244D01*
X126077000Y-101691731D01*
X126266493Y-101847244D01*
X126634786Y-102044101D01*
X127034407Y-102165325D01*
X127345858Y-102196000D01*
X127554142Y-102196000D01*
X127865593Y-102165325D01*
X128265214Y-102044101D01*
X128633507Y-101847244D01*
X128873699Y-101650123D01*
X131026000Y-101650123D01*
X131026000Y-102057877D01*
X131105549Y-102457797D01*
X131261590Y-102834513D01*
X131488126Y-103173548D01*
X131776452Y-103461874D01*
X132115487Y-103688410D01*
X132492203Y-103844451D01*
X132892123Y-103924000D01*
X133299877Y-103924000D01*
X133699797Y-103844451D01*
X134076513Y-103688410D01*
X134415548Y-103461874D01*
X134703874Y-103173548D01*
X134930410Y-102834513D01*
X135086451Y-102457797D01*
X135166000Y-102057877D01*
X135166000Y-101650123D01*
X135852000Y-101650123D01*
X135852000Y-102057877D01*
X135931549Y-102457797D01*
X136087590Y-102834513D01*
X136314126Y-103173548D01*
X136602452Y-103461874D01*
X136941487Y-103688410D01*
X137318203Y-103844451D01*
X137718123Y-103924000D01*
X138125877Y-103924000D01*
X138525797Y-103844451D01*
X138902513Y-103688410D01*
X139241548Y-103461874D01*
X139529874Y-103173548D01*
X139756410Y-102834513D01*
X139912451Y-102457797D01*
X139992000Y-102057877D01*
X139992000Y-101650123D01*
X139912451Y-101250203D01*
X139756410Y-100873487D01*
X139529874Y-100534452D01*
X139317000Y-100321578D01*
X139317000Y-99253154D01*
X139401934Y-99126041D01*
X139527822Y-98822121D01*
X139592000Y-98499481D01*
X139592000Y-98170519D01*
X139527822Y-97847879D01*
X139401934Y-97543959D01*
X139219173Y-97270437D01*
X138986563Y-97037827D01*
X138713041Y-96855066D01*
X138409121Y-96729178D01*
X138086481Y-96665000D01*
X137757519Y-96665000D01*
X137434879Y-96729178D01*
X137130959Y-96855066D01*
X136857437Y-97037827D01*
X136624827Y-97270437D01*
X136442066Y-97543959D01*
X136316178Y-97847879D01*
X136252000Y-98170519D01*
X136252000Y-98499481D01*
X136316178Y-98822121D01*
X136442066Y-99126041D01*
X136527000Y-99253155D01*
X136527001Y-100321577D01*
X136314126Y-100534452D01*
X136087590Y-100873487D01*
X135931549Y-101250203D01*
X135852000Y-101650123D01*
X135166000Y-101650123D01*
X135086451Y-101250203D01*
X134930410Y-100873487D01*
X134703874Y-100534452D01*
X134491000Y-100321578D01*
X134491000Y-99978154D01*
X134575934Y-99851041D01*
X134701822Y-99547121D01*
X134766000Y-99224481D01*
X134766000Y-98895519D01*
X134701822Y-98572879D01*
X134575934Y-98268959D01*
X134393173Y-97995437D01*
X134160563Y-97762827D01*
X133887041Y-97580066D01*
X133583121Y-97454178D01*
X133260481Y-97390000D01*
X132931519Y-97390000D01*
X132608879Y-97454178D01*
X132304959Y-97580066D01*
X132031437Y-97762827D01*
X131798827Y-97995437D01*
X131616066Y-98268959D01*
X131490178Y-98572879D01*
X131426000Y-98895519D01*
X131426000Y-99224481D01*
X131490178Y-99547121D01*
X131616066Y-99851041D01*
X131701000Y-99978155D01*
X131701000Y-100321578D01*
X131488126Y-100534452D01*
X131261590Y-100873487D01*
X131105549Y-101250203D01*
X131026000Y-101650123D01*
X128873699Y-101650123D01*
X128956319Y-101582319D01*
X129221244Y-101259507D01*
X129418101Y-100891214D01*
X129539325Y-100491593D01*
X129580257Y-100076000D01*
X129539325Y-99660407D01*
X129418101Y-99260786D01*
X129221244Y-98892493D01*
X129142938Y-98797077D01*
X129302065Y-98567643D01*
X129467742Y-98186500D01*
X129489082Y-98116125D01*
X129234514Y-97790000D01*
X127704000Y-97790000D01*
X127704000Y-97810000D01*
X127196000Y-97810000D01*
X127196000Y-97790000D01*
X124958000Y-97790000D01*
X124958000Y-97810000D01*
X124450000Y-97810000D01*
X124450000Y-97790000D01*
X122919486Y-97790000D01*
X122664918Y-98116125D01*
X122686258Y-98186500D01*
X122851935Y-98567643D01*
X123011062Y-98797077D01*
X122932756Y-98892493D01*
X122735899Y-99260786D01*
X122614675Y-99660407D01*
X122573743Y-100076000D01*
X121540194Y-100076000D01*
X121493822Y-99842879D01*
X121367934Y-99538959D01*
X121185173Y-99265437D01*
X120952563Y-99032827D01*
X120679041Y-98850066D01*
X120375121Y-98724178D01*
X120052481Y-98660000D01*
X119994710Y-98660000D01*
X120034000Y-98462481D01*
X120034000Y-98133519D01*
X119969822Y-97810879D01*
X119843934Y-97506959D01*
X119759000Y-97379846D01*
X119759000Y-95914154D01*
X119818945Y-95824439D01*
X120037858Y-95846000D01*
X120246142Y-95846000D01*
X120557593Y-95815325D01*
X120957214Y-95694101D01*
X121325507Y-95497244D01*
X121569530Y-95296979D01*
X121640953Y-95532426D01*
X121770488Y-95774770D01*
X121944814Y-95987186D01*
X122157230Y-96161512D01*
X122399574Y-96291047D01*
X122662532Y-96370815D01*
X122867476Y-96391000D01*
X122926522Y-96396815D01*
X122851935Y-96504357D01*
X122686258Y-96885500D01*
X122664918Y-96955875D01*
X122919486Y-97282000D01*
X124450000Y-97282000D01*
X124450000Y-97262000D01*
X124958000Y-97262000D01*
X124958000Y-97282000D01*
X127196000Y-97282000D01*
X127196000Y-97262000D01*
X127704000Y-97262000D01*
X127704000Y-97282000D01*
X129234514Y-97282000D01*
X129489082Y-96955875D01*
X129467742Y-96885500D01*
X129302065Y-96504357D01*
X129142938Y-96274923D01*
X129145499Y-96271802D01*
X140990000Y-96271802D01*
X140990000Y-96768198D01*
X141086842Y-97255057D01*
X141276805Y-97713668D01*
X141552588Y-98126406D01*
X141903594Y-98477412D01*
X142316332Y-98753195D01*
X142774943Y-98943158D01*
X143261802Y-99040000D01*
X143758198Y-99040000D01*
X144245057Y-98943158D01*
X144703668Y-98753195D01*
X145116406Y-98477412D01*
X145467412Y-98126406D01*
X145743195Y-97713668D01*
X145933158Y-97255057D01*
X146030000Y-96768198D01*
X146030000Y-96271802D01*
X145933158Y-95784943D01*
X145743195Y-95326332D01*
X145467412Y-94913594D01*
X145116406Y-94562588D01*
X144703668Y-94286805D01*
X144245057Y-94096842D01*
X143758198Y-94000000D01*
X143261802Y-94000000D01*
X142774943Y-94096842D01*
X142316332Y-94286805D01*
X141903594Y-94562588D01*
X141552588Y-94913594D01*
X141276805Y-95326332D01*
X141086842Y-95784943D01*
X140990000Y-96271802D01*
X129145499Y-96271802D01*
X129221244Y-96179507D01*
X129418101Y-95811214D01*
X129539325Y-95411593D01*
X129580257Y-94996000D01*
X129539325Y-94580407D01*
X129418101Y-94180786D01*
X129221244Y-93812493D01*
X129150261Y-93726000D01*
X129221244Y-93639507D01*
X129418101Y-93271214D01*
X129539325Y-92871593D01*
X129580257Y-92456000D01*
X129539325Y-92040407D01*
X129434244Y-91694000D01*
X131015985Y-91694000D01*
X131055952Y-92099791D01*
X131174317Y-92489987D01*
X131366531Y-92849594D01*
X131625207Y-93164793D01*
X131940406Y-93423469D01*
X132300013Y-93615683D01*
X132690209Y-93734048D01*
X132994316Y-93764000D01*
X133197684Y-93764000D01*
X133501791Y-93734048D01*
X133891987Y-93615683D01*
X134251594Y-93423469D01*
X134566793Y-93164793D01*
X134825469Y-92849594D01*
X135017683Y-92489987D01*
X135136048Y-92099791D01*
X135176015Y-91694000D01*
X135841985Y-91694000D01*
X135881952Y-92099791D01*
X136000317Y-92489987D01*
X136192531Y-92849594D01*
X136451207Y-93164793D01*
X136766406Y-93423469D01*
X137126013Y-93615683D01*
X137516209Y-93734048D01*
X137820316Y-93764000D01*
X138023684Y-93764000D01*
X138327791Y-93734048D01*
X138717987Y-93615683D01*
X139077594Y-93423469D01*
X139392793Y-93164793D01*
X139651469Y-92849594D01*
X139843683Y-92489987D01*
X139962048Y-92099791D01*
X140002015Y-91694000D01*
X139962048Y-91288209D01*
X139843683Y-90898013D01*
X139651469Y-90538406D01*
X139452933Y-90296489D01*
X139529874Y-90219548D01*
X139756410Y-89880513D01*
X139912451Y-89503797D01*
X139992000Y-89103877D01*
X139992000Y-88696123D01*
X139912451Y-88296203D01*
X139756410Y-87919487D01*
X139529874Y-87580452D01*
X139241548Y-87292126D01*
X138902513Y-87065590D01*
X138525797Y-86909549D01*
X138125877Y-86830000D01*
X137718123Y-86830000D01*
X137318203Y-86909549D01*
X136941487Y-87065590D01*
X136602452Y-87292126D01*
X136314126Y-87580452D01*
X136087590Y-87919487D01*
X135931549Y-88296203D01*
X135852000Y-88696123D01*
X135852000Y-89103877D01*
X135931549Y-89503797D01*
X136087590Y-89880513D01*
X136314126Y-90219548D01*
X136391067Y-90296489D01*
X136192531Y-90538406D01*
X136000317Y-90898013D01*
X135881952Y-91288209D01*
X135841985Y-91694000D01*
X135176015Y-91694000D01*
X135136048Y-91288209D01*
X135017683Y-90898013D01*
X134825469Y-90538406D01*
X134566793Y-90223207D01*
X134551331Y-90210518D01*
X134571531Y-90190318D01*
X134334886Y-89953673D01*
X134741472Y-89907962D01*
X134903156Y-89533633D01*
X134988704Y-89134954D01*
X134994830Y-88727245D01*
X134921298Y-88326176D01*
X134770934Y-87947158D01*
X134741472Y-87892038D01*
X134334883Y-87846327D01*
X133281210Y-88900000D01*
X133295353Y-88914143D01*
X132936143Y-89273353D01*
X132922000Y-89259210D01*
X132456303Y-89724907D01*
X132300013Y-89772317D01*
X131940406Y-89964531D01*
X131625207Y-90223207D01*
X131366531Y-90538406D01*
X131174317Y-90898013D01*
X131055952Y-91288209D01*
X131015985Y-91694000D01*
X129434244Y-91694000D01*
X129418101Y-91640786D01*
X129221244Y-91272493D01*
X129150261Y-91186000D01*
X129221244Y-91099507D01*
X129418101Y-90731214D01*
X129539325Y-90331593D01*
X129580257Y-89916000D01*
X129539325Y-89500407D01*
X129418101Y-89100786D01*
X129403119Y-89072755D01*
X130849170Y-89072755D01*
X130922702Y-89473824D01*
X131073066Y-89852842D01*
X131102528Y-89907962D01*
X131509117Y-89953673D01*
X132562790Y-88900000D01*
X131509117Y-87846327D01*
X131102528Y-87892038D01*
X130940844Y-88266367D01*
X130855296Y-88665046D01*
X130849170Y-89072755D01*
X129403119Y-89072755D01*
X129221244Y-88732493D01*
X129142938Y-88637077D01*
X129302065Y-88407643D01*
X129467742Y-88026500D01*
X129489082Y-87956125D01*
X129234514Y-87630000D01*
X127704000Y-87630000D01*
X127704000Y-87650000D01*
X127196000Y-87650000D01*
X127196000Y-87630000D01*
X124958000Y-87630000D01*
X124958000Y-87650000D01*
X124450000Y-87650000D01*
X124450000Y-87630000D01*
X124430000Y-87630000D01*
X124430000Y-87122000D01*
X124450000Y-87122000D01*
X124450000Y-87102000D01*
X124958000Y-87102000D01*
X124958000Y-87122000D01*
X127196000Y-87122000D01*
X127196000Y-87102000D01*
X127704000Y-87102000D01*
X127704000Y-87122000D01*
X129234514Y-87122000D01*
X129489082Y-86795875D01*
X129467742Y-86725500D01*
X129302065Y-86344357D01*
X129142938Y-86114923D01*
X129221244Y-86019507D01*
X129418101Y-85651214D01*
X129539325Y-85251593D01*
X129574623Y-84893200D01*
X131373856Y-84893200D01*
X131373856Y-85794800D01*
X131403165Y-86092380D01*
X131489966Y-86378524D01*
X131630923Y-86642236D01*
X131820619Y-86873381D01*
X132014979Y-87032888D01*
X131969158Y-87051066D01*
X131914038Y-87080528D01*
X131868327Y-87487117D01*
X132922000Y-88540790D01*
X133975673Y-87487117D01*
X133955191Y-87304938D01*
X134098380Y-87290835D01*
X134384524Y-87204034D01*
X134648236Y-87063077D01*
X134777773Y-86956769D01*
X134976855Y-87089791D01*
X135335372Y-87238294D01*
X135715972Y-87314000D01*
X136104028Y-87314000D01*
X136484628Y-87238294D01*
X136843145Y-87089791D01*
X137165802Y-86874199D01*
X137440199Y-86599802D01*
X137655791Y-86277145D01*
X137804294Y-85918628D01*
X137880000Y-85538028D01*
X137880000Y-85149972D01*
X137804294Y-84769372D01*
X137655791Y-84410855D01*
X137440199Y-84088198D01*
X137165802Y-83813801D01*
X136843145Y-83598209D01*
X136484628Y-83449706D01*
X136104028Y-83374000D01*
X135715972Y-83374000D01*
X135335372Y-83449706D01*
X134976855Y-83598209D01*
X134777773Y-83731231D01*
X134648236Y-83624923D01*
X134384524Y-83483966D01*
X134098380Y-83397165D01*
X133800800Y-83367856D01*
X132899200Y-83367856D01*
X132601620Y-83397165D01*
X132315476Y-83483966D01*
X132051764Y-83624923D01*
X131820619Y-83814619D01*
X131630923Y-84045764D01*
X131489966Y-84309476D01*
X131403165Y-84595620D01*
X131373856Y-84893200D01*
X129574623Y-84893200D01*
X129580257Y-84836000D01*
X129539325Y-84420407D01*
X129418101Y-84020786D01*
X129221244Y-83652493D01*
X129150261Y-83566000D01*
X129221244Y-83479507D01*
X129418101Y-83111214D01*
X129539325Y-82711593D01*
X129580257Y-82296000D01*
X129539325Y-81880407D01*
X129418101Y-81480786D01*
X129221244Y-81112493D01*
X129150261Y-81026000D01*
X129221244Y-80939507D01*
X129418101Y-80571214D01*
X129496088Y-80314123D01*
X131280000Y-80314123D01*
X131280000Y-80721877D01*
X131359549Y-81121797D01*
X131515590Y-81498513D01*
X131742126Y-81837548D01*
X132030452Y-82125874D01*
X132369487Y-82352410D01*
X132746203Y-82508451D01*
X133146123Y-82588000D01*
X133553877Y-82588000D01*
X133953797Y-82508451D01*
X134330513Y-82352410D01*
X134669548Y-82125874D01*
X134957874Y-81837548D01*
X135184410Y-81498513D01*
X135340451Y-81121797D01*
X135420000Y-80721877D01*
X135420000Y-80314123D01*
X135852000Y-80314123D01*
X135852000Y-80721877D01*
X135931549Y-81121797D01*
X136087590Y-81498513D01*
X136314126Y-81837548D01*
X136602452Y-82125874D01*
X136941487Y-82352410D01*
X137318203Y-82508451D01*
X137718123Y-82588000D01*
X138125877Y-82588000D01*
X138525797Y-82508451D01*
X138902513Y-82352410D01*
X139241548Y-82125874D01*
X139529874Y-81837548D01*
X139756410Y-81498513D01*
X139912451Y-81121797D01*
X139992000Y-80721877D01*
X139992000Y-80314123D01*
X139912451Y-79914203D01*
X139756410Y-79537487D01*
X139529874Y-79198452D01*
X139241548Y-78910126D01*
X138902513Y-78683590D01*
X138525797Y-78527549D01*
X138125877Y-78448000D01*
X137718123Y-78448000D01*
X137318203Y-78527549D01*
X136941487Y-78683590D01*
X136602452Y-78910126D01*
X136314126Y-79198452D01*
X136087590Y-79537487D01*
X135931549Y-79914203D01*
X135852000Y-80314123D01*
X135420000Y-80314123D01*
X135340451Y-79914203D01*
X135184410Y-79537487D01*
X134957874Y-79198452D01*
X134669548Y-78910126D01*
X134330513Y-78683590D01*
X133953797Y-78527549D01*
X133553877Y-78448000D01*
X133146123Y-78448000D01*
X132746203Y-78527549D01*
X132369487Y-78683590D01*
X132030452Y-78910126D01*
X131742126Y-79198452D01*
X131515590Y-79537487D01*
X131359549Y-79914203D01*
X131280000Y-80314123D01*
X129496088Y-80314123D01*
X129539325Y-80171593D01*
X129580257Y-79756000D01*
X129539325Y-79340407D01*
X129418101Y-78940786D01*
X129221244Y-78572493D01*
X129150261Y-78486000D01*
X129221244Y-78399507D01*
X129418101Y-78031214D01*
X129539325Y-77631593D01*
X129580257Y-77216000D01*
X129539325Y-76800407D01*
X129418101Y-76400786D01*
X129221244Y-76032493D01*
X129150261Y-75946000D01*
X129221244Y-75859507D01*
X129418101Y-75491214D01*
X129539325Y-75091593D01*
X129580257Y-74676000D01*
X129539325Y-74260407D01*
X129418101Y-73860786D01*
X129221244Y-73492493D01*
X129150261Y-73406000D01*
X129221244Y-73319507D01*
X129418101Y-72951214D01*
X129539325Y-72551593D01*
X129580257Y-72136000D01*
X129539325Y-71720407D01*
X129418101Y-71320786D01*
X129221244Y-70952493D01*
X129150261Y-70866000D01*
X129221244Y-70779507D01*
X129418101Y-70411214D01*
X129539325Y-70011593D01*
X129580257Y-69596000D01*
X129539325Y-69180407D01*
X129418101Y-68780786D01*
X129221244Y-68412493D01*
X129150261Y-68326000D01*
X129221244Y-68239507D01*
X129418101Y-67871214D01*
X129539325Y-67471593D01*
X129580257Y-67056000D01*
X129539325Y-66640407D01*
X129418101Y-66240786D01*
X129341942Y-66098302D01*
X129361075Y-66074988D01*
X129479003Y-65854359D01*
X129551623Y-65614963D01*
X129576144Y-65366000D01*
X129576144Y-63666000D01*
X129551623Y-63417037D01*
X129479003Y-63177641D01*
X129361075Y-62957012D01*
X129280638Y-62859000D01*
X131340629Y-62859000D01*
X131267152Y-62996466D01*
X131154505Y-63367813D01*
X131116469Y-63754000D01*
X131154505Y-64140187D01*
X131267152Y-64511534D01*
X131450080Y-64853768D01*
X131696260Y-65153740D01*
X131929976Y-65345545D01*
X131776452Y-65448126D01*
X131488126Y-65736452D01*
X131261590Y-66075487D01*
X131105549Y-66452203D01*
X131026000Y-66852123D01*
X131026000Y-67259877D01*
X131105549Y-67659797D01*
X131261590Y-68036513D01*
X131488126Y-68375548D01*
X131776452Y-68663874D01*
X131983095Y-68801949D01*
X131879207Y-68887207D01*
X131620531Y-69202406D01*
X131428317Y-69562013D01*
X131309952Y-69952209D01*
X131269985Y-70358000D01*
X131309952Y-70763791D01*
X131428317Y-71153987D01*
X131620531Y-71513594D01*
X131879207Y-71828793D01*
X132194406Y-72087469D01*
X132554013Y-72279683D01*
X132944209Y-72398048D01*
X133248316Y-72428000D01*
X133451684Y-72428000D01*
X133755791Y-72398048D01*
X134145987Y-72279683D01*
X134505594Y-72087469D01*
X134820793Y-71828793D01*
X135079469Y-71513594D01*
X135271683Y-71153987D01*
X135390048Y-70763791D01*
X135430015Y-70358000D01*
X135841985Y-70358000D01*
X135881952Y-70763791D01*
X136000317Y-71153987D01*
X136192531Y-71513594D01*
X136451207Y-71828793D01*
X136766406Y-72087469D01*
X137126013Y-72279683D01*
X137516209Y-72398048D01*
X137820316Y-72428000D01*
X138023684Y-72428000D01*
X138327791Y-72398048D01*
X138717987Y-72279683D01*
X139077594Y-72087469D01*
X139392793Y-71828793D01*
X139651469Y-71513594D01*
X139843683Y-71153987D01*
X139962048Y-70763791D01*
X140002015Y-70358000D01*
X139962048Y-69952209D01*
X139843683Y-69562013D01*
X139651469Y-69202406D01*
X139392793Y-68887207D01*
X139127152Y-68669202D01*
X139149673Y-68468883D01*
X138096000Y-67415210D01*
X137042327Y-68468883D01*
X137043617Y-68480359D01*
X136766406Y-68628531D01*
X136451207Y-68887207D01*
X136192531Y-69202406D01*
X136000317Y-69562013D01*
X135881952Y-69952209D01*
X135841985Y-70358000D01*
X135430015Y-70358000D01*
X135390048Y-69952209D01*
X135271683Y-69562013D01*
X135079469Y-69202406D01*
X134820793Y-68887207D01*
X134505594Y-68628531D01*
X134469946Y-68609476D01*
X134703874Y-68375548D01*
X134930410Y-68036513D01*
X135086451Y-67659797D01*
X135166000Y-67259877D01*
X135166000Y-67228755D01*
X136023170Y-67228755D01*
X136096702Y-67629824D01*
X136247066Y-68008842D01*
X136276528Y-68063962D01*
X136683117Y-68109673D01*
X137736790Y-67056000D01*
X138455210Y-67056000D01*
X139508883Y-68109673D01*
X139915472Y-68063962D01*
X140077156Y-67689633D01*
X140162704Y-67290954D01*
X140168830Y-66883245D01*
X140153935Y-66802000D01*
X141379743Y-66802000D01*
X141420675Y-67217593D01*
X141541899Y-67617214D01*
X141738756Y-67985507D01*
X141809739Y-68072000D01*
X141738756Y-68158493D01*
X141541899Y-68526786D01*
X141420675Y-68926407D01*
X141379743Y-69342000D01*
X141420675Y-69757593D01*
X141541899Y-70157214D01*
X141738756Y-70525507D01*
X141809739Y-70612000D01*
X141738756Y-70698493D01*
X141541899Y-71066786D01*
X141420675Y-71466407D01*
X141379743Y-71882000D01*
X141420675Y-72297593D01*
X141541899Y-72697214D01*
X141738756Y-73065507D01*
X141809739Y-73152000D01*
X141738756Y-73238493D01*
X141541899Y-73606786D01*
X141420675Y-74006407D01*
X141379743Y-74422000D01*
X141420675Y-74837593D01*
X141541899Y-75237214D01*
X141738756Y-75605507D01*
X141809739Y-75692000D01*
X141738756Y-75778493D01*
X141541899Y-76146786D01*
X141420675Y-76546407D01*
X141379743Y-76962000D01*
X141420675Y-77377593D01*
X141541899Y-77777214D01*
X141738756Y-78145507D01*
X141809739Y-78232000D01*
X141738756Y-78318493D01*
X141541899Y-78686786D01*
X141420675Y-79086407D01*
X141379743Y-79502000D01*
X141420675Y-79917593D01*
X141541899Y-80317214D01*
X141738756Y-80685507D01*
X141809739Y-80772000D01*
X141738756Y-80858493D01*
X141541899Y-81226786D01*
X141420675Y-81626407D01*
X141379743Y-82042000D01*
X141420675Y-82457593D01*
X141541899Y-82857214D01*
X141738756Y-83225507D01*
X141809739Y-83312000D01*
X141738756Y-83398493D01*
X141541899Y-83766786D01*
X141420675Y-84166407D01*
X141379743Y-84582000D01*
X141420675Y-84997593D01*
X141541899Y-85397214D01*
X141738756Y-85765507D01*
X141809739Y-85852000D01*
X141738756Y-85938493D01*
X141541899Y-86306786D01*
X141420675Y-86706407D01*
X141379743Y-87122000D01*
X141420675Y-87537593D01*
X141541899Y-87937214D01*
X141738756Y-88305507D01*
X141809739Y-88392000D01*
X141738756Y-88478493D01*
X141541899Y-88846786D01*
X141420675Y-89246407D01*
X141379743Y-89662000D01*
X141420675Y-90077593D01*
X141541899Y-90477214D01*
X141738756Y-90845507D01*
X142003681Y-91168319D01*
X142326493Y-91433244D01*
X142694786Y-91630101D01*
X143094407Y-91751325D01*
X143405858Y-91782000D01*
X143614142Y-91782000D01*
X143925593Y-91751325D01*
X144325214Y-91630101D01*
X144693507Y-91433244D01*
X145016319Y-91168319D01*
X145281244Y-90845507D01*
X145478101Y-90477214D01*
X145599325Y-90077593D01*
X145640257Y-89662000D01*
X145599325Y-89246407D01*
X145478101Y-88846786D01*
X145281244Y-88478493D01*
X145210261Y-88392000D01*
X145281244Y-88305507D01*
X145478101Y-87937214D01*
X145599325Y-87537593D01*
X145640257Y-87122000D01*
X145599325Y-86706407D01*
X145478101Y-86306786D01*
X145281244Y-85938493D01*
X145210261Y-85852000D01*
X145281244Y-85765507D01*
X145478101Y-85397214D01*
X145599325Y-84997593D01*
X145640257Y-84582000D01*
X145599325Y-84166407D01*
X145478101Y-83766786D01*
X145281244Y-83398493D01*
X145210261Y-83312000D01*
X145281244Y-83225507D01*
X145478101Y-82857214D01*
X145599325Y-82457593D01*
X145640257Y-82042000D01*
X145599325Y-81626407D01*
X145478101Y-81226786D01*
X145281244Y-80858493D01*
X145210261Y-80772000D01*
X145281244Y-80685507D01*
X145478101Y-80317214D01*
X145599325Y-79917593D01*
X145640257Y-79502000D01*
X145599325Y-79086407D01*
X145478101Y-78686786D01*
X145281244Y-78318493D01*
X145210261Y-78232000D01*
X145281244Y-78145507D01*
X145478101Y-77777214D01*
X145599325Y-77377593D01*
X145640257Y-76962000D01*
X145599325Y-76546407D01*
X145478101Y-76146786D01*
X145281244Y-75778493D01*
X145210261Y-75692000D01*
X145281244Y-75605507D01*
X145478101Y-75237214D01*
X145599325Y-74837593D01*
X145640257Y-74422000D01*
X145599325Y-74006407D01*
X145478101Y-73606786D01*
X145281244Y-73238493D01*
X145210261Y-73152000D01*
X145281244Y-73065507D01*
X145478101Y-72697214D01*
X145599325Y-72297593D01*
X145640257Y-71882000D01*
X145599325Y-71466407D01*
X145478101Y-71066786D01*
X145281244Y-70698493D01*
X145210261Y-70612000D01*
X145281244Y-70525507D01*
X145478101Y-70157214D01*
X145599325Y-69757593D01*
X145640257Y-69342000D01*
X145599325Y-68926407D01*
X145478101Y-68526786D01*
X145281244Y-68158493D01*
X145210261Y-68072000D01*
X145281244Y-67985507D01*
X145478101Y-67617214D01*
X145599325Y-67217593D01*
X145640257Y-66802000D01*
X145599325Y-66386407D01*
X145478101Y-65986786D01*
X145401942Y-65844302D01*
X145421075Y-65820988D01*
X145539003Y-65600359D01*
X145611623Y-65360963D01*
X145636144Y-65112000D01*
X145636144Y-63412000D01*
X145611623Y-63163037D01*
X145539003Y-62923641D01*
X145421075Y-62703012D01*
X145262370Y-62509630D01*
X145068988Y-62350925D01*
X144848359Y-62232997D01*
X144608963Y-62160377D01*
X144360000Y-62135856D01*
X142660000Y-62135856D01*
X142411037Y-62160377D01*
X142171641Y-62232997D01*
X141951012Y-62350925D01*
X141757630Y-62509630D01*
X141598925Y-62703012D01*
X141480997Y-62923641D01*
X141408377Y-63163037D01*
X141383856Y-63412000D01*
X141383856Y-65112000D01*
X141408377Y-65360963D01*
X141480997Y-65600359D01*
X141598925Y-65820988D01*
X141618058Y-65844302D01*
X141541899Y-65986786D01*
X141420675Y-66386407D01*
X141379743Y-66802000D01*
X140153935Y-66802000D01*
X140095298Y-66482176D01*
X139944934Y-66103158D01*
X139915472Y-66048038D01*
X139508883Y-66002327D01*
X138455210Y-67056000D01*
X137736790Y-67056000D01*
X136683117Y-66002327D01*
X136276528Y-66048038D01*
X136114844Y-66422367D01*
X136029296Y-66821046D01*
X136023170Y-67228755D01*
X135166000Y-67228755D01*
X135166000Y-66852123D01*
X135086451Y-66452203D01*
X134930410Y-66075487D01*
X134703874Y-65736452D01*
X134415548Y-65448126D01*
X134262024Y-65345545D01*
X134495740Y-65153740D01*
X134741920Y-64853768D01*
X134924848Y-64511534D01*
X135037495Y-64140187D01*
X135075531Y-63754000D01*
X135037495Y-63367813D01*
X134924848Y-62996466D01*
X134817696Y-62795999D01*
X134998560Y-62741135D01*
X135284335Y-62588385D01*
X135534819Y-62382819D01*
X135586336Y-62320045D01*
X135599551Y-62306830D01*
X135797593Y-62287325D01*
X136197214Y-62166101D01*
X136565507Y-61969244D01*
X136888319Y-61704319D01*
X137033000Y-61528025D01*
X137177681Y-61704319D01*
X137445628Y-61924217D01*
X137242855Y-62008209D01*
X136920198Y-62223801D01*
X136645801Y-62498198D01*
X136430209Y-62820855D01*
X136281706Y-63179372D01*
X136206000Y-63559972D01*
X136206000Y-63948028D01*
X136281706Y-64328628D01*
X136430209Y-64687145D01*
X136645801Y-65009802D01*
X136920198Y-65284199D01*
X137071326Y-65385179D01*
X137042327Y-65643117D01*
X138096000Y-66696790D01*
X139149673Y-65643117D01*
X139131854Y-65484618D01*
X139431802Y-65284199D01*
X139706199Y-65009802D01*
X139921791Y-64687145D01*
X140070294Y-64328628D01*
X140146000Y-63948028D01*
X140146000Y-63559972D01*
X140070294Y-63179372D01*
X139921791Y-62820855D01*
X139706199Y-62498198D01*
X139431802Y-62223801D01*
X139393459Y-62198181D01*
X139499214Y-62166101D01*
X139867507Y-61969244D01*
X140190319Y-61704319D01*
X140455244Y-61381507D01*
X140652101Y-61013214D01*
X140773325Y-60613593D01*
X140814257Y-60198000D01*
X140773325Y-59782407D01*
X140652101Y-59382786D01*
X140547880Y-59187802D01*
X142260000Y-59187802D01*
X142260000Y-59684198D01*
X142356842Y-60171057D01*
X142546805Y-60629668D01*
X142822588Y-61042406D01*
X143173594Y-61393412D01*
X143586332Y-61669195D01*
X144044943Y-61859158D01*
X144531802Y-61956000D01*
X145028198Y-61956000D01*
X145515057Y-61859158D01*
X145973668Y-61669195D01*
X146386406Y-61393412D01*
X146737412Y-61042406D01*
X147013195Y-60629668D01*
X147203158Y-60171057D01*
X147300000Y-59684198D01*
X147300000Y-59187802D01*
X147203158Y-58700943D01*
X147013195Y-58242332D01*
X146737412Y-57829594D01*
X146386406Y-57478588D01*
X145973668Y-57202805D01*
X145515057Y-57012842D01*
X145028198Y-56916000D01*
X144531802Y-56916000D01*
X144044943Y-57012842D01*
X143586332Y-57202805D01*
X143173594Y-57478588D01*
X142822588Y-57829594D01*
X142546805Y-58242332D01*
X142356842Y-58700943D01*
X142260000Y-59187802D01*
X140547880Y-59187802D01*
X140455244Y-59014493D01*
X140376938Y-58919077D01*
X140536065Y-58689643D01*
X140701742Y-58308500D01*
X140723082Y-58238125D01*
X140468514Y-57912000D01*
X138938000Y-57912000D01*
X138938000Y-57932000D01*
X138430000Y-57932000D01*
X138430000Y-57912000D01*
X135636000Y-57912000D01*
X135636000Y-57932000D01*
X135128000Y-57932000D01*
X135128000Y-57912000D01*
X133597486Y-57912000D01*
X133342918Y-58238125D01*
X133364258Y-58308500D01*
X133529935Y-58689643D01*
X133689062Y-58919077D01*
X133610756Y-59014493D01*
X133413899Y-59382786D01*
X133357411Y-59569000D01*
X123524807Y-59569000D01*
X123444000Y-59561041D01*
X123363193Y-59569000D01*
X123363191Y-59569000D01*
X123121524Y-59592802D01*
X122811440Y-59686865D01*
X122678414Y-59757969D01*
X122525664Y-59839615D01*
X122439147Y-59910618D01*
X122275181Y-60045181D01*
X122223664Y-60107955D01*
X121746619Y-60585000D01*
X110384725Y-60585000D01*
X110303918Y-60577041D01*
X110223111Y-60585000D01*
X110223110Y-60585000D01*
X109981443Y-60608802D01*
X109671359Y-60702865D01*
X109385584Y-60855615D01*
X109135100Y-61061181D01*
X109083587Y-61123950D01*
X107859950Y-62347588D01*
X107797182Y-62399100D01*
X107745669Y-62461869D01*
X107591615Y-62649584D01*
X107530657Y-62763630D01*
X107450428Y-62913726D01*
X107241214Y-62801899D01*
X106841593Y-62680675D01*
X106530142Y-62650000D01*
X106321858Y-62650000D01*
X106010407Y-62680675D01*
X105610786Y-62801899D01*
X105242493Y-62998756D01*
X104919681Y-63263681D01*
X104654756Y-63586493D01*
X104457899Y-63954786D01*
X104336675Y-64354407D01*
X104295743Y-64770000D01*
X104336675Y-65185593D01*
X104457899Y-65585214D01*
X104634174Y-65915000D01*
X103954517Y-65915000D01*
X103886000Y-65908252D01*
X103841874Y-65912598D01*
X103873003Y-65854359D01*
X103945623Y-65614963D01*
X103970144Y-65366000D01*
X103970144Y-63666000D01*
X103945623Y-63417037D01*
X103873003Y-63177641D01*
X103755075Y-62957012D01*
X103596370Y-62763630D01*
X103402988Y-62604925D01*
X103182359Y-62486997D01*
X102942963Y-62414377D01*
X102694000Y-62389856D01*
X100994000Y-62389856D01*
X100745037Y-62414377D01*
X100505641Y-62486997D01*
X100452000Y-62515669D01*
X100398359Y-62486997D01*
X100158963Y-62414377D01*
X99910000Y-62389856D01*
X98210000Y-62389856D01*
X98069000Y-62403743D01*
X98069000Y-58240268D01*
X103150989Y-58240268D01*
X103288462Y-58632171D01*
X103515312Y-58987078D01*
X103807042Y-59290909D01*
X104152441Y-59531988D01*
X104538236Y-59701051D01*
X104949600Y-59791600D01*
X105610000Y-59791600D01*
X105610000Y-57912000D01*
X106118000Y-57912000D01*
X106118000Y-59791600D01*
X106778400Y-59791600D01*
X107189764Y-59701051D01*
X107575559Y-59531988D01*
X107920958Y-59290909D01*
X108212688Y-58987078D01*
X108439538Y-58632171D01*
X108577011Y-58240268D01*
X115650989Y-58240268D01*
X115788462Y-58632171D01*
X116015312Y-58987078D01*
X116307042Y-59290909D01*
X116652441Y-59531988D01*
X117038236Y-59701051D01*
X117449600Y-59791600D01*
X118110000Y-59791600D01*
X118110000Y-57912000D01*
X118618000Y-57912000D01*
X118618000Y-59791600D01*
X119278400Y-59791600D01*
X119689764Y-59701051D01*
X120075559Y-59531988D01*
X120420958Y-59290909D01*
X120712688Y-58987078D01*
X120939538Y-58632171D01*
X121077011Y-58240268D01*
X120822650Y-57912000D01*
X118618000Y-57912000D01*
X118110000Y-57912000D01*
X115905350Y-57912000D01*
X115650989Y-58240268D01*
X108577011Y-58240268D01*
X108322650Y-57912000D01*
X106118000Y-57912000D01*
X105610000Y-57912000D01*
X103405350Y-57912000D01*
X103150989Y-58240268D01*
X98069000Y-58240268D01*
X98069000Y-55391335D01*
X98160842Y-55853057D01*
X98350805Y-56311668D01*
X98626588Y-56724406D01*
X98977594Y-57075412D01*
X99390332Y-57351195D01*
X99848943Y-57541158D01*
X100335802Y-57638000D01*
X100832198Y-57638000D01*
X101319057Y-57541158D01*
X101777668Y-57351195D01*
X102189927Y-57075732D01*
X103150989Y-57075732D01*
X103405350Y-57404000D01*
X105610000Y-57404000D01*
X105610000Y-55524400D01*
X106118000Y-55524400D01*
X106118000Y-57404000D01*
X108322650Y-57404000D01*
X108577011Y-57075732D01*
X115650989Y-57075732D01*
X115905350Y-57404000D01*
X118110000Y-57404000D01*
X118110000Y-55524400D01*
X118618000Y-55524400D01*
X118618000Y-57404000D01*
X120822650Y-57404000D01*
X121077011Y-57075732D01*
X120939538Y-56683829D01*
X120712688Y-56328922D01*
X120420958Y-56025091D01*
X120075559Y-55784012D01*
X119689764Y-55614949D01*
X119278400Y-55524400D01*
X118618000Y-55524400D01*
X118110000Y-55524400D01*
X117449600Y-55524400D01*
X117038236Y-55614949D01*
X116652441Y-55784012D01*
X116307042Y-56025091D01*
X116015312Y-56328922D01*
X115788462Y-56683829D01*
X115650989Y-57075732D01*
X108577011Y-57075732D01*
X108439538Y-56683829D01*
X108212688Y-56328922D01*
X107920958Y-56025091D01*
X107575559Y-55784012D01*
X107189764Y-55614949D01*
X106778400Y-55524400D01*
X106118000Y-55524400D01*
X105610000Y-55524400D01*
X104949600Y-55524400D01*
X104538236Y-55614949D01*
X104152441Y-55784012D01*
X103807042Y-56025091D01*
X103515312Y-56328922D01*
X103288462Y-56683829D01*
X103150989Y-57075732D01*
X102189927Y-57075732D01*
X102190406Y-57075412D01*
X102541412Y-56724406D01*
X102817195Y-56311668D01*
X103007158Y-55853057D01*
X103104000Y-55366198D01*
X103104000Y-54869802D01*
X103007158Y-54382943D01*
X102817195Y-53924332D01*
X102541412Y-53511594D01*
X102190406Y-53160588D01*
X101777668Y-52884805D01*
X101319057Y-52694842D01*
X101133840Y-52658000D01*
X103059677Y-52658000D01*
X103100872Y-53076259D01*
X103222873Y-53478444D01*
X103420993Y-53849100D01*
X103687618Y-54173982D01*
X104012500Y-54440607D01*
X104383156Y-54638727D01*
X104785341Y-54760728D01*
X105098789Y-54791600D01*
X106629211Y-54791600D01*
X106942659Y-54760728D01*
X107344844Y-54638727D01*
X107715500Y-54440607D01*
X108040382Y-54173982D01*
X108307007Y-53849100D01*
X108505127Y-53478444D01*
X108627128Y-53076259D01*
X108668323Y-52658000D01*
X115559677Y-52658000D01*
X115600872Y-53076259D01*
X115722873Y-53478444D01*
X115920993Y-53849100D01*
X116187618Y-54173982D01*
X116512500Y-54440607D01*
X116883156Y-54638727D01*
X117285341Y-54760728D01*
X117598789Y-54791600D01*
X119129211Y-54791600D01*
X119442659Y-54760728D01*
X119844844Y-54638727D01*
X120215500Y-54440607D01*
X120540382Y-54173982D01*
X120807007Y-53849100D01*
X121005127Y-53478444D01*
X121058650Y-53302000D01*
X121621856Y-53302000D01*
X121621856Y-54902000D01*
X121646377Y-55150963D01*
X121718997Y-55390359D01*
X121836925Y-55610988D01*
X121995630Y-55804370D01*
X122189012Y-55963075D01*
X122409641Y-56081003D01*
X122649037Y-56153623D01*
X122898000Y-56178144D01*
X124498000Y-56178144D01*
X124746963Y-56153623D01*
X124986359Y-56081003D01*
X125206988Y-55963075D01*
X125400370Y-55804370D01*
X125559075Y-55610988D01*
X125610443Y-55514883D01*
X129144327Y-55514883D01*
X129190038Y-55921472D01*
X129564367Y-56083156D01*
X129963046Y-56168704D01*
X130370755Y-56174830D01*
X130771824Y-56101298D01*
X131150842Y-55950934D01*
X131205962Y-55921472D01*
X131251673Y-55514883D01*
X130198000Y-54461210D01*
X129144327Y-55514883D01*
X125610443Y-55514883D01*
X125677003Y-55390359D01*
X125749623Y-55150963D01*
X125774144Y-54902000D01*
X125774144Y-54274755D01*
X128125170Y-54274755D01*
X128198702Y-54675824D01*
X128349066Y-55054842D01*
X128378528Y-55109962D01*
X128785117Y-55155673D01*
X129838790Y-54102000D01*
X130557210Y-54102000D01*
X131610883Y-55155673D01*
X132017472Y-55109962D01*
X132179156Y-54735633D01*
X132264704Y-54336954D01*
X132265740Y-54268000D01*
X133255856Y-54268000D01*
X133255856Y-55968000D01*
X133280377Y-56216963D01*
X133352997Y-56456359D01*
X133470925Y-56676988D01*
X133495114Y-56706463D01*
X133364258Y-57007500D01*
X133342918Y-57077875D01*
X133597486Y-57404000D01*
X135128000Y-57404000D01*
X135128000Y-57384000D01*
X135636000Y-57384000D01*
X135636000Y-57404000D01*
X138430000Y-57404000D01*
X138430000Y-57384000D01*
X138938000Y-57384000D01*
X138938000Y-57404000D01*
X140468514Y-57404000D01*
X140723082Y-57077875D01*
X140701742Y-57007500D01*
X140570886Y-56706463D01*
X140595075Y-56676988D01*
X140713003Y-56456359D01*
X140785623Y-56216963D01*
X140810144Y-55968000D01*
X140810144Y-54268000D01*
X140785623Y-54019037D01*
X140713003Y-53779641D01*
X140595075Y-53559012D01*
X140436370Y-53365630D01*
X140242988Y-53206925D01*
X140022359Y-53088997D01*
X139782963Y-53016377D01*
X139534000Y-52991856D01*
X137834000Y-52991856D01*
X137585037Y-53016377D01*
X137345641Y-53088997D01*
X137125012Y-53206925D01*
X137033000Y-53282438D01*
X136940988Y-53206925D01*
X136720359Y-53088997D01*
X136480963Y-53016377D01*
X136232000Y-52991856D01*
X134532000Y-52991856D01*
X134283037Y-53016377D01*
X134043641Y-53088997D01*
X133823012Y-53206925D01*
X133629630Y-53365630D01*
X133470925Y-53559012D01*
X133352997Y-53779641D01*
X133280377Y-54019037D01*
X133255856Y-54268000D01*
X132265740Y-54268000D01*
X132270830Y-53929245D01*
X132197298Y-53528176D01*
X132046934Y-53149158D01*
X132017472Y-53094038D01*
X131610883Y-53048327D01*
X130557210Y-54102000D01*
X129838790Y-54102000D01*
X128785117Y-53048327D01*
X128378528Y-53094038D01*
X128216844Y-53468367D01*
X128131296Y-53867046D01*
X128125170Y-54274755D01*
X125774144Y-54274755D01*
X125774144Y-53302000D01*
X125749623Y-53053037D01*
X125677003Y-52813641D01*
X125610444Y-52689117D01*
X129144327Y-52689117D01*
X130198000Y-53742790D01*
X131251673Y-52689117D01*
X131205962Y-52282528D01*
X130831633Y-52120844D01*
X130432954Y-52035296D01*
X130025245Y-52029170D01*
X129624176Y-52102702D01*
X129245158Y-52253066D01*
X129190038Y-52282528D01*
X129144327Y-52689117D01*
X125610444Y-52689117D01*
X125559075Y-52593012D01*
X125400370Y-52399630D01*
X125206988Y-52240925D01*
X124986359Y-52122997D01*
X124746963Y-52050377D01*
X124498000Y-52025856D01*
X122898000Y-52025856D01*
X122649037Y-52050377D01*
X122409641Y-52122997D01*
X122189012Y-52240925D01*
X121995630Y-52399630D01*
X121836925Y-52593012D01*
X121718997Y-52813641D01*
X121646377Y-53053037D01*
X121621856Y-53302000D01*
X121058650Y-53302000D01*
X121127128Y-53076259D01*
X121168323Y-52658000D01*
X121127128Y-52239741D01*
X121005127Y-51837556D01*
X120807007Y-51466900D01*
X120540382Y-51142018D01*
X120215500Y-50875393D01*
X119844844Y-50677273D01*
X119442659Y-50555272D01*
X119129211Y-50524400D01*
X117598789Y-50524400D01*
X117285341Y-50555272D01*
X116883156Y-50677273D01*
X116512500Y-50875393D01*
X116187618Y-51142018D01*
X115920993Y-51466900D01*
X115722873Y-51837556D01*
X115600872Y-52239741D01*
X115559677Y-52658000D01*
X108668323Y-52658000D01*
X108627128Y-52239741D01*
X108505127Y-51837556D01*
X108307007Y-51466900D01*
X108040382Y-51142018D01*
X107715500Y-50875393D01*
X107344844Y-50677273D01*
X106942659Y-50555272D01*
X106629211Y-50524400D01*
X105098789Y-50524400D01*
X104785341Y-50555272D01*
X104383156Y-50677273D01*
X104012500Y-50875393D01*
X103687618Y-51142018D01*
X103420993Y-51466900D01*
X103222873Y-51837556D01*
X103100872Y-52239741D01*
X103059677Y-52658000D01*
X101133840Y-52658000D01*
X100832198Y-52598000D01*
X100335802Y-52598000D01*
X99848943Y-52694842D01*
X99390332Y-52884805D01*
X98977594Y-53160588D01*
X98626588Y-53511594D01*
X98350805Y-53924332D01*
X98160842Y-54382943D01*
X98069000Y-54844665D01*
X98069000Y-49301000D01*
X129965358Y-49301000D01*
X129902000Y-49619519D01*
G36*
X116694000Y-95160481D02*
G01*
X116758178Y-95483121D01*
X116884066Y-95787041D01*
X116969001Y-95914155D01*
X116969001Y-96126775D01*
X116903500Y-96128000D01*
X116586000Y-96445500D01*
X116586000Y-98044000D01*
X116606000Y-98044000D01*
X116606000Y-98552000D01*
X116586000Y-98552000D01*
X116586000Y-98572000D01*
X116078000Y-98572000D01*
X116078000Y-98552000D01*
X116058000Y-98552000D01*
X116058000Y-98044000D01*
X116078000Y-98044000D01*
X116078000Y-96445500D01*
X115760500Y-96128000D01*
X115441000Y-96122023D01*
X115441000Y-95539704D01*
X115721791Y-95512048D01*
X116111987Y-95393683D01*
X116471594Y-95201469D01*
X116694000Y-95018946D01*
X116694000Y-95160481D01*
X116694000Y-95160481D01*
G37*
X116694000Y-95160481D02*
X116758178Y-95483121D01*
X116884066Y-95787041D01*
X116969001Y-95914155D01*
X116969001Y-96126775D01*
X116903500Y-96128000D01*
X116586000Y-96445500D01*
X116586000Y-98044000D01*
X116606000Y-98044000D01*
X116606000Y-98552000D01*
X116586000Y-98552000D01*
X116586000Y-98572000D01*
X116078000Y-98572000D01*
X116078000Y-98552000D01*
X116058000Y-98552000D01*
X116058000Y-98044000D01*
X116078000Y-98044000D01*
X116078000Y-96445500D01*
X115760500Y-96128000D01*
X115441000Y-96122023D01*
X115441000Y-95539704D01*
X115721791Y-95512048D01*
X116111987Y-95393683D01*
X116471594Y-95201469D01*
X116694000Y-95018946D01*
X116694000Y-95160481D01*
G36*
X116461001Y-80194171D02*
G01*
X115413173Y-81242000D01*
X115112123Y-81242000D01*
X114712203Y-81321549D01*
X114335487Y-81477590D01*
X113996452Y-81704126D01*
X113708126Y-81992452D01*
X113481590Y-82331487D01*
X113325549Y-82708203D01*
X113246000Y-83108123D01*
X113246000Y-83515877D01*
X113325549Y-83915797D01*
X113481590Y-84292513D01*
X113708126Y-84631548D01*
X113996452Y-84919874D01*
X114335487Y-85146410D01*
X114712203Y-85302451D01*
X115112123Y-85382000D01*
X115519877Y-85382000D01*
X115919797Y-85302451D01*
X116296513Y-85146410D01*
X116635548Y-84919874D01*
X116923874Y-84631548D01*
X117150410Y-84292513D01*
X117306451Y-83915797D01*
X117386000Y-83515877D01*
X117386000Y-83214827D01*
X118073752Y-82527075D01*
X118173899Y-82857214D01*
X118370756Y-83225507D01*
X118635681Y-83548319D01*
X118958493Y-83813244D01*
X119273593Y-83981669D01*
X119043037Y-84004377D01*
X118803641Y-84076997D01*
X118583012Y-84194925D01*
X118389630Y-84353630D01*
X118230925Y-84547012D01*
X118112997Y-84767641D01*
X118040377Y-85007037D01*
X118015856Y-85256000D01*
X118015856Y-86956000D01*
X118040377Y-87204963D01*
X118112997Y-87444359D01*
X118230925Y-87664988D01*
X118250058Y-87688302D01*
X118173899Y-87830786D01*
X118052675Y-88230407D01*
X118011743Y-88646000D01*
X118052675Y-89061593D01*
X118173899Y-89461214D01*
X118370756Y-89829507D01*
X118441739Y-89916000D01*
X118370756Y-90002493D01*
X118173899Y-90370786D01*
X118052675Y-90770407D01*
X118011743Y-91186000D01*
X118052675Y-91601593D01*
X118173899Y-92001214D01*
X118370756Y-92369507D01*
X118441739Y-92456000D01*
X118370756Y-92542493D01*
X118173899Y-92910786D01*
X118052675Y-93310407D01*
X118048174Y-93356105D01*
X117876879Y-93390178D01*
X117572959Y-93516066D01*
X117378904Y-93645729D01*
X117396015Y-93472000D01*
X117356048Y-93066209D01*
X117237683Y-92676013D01*
X117045469Y-92316406D01*
X116786793Y-92001207D01*
X116471594Y-91742531D01*
X116111987Y-91550317D01*
X115721791Y-91431952D01*
X115417684Y-91402000D01*
X115214316Y-91402000D01*
X114910209Y-91431952D01*
X114520013Y-91550317D01*
X114160406Y-91742531D01*
X113845207Y-92001207D01*
X113586531Y-92316406D01*
X113394317Y-92676013D01*
X113275952Y-93066209D01*
X113235985Y-93472000D01*
X113245596Y-93569577D01*
X113108039Y-93707134D01*
X113054815Y-93750814D01*
X113011135Y-93804038D01*
X113011133Y-93804040D01*
X112880488Y-93963231D01*
X112751283Y-94204959D01*
X112750954Y-94205574D01*
X112673904Y-94459574D01*
X112671186Y-94468533D01*
X112644252Y-94742000D01*
X112651001Y-94810523D01*
X112651000Y-96216571D01*
X112626488Y-96246439D01*
X112589484Y-96315669D01*
X112496953Y-96488782D01*
X112472335Y-96569934D01*
X112408705Y-96612451D01*
X112106451Y-96914705D01*
X111868971Y-97270119D01*
X111705392Y-97665034D01*
X111622000Y-98084274D01*
X111622000Y-98119619D01*
X109932336Y-96429955D01*
X109880819Y-96367181D01*
X109630335Y-96161615D01*
X109344560Y-96008865D01*
X109082750Y-95929446D01*
X109205742Y-95646500D01*
X109227082Y-95576125D01*
X108972514Y-95250000D01*
X107442000Y-95250000D01*
X107442000Y-95270000D01*
X106934000Y-95270000D01*
X106934000Y-95250000D01*
X105403486Y-95250000D01*
X105148918Y-95576125D01*
X105170258Y-95646500D01*
X105335935Y-96027643D01*
X105495062Y-96257077D01*
X105416756Y-96352493D01*
X105219899Y-96720786D01*
X105149696Y-96952215D01*
X105135121Y-96946178D01*
X104812481Y-96882000D01*
X104483519Y-96882000D01*
X104160879Y-96946178D01*
X103856959Y-97072066D01*
X103721989Y-97162250D01*
X103883082Y-96955875D01*
X103861742Y-96885500D01*
X103696065Y-96504357D01*
X103536938Y-96274923D01*
X103615244Y-96179507D01*
X103812101Y-95811214D01*
X103933325Y-95411593D01*
X103974257Y-94996000D01*
X103933325Y-94580407D01*
X103812101Y-94180786D01*
X103615244Y-93812493D01*
X103544261Y-93726000D01*
X103615244Y-93639507D01*
X103812101Y-93271214D01*
X103933325Y-92871593D01*
X103974257Y-92456000D01*
X103960142Y-92312686D01*
X104569962Y-91702866D01*
X104623186Y-91659186D01*
X104670910Y-91601035D01*
X104707590Y-91556340D01*
X104881121Y-91521822D01*
X105185041Y-91395934D01*
X105458563Y-91213173D01*
X105486836Y-91184900D01*
X105487739Y-91186000D01*
X105416756Y-91272493D01*
X105219899Y-91640786D01*
X105098675Y-92040407D01*
X105057743Y-92456000D01*
X105098675Y-92871593D01*
X105219899Y-93271214D01*
X105416756Y-93639507D01*
X105495062Y-93734923D01*
X105335935Y-93964357D01*
X105170258Y-94345500D01*
X105148918Y-94415875D01*
X105403486Y-94742000D01*
X106934000Y-94742000D01*
X106934000Y-94722000D01*
X107442000Y-94722000D01*
X107442000Y-94742000D01*
X108972514Y-94742000D01*
X109227082Y-94415875D01*
X109205742Y-94345500D01*
X109040065Y-93964357D01*
X108880938Y-93734923D01*
X108959244Y-93639507D01*
X109156101Y-93271214D01*
X109277325Y-92871593D01*
X109318257Y-92456000D01*
X109277325Y-92040407D01*
X109156101Y-91640786D01*
X108959244Y-91272493D01*
X108888261Y-91186000D01*
X108959244Y-91099507D01*
X109156101Y-90731214D01*
X109277325Y-90331593D01*
X109318257Y-89916000D01*
X109277325Y-89500407D01*
X109156101Y-89100786D01*
X108959244Y-88732493D01*
X108888261Y-88646000D01*
X108959244Y-88559507D01*
X109156101Y-88191214D01*
X109277325Y-87791593D01*
X109318257Y-87376000D01*
X109277325Y-86960407D01*
X109156101Y-86560786D01*
X109079942Y-86418302D01*
X109099075Y-86394988D01*
X109217003Y-86174359D01*
X109289623Y-85934963D01*
X109314144Y-85686000D01*
X109314144Y-83986000D01*
X109289623Y-83737037D01*
X109217003Y-83497641D01*
X109099075Y-83277012D01*
X108940370Y-83083630D01*
X108746988Y-82924925D01*
X108526359Y-82806997D01*
X108286963Y-82734377D01*
X108038000Y-82709856D01*
X106338000Y-82709856D01*
X106089037Y-82734377D01*
X105849641Y-82806997D01*
X105629012Y-82924925D01*
X105435630Y-83083630D01*
X105276925Y-83277012D01*
X105158997Y-83497641D01*
X105147711Y-83534844D01*
X105127574Y-83540953D01*
X105027000Y-83594711D01*
X105027000Y-81350393D01*
X105242493Y-81527244D01*
X105610786Y-81724101D01*
X106010407Y-81845325D01*
X106321858Y-81876000D01*
X106530142Y-81876000D01*
X106841593Y-81845325D01*
X107241214Y-81724101D01*
X107609507Y-81527244D01*
X107696000Y-81456261D01*
X107782493Y-81527244D01*
X108150786Y-81724101D01*
X108550407Y-81845325D01*
X108861858Y-81876000D01*
X109070142Y-81876000D01*
X109381593Y-81845325D01*
X109781214Y-81724101D01*
X109923697Y-81647942D01*
X109947012Y-81667076D01*
X110167640Y-81785004D01*
X110407036Y-81857624D01*
X110656000Y-81882145D01*
X110934500Y-81876000D01*
X111252000Y-81558500D01*
X111252000Y-80010000D01*
X111760000Y-80010000D01*
X111760000Y-81558500D01*
X112077500Y-81876000D01*
X112356000Y-81882145D01*
X112604964Y-81857624D01*
X112844360Y-81785004D01*
X113064988Y-81667076D01*
X113258371Y-81508371D01*
X113417076Y-81314988D01*
X113535004Y-81094360D01*
X113607624Y-80854964D01*
X113632145Y-80606000D01*
X113626000Y-80327500D01*
X113308500Y-80010000D01*
X111760000Y-80010000D01*
X111252000Y-80010000D01*
X111232000Y-80010000D01*
X111232000Y-79502000D01*
X111252000Y-79502000D01*
X111252000Y-79482000D01*
X111760000Y-79482000D01*
X111760000Y-79502000D01*
X113308500Y-79502000D01*
X113626000Y-79184500D01*
X113632145Y-78906000D01*
X113607624Y-78657036D01*
X113535004Y-78417640D01*
X113417076Y-78197012D01*
X113258371Y-78003629D01*
X113069955Y-77849000D01*
X116009486Y-77849000D01*
X116078000Y-77855748D01*
X116146514Y-77849000D01*
X116146524Y-77849000D01*
X116351468Y-77828815D01*
X116461001Y-77795588D01*
X116461001Y-80194171D01*
X116461001Y-80194171D01*
G37*
X116461001Y-80194171D02*
X115413173Y-81242000D01*
X115112123Y-81242000D01*
X114712203Y-81321549D01*
X114335487Y-81477590D01*
X113996452Y-81704126D01*
X113708126Y-81992452D01*
X113481590Y-82331487D01*
X113325549Y-82708203D01*
X113246000Y-83108123D01*
X113246000Y-83515877D01*
X113325549Y-83915797D01*
X113481590Y-84292513D01*
X113708126Y-84631548D01*
X113996452Y-84919874D01*
X114335487Y-85146410D01*
X114712203Y-85302451D01*
X115112123Y-85382000D01*
X115519877Y-85382000D01*
X115919797Y-85302451D01*
X116296513Y-85146410D01*
X116635548Y-84919874D01*
X116923874Y-84631548D01*
X117150410Y-84292513D01*
X117306451Y-83915797D01*
X117386000Y-83515877D01*
X117386000Y-83214827D01*
X118073752Y-82527075D01*
X118173899Y-82857214D01*
X118370756Y-83225507D01*
X118635681Y-83548319D01*
X118958493Y-83813244D01*
X119273593Y-83981669D01*
X119043037Y-84004377D01*
X118803641Y-84076997D01*
X118583012Y-84194925D01*
X118389630Y-84353630D01*
X118230925Y-84547012D01*
X118112997Y-84767641D01*
X118040377Y-85007037D01*
X118015856Y-85256000D01*
X118015856Y-86956000D01*
X118040377Y-87204963D01*
X118112997Y-87444359D01*
X118230925Y-87664988D01*
X118250058Y-87688302D01*
X118173899Y-87830786D01*
X118052675Y-88230407D01*
X118011743Y-88646000D01*
X118052675Y-89061593D01*
X118173899Y-89461214D01*
X118370756Y-89829507D01*
X118441739Y-89916000D01*
X118370756Y-90002493D01*
X118173899Y-90370786D01*
X118052675Y-90770407D01*
X118011743Y-91186000D01*
X118052675Y-91601593D01*
X118173899Y-92001214D01*
X118370756Y-92369507D01*
X118441739Y-92456000D01*
X118370756Y-92542493D01*
X118173899Y-92910786D01*
X118052675Y-93310407D01*
X118048174Y-93356105D01*
X117876879Y-93390178D01*
X117572959Y-93516066D01*
X117378904Y-93645729D01*
X117396015Y-93472000D01*
X117356048Y-93066209D01*
X117237683Y-92676013D01*
X117045469Y-92316406D01*
X116786793Y-92001207D01*
X116471594Y-91742531D01*
X116111987Y-91550317D01*
X115721791Y-91431952D01*
X115417684Y-91402000D01*
X115214316Y-91402000D01*
X114910209Y-91431952D01*
X114520013Y-91550317D01*
X114160406Y-91742531D01*
X113845207Y-92001207D01*
X113586531Y-92316406D01*
X113394317Y-92676013D01*
X113275952Y-93066209D01*
X113235985Y-93472000D01*
X113245596Y-93569577D01*
X113108039Y-93707134D01*
X113054815Y-93750814D01*
X113011135Y-93804038D01*
X113011133Y-93804040D01*
X112880488Y-93963231D01*
X112751283Y-94204959D01*
X112750954Y-94205574D01*
X112673904Y-94459574D01*
X112671186Y-94468533D01*
X112644252Y-94742000D01*
X112651001Y-94810523D01*
X112651000Y-96216571D01*
X112626488Y-96246439D01*
X112589484Y-96315669D01*
X112496953Y-96488782D01*
X112472335Y-96569934D01*
X112408705Y-96612451D01*
X112106451Y-96914705D01*
X111868971Y-97270119D01*
X111705392Y-97665034D01*
X111622000Y-98084274D01*
X111622000Y-98119619D01*
X109932336Y-96429955D01*
X109880819Y-96367181D01*
X109630335Y-96161615D01*
X109344560Y-96008865D01*
X109082750Y-95929446D01*
X109205742Y-95646500D01*
X109227082Y-95576125D01*
X108972514Y-95250000D01*
X107442000Y-95250000D01*
X107442000Y-95270000D01*
X106934000Y-95270000D01*
X106934000Y-95250000D01*
X105403486Y-95250000D01*
X105148918Y-95576125D01*
X105170258Y-95646500D01*
X105335935Y-96027643D01*
X105495062Y-96257077D01*
X105416756Y-96352493D01*
X105219899Y-96720786D01*
X105149696Y-96952215D01*
X105135121Y-96946178D01*
X104812481Y-96882000D01*
X104483519Y-96882000D01*
X104160879Y-96946178D01*
X103856959Y-97072066D01*
X103721989Y-97162250D01*
X103883082Y-96955875D01*
X103861742Y-96885500D01*
X103696065Y-96504357D01*
X103536938Y-96274923D01*
X103615244Y-96179507D01*
X103812101Y-95811214D01*
X103933325Y-95411593D01*
X103974257Y-94996000D01*
X103933325Y-94580407D01*
X103812101Y-94180786D01*
X103615244Y-93812493D01*
X103544261Y-93726000D01*
X103615244Y-93639507D01*
X103812101Y-93271214D01*
X103933325Y-92871593D01*
X103974257Y-92456000D01*
X103960142Y-92312686D01*
X104569962Y-91702866D01*
X104623186Y-91659186D01*
X104670910Y-91601035D01*
X104707590Y-91556340D01*
X104881121Y-91521822D01*
X105185041Y-91395934D01*
X105458563Y-91213173D01*
X105486836Y-91184900D01*
X105487739Y-91186000D01*
X105416756Y-91272493D01*
X105219899Y-91640786D01*
X105098675Y-92040407D01*
X105057743Y-92456000D01*
X105098675Y-92871593D01*
X105219899Y-93271214D01*
X105416756Y-93639507D01*
X105495062Y-93734923D01*
X105335935Y-93964357D01*
X105170258Y-94345500D01*
X105148918Y-94415875D01*
X105403486Y-94742000D01*
X106934000Y-94742000D01*
X106934000Y-94722000D01*
X107442000Y-94722000D01*
X107442000Y-94742000D01*
X108972514Y-94742000D01*
X109227082Y-94415875D01*
X109205742Y-94345500D01*
X109040065Y-93964357D01*
X108880938Y-93734923D01*
X108959244Y-93639507D01*
X109156101Y-93271214D01*
X109277325Y-92871593D01*
X109318257Y-92456000D01*
X109277325Y-92040407D01*
X109156101Y-91640786D01*
X108959244Y-91272493D01*
X108888261Y-91186000D01*
X108959244Y-91099507D01*
X109156101Y-90731214D01*
X109277325Y-90331593D01*
X109318257Y-89916000D01*
X109277325Y-89500407D01*
X109156101Y-89100786D01*
X108959244Y-88732493D01*
X108888261Y-88646000D01*
X108959244Y-88559507D01*
X109156101Y-88191214D01*
X109277325Y-87791593D01*
X109318257Y-87376000D01*
X109277325Y-86960407D01*
X109156101Y-86560786D01*
X109079942Y-86418302D01*
X109099075Y-86394988D01*
X109217003Y-86174359D01*
X109289623Y-85934963D01*
X109314144Y-85686000D01*
X109314144Y-83986000D01*
X109289623Y-83737037D01*
X109217003Y-83497641D01*
X109099075Y-83277012D01*
X108940370Y-83083630D01*
X108746988Y-82924925D01*
X108526359Y-82806997D01*
X108286963Y-82734377D01*
X108038000Y-82709856D01*
X106338000Y-82709856D01*
X106089037Y-82734377D01*
X105849641Y-82806997D01*
X105629012Y-82924925D01*
X105435630Y-83083630D01*
X105276925Y-83277012D01*
X105158997Y-83497641D01*
X105147711Y-83534844D01*
X105127574Y-83540953D01*
X105027000Y-83594711D01*
X105027000Y-81350393D01*
X105242493Y-81527244D01*
X105610786Y-81724101D01*
X106010407Y-81845325D01*
X106321858Y-81876000D01*
X106530142Y-81876000D01*
X106841593Y-81845325D01*
X107241214Y-81724101D01*
X107609507Y-81527244D01*
X107696000Y-81456261D01*
X107782493Y-81527244D01*
X108150786Y-81724101D01*
X108550407Y-81845325D01*
X108861858Y-81876000D01*
X109070142Y-81876000D01*
X109381593Y-81845325D01*
X109781214Y-81724101D01*
X109923697Y-81647942D01*
X109947012Y-81667076D01*
X110167640Y-81785004D01*
X110407036Y-81857624D01*
X110656000Y-81882145D01*
X110934500Y-81876000D01*
X111252000Y-81558500D01*
X111252000Y-80010000D01*
X111760000Y-80010000D01*
X111760000Y-81558500D01*
X112077500Y-81876000D01*
X112356000Y-81882145D01*
X112604964Y-81857624D01*
X112844360Y-81785004D01*
X113064988Y-81667076D01*
X113258371Y-81508371D01*
X113417076Y-81314988D01*
X113535004Y-81094360D01*
X113607624Y-80854964D01*
X113632145Y-80606000D01*
X113626000Y-80327500D01*
X113308500Y-80010000D01*
X111760000Y-80010000D01*
X111252000Y-80010000D01*
X111232000Y-80010000D01*
X111232000Y-79502000D01*
X111252000Y-79502000D01*
X111252000Y-79482000D01*
X111760000Y-79482000D01*
X111760000Y-79502000D01*
X113308500Y-79502000D01*
X113626000Y-79184500D01*
X113632145Y-78906000D01*
X113607624Y-78657036D01*
X113535004Y-78417640D01*
X113417076Y-78197012D01*
X113258371Y-78003629D01*
X113069955Y-77849000D01*
X116009486Y-77849000D01*
X116078000Y-77855748D01*
X116146514Y-77849000D01*
X116146524Y-77849000D01*
X116351468Y-77828815D01*
X116461001Y-77795588D01*
X116461001Y-80194171D01*
G36*
X99314000Y-97282000D02*
G01*
X101590000Y-97282000D01*
X101590000Y-97262000D01*
X102098000Y-97262000D01*
X102098000Y-97282000D01*
X102118000Y-97282000D01*
X102118000Y-97790000D01*
X102098000Y-97790000D01*
X102098000Y-97810000D01*
X101590000Y-97810000D01*
X101590000Y-97790000D01*
X99314000Y-97790000D01*
X99314000Y-97810000D01*
X98806000Y-97810000D01*
X98806000Y-97790000D01*
X98786000Y-97790000D01*
X98786000Y-97282000D01*
X98806000Y-97282000D01*
X98806000Y-97262000D01*
X99314000Y-97262000D01*
X99314000Y-97282000D01*
X99314000Y-97282000D01*
G37*
X99314000Y-97282000D02*
X101590000Y-97282000D01*
X101590000Y-97262000D01*
X102098000Y-97262000D01*
X102098000Y-97282000D01*
X102118000Y-97282000D01*
X102118000Y-97790000D01*
X102098000Y-97790000D01*
X102098000Y-97810000D01*
X101590000Y-97810000D01*
X101590000Y-97790000D01*
X99314000Y-97790000D01*
X99314000Y-97810000D01*
X98806000Y-97810000D01*
X98806000Y-97790000D01*
X98786000Y-97790000D01*
X98786000Y-97282000D01*
X98806000Y-97282000D01*
X98806000Y-97262000D01*
X99314000Y-97262000D01*
X99314000Y-97282000D01*
G36*
X99314000Y-79502000D02*
G01*
X101590000Y-79502000D01*
X101590000Y-79482000D01*
X102098000Y-79482000D01*
X102098000Y-79502000D01*
X102118000Y-79502000D01*
X102118000Y-80010000D01*
X102098000Y-80010000D01*
X102098000Y-80030000D01*
X101590000Y-80030000D01*
X101590000Y-80010000D01*
X99314000Y-80010000D01*
X99314000Y-80030000D01*
X98806000Y-80030000D01*
X98806000Y-80010000D01*
X98786000Y-80010000D01*
X98786000Y-79502000D01*
X98806000Y-79502000D01*
X98806000Y-79482000D01*
X99314000Y-79482000D01*
X99314000Y-79502000D01*
X99314000Y-79502000D01*
G37*
X99314000Y-79502000D02*
X101590000Y-79502000D01*
X101590000Y-79482000D01*
X102098000Y-79482000D01*
X102098000Y-79502000D01*
X102118000Y-79502000D01*
X102118000Y-80010000D01*
X102098000Y-80010000D01*
X102098000Y-80030000D01*
X101590000Y-80030000D01*
X101590000Y-80010000D01*
X99314000Y-80010000D01*
X99314000Y-80030000D01*
X98806000Y-80030000D01*
X98806000Y-80010000D01*
X98786000Y-80010000D01*
X98786000Y-79502000D01*
X98806000Y-79502000D01*
X98806000Y-79482000D01*
X99314000Y-79482000D01*
X99314000Y-79502000D01*
G36*
X109220000Y-69088000D02*
G01*
X109240000Y-69088000D01*
X109240000Y-69596000D01*
X109220000Y-69596000D01*
X109220000Y-71628000D01*
X109240000Y-71628000D01*
X109240000Y-72136000D01*
X109220000Y-72136000D01*
X109220000Y-74168000D01*
X109240000Y-74168000D01*
X109240000Y-74676000D01*
X109220000Y-74676000D01*
X109220000Y-74696000D01*
X108712000Y-74696000D01*
X108712000Y-74676000D01*
X108692000Y-74676000D01*
X108692000Y-74168000D01*
X108712000Y-74168000D01*
X108712000Y-72136000D01*
X108692000Y-72136000D01*
X108692000Y-71628000D01*
X108712000Y-71628000D01*
X108712000Y-69596000D01*
X108692000Y-69596000D01*
X108692000Y-69088000D01*
X108712000Y-69088000D01*
X108712000Y-69068000D01*
X109220000Y-69068000D01*
X109220000Y-69088000D01*
X109220000Y-69088000D01*
G37*
X109220000Y-69088000D02*
X109240000Y-69088000D01*
X109240000Y-69596000D01*
X109220000Y-69596000D01*
X109220000Y-71628000D01*
X109240000Y-71628000D01*
X109240000Y-72136000D01*
X109220000Y-72136000D01*
X109220000Y-74168000D01*
X109240000Y-74168000D01*
X109240000Y-74676000D01*
X109220000Y-74676000D01*
X109220000Y-74696000D01*
X108712000Y-74696000D01*
X108712000Y-74676000D01*
X108692000Y-74676000D01*
X108692000Y-74168000D01*
X108712000Y-74168000D01*
X108712000Y-72136000D01*
X108692000Y-72136000D01*
X108692000Y-71628000D01*
X108712000Y-71628000D01*
X108712000Y-69596000D01*
X108692000Y-69596000D01*
X108692000Y-69088000D01*
X108712000Y-69088000D01*
X108712000Y-69068000D01*
X109220000Y-69068000D01*
X109220000Y-69088000D01*
G36*
X122577856Y-65366000D02*
G01*
X122602377Y-65614963D01*
X122674997Y-65854359D01*
X122792925Y-66074988D01*
X122812058Y-66098302D01*
X122735899Y-66240786D01*
X122614675Y-66640407D01*
X122573743Y-67056000D01*
X122614675Y-67471593D01*
X122735899Y-67871214D01*
X122932756Y-68239507D01*
X123003739Y-68326000D01*
X122947280Y-68394795D01*
X122911186Y-68350814D01*
X122698770Y-68176488D01*
X122456426Y-68046953D01*
X122193468Y-67967185D01*
X122149186Y-67962824D01*
X122053075Y-67783012D01*
X121894370Y-67589630D01*
X121700988Y-67430925D01*
X121480359Y-67312997D01*
X121240963Y-67240377D01*
X120992000Y-67215856D01*
X119502477Y-67215856D01*
X119484815Y-67036532D01*
X119405047Y-66773574D01*
X119380002Y-66726718D01*
X119380002Y-66572502D01*
X119697500Y-66890000D01*
X119976000Y-66896145D01*
X120224964Y-66871624D01*
X120464360Y-66799004D01*
X120684988Y-66681076D01*
X120878371Y-66522371D01*
X121037076Y-66328988D01*
X121155004Y-66108360D01*
X121227624Y-65868964D01*
X121252145Y-65620000D01*
X121246000Y-65341500D01*
X120928500Y-65024000D01*
X119380000Y-65024000D01*
X119380000Y-65044000D01*
X118872000Y-65044000D01*
X118872000Y-65024000D01*
X118852000Y-65024000D01*
X118852000Y-64516000D01*
X118872000Y-64516000D01*
X118872000Y-64496000D01*
X119380000Y-64496000D01*
X119380000Y-64516000D01*
X120928500Y-64516000D01*
X121246000Y-64198500D01*
X121252145Y-63920000D01*
X121247713Y-63875000D01*
X122347193Y-63875000D01*
X122428000Y-63882959D01*
X122508807Y-63875000D01*
X122508809Y-63875000D01*
X122577856Y-63868199D01*
X122577856Y-65366000D01*
X122577856Y-65366000D01*
G37*
X122577856Y-65366000D02*
X122602377Y-65614963D01*
X122674997Y-65854359D01*
X122792925Y-66074988D01*
X122812058Y-66098302D01*
X122735899Y-66240786D01*
X122614675Y-66640407D01*
X122573743Y-67056000D01*
X122614675Y-67471593D01*
X122735899Y-67871214D01*
X122932756Y-68239507D01*
X123003739Y-68326000D01*
X122947280Y-68394795D01*
X122911186Y-68350814D01*
X122698770Y-68176488D01*
X122456426Y-68046953D01*
X122193468Y-67967185D01*
X122149186Y-67962824D01*
X122053075Y-67783012D01*
X121894370Y-67589630D01*
X121700988Y-67430925D01*
X121480359Y-67312997D01*
X121240963Y-67240377D01*
X120992000Y-67215856D01*
X119502477Y-67215856D01*
X119484815Y-67036532D01*
X119405047Y-66773574D01*
X119380002Y-66726718D01*
X119380002Y-66572502D01*
X119697500Y-66890000D01*
X119976000Y-66896145D01*
X120224964Y-66871624D01*
X120464360Y-66799004D01*
X120684988Y-66681076D01*
X120878371Y-66522371D01*
X121037076Y-66328988D01*
X121155004Y-66108360D01*
X121227624Y-65868964D01*
X121252145Y-65620000D01*
X121246000Y-65341500D01*
X120928500Y-65024000D01*
X119380000Y-65024000D01*
X119380000Y-65044000D01*
X118872000Y-65044000D01*
X118872000Y-65024000D01*
X118852000Y-65024000D01*
X118852000Y-64516000D01*
X118872000Y-64516000D01*
X118872000Y-64496000D01*
X119380000Y-64496000D01*
X119380000Y-64516000D01*
X120928500Y-64516000D01*
X121246000Y-64198500D01*
X121252145Y-63920000D01*
X121247713Y-63875000D01*
X122347193Y-63875000D01*
X122428000Y-63882959D01*
X122508807Y-63875000D01*
X122508809Y-63875000D01*
X122577856Y-63868199D01*
X122577856Y-65366000D01*
M02*
