%FSLAX45Y45*%
G04 Gerber Fmt 4.5, Leading zero omitted, Abs format (unit mm)*
G04 Created by KiCad (PCBNEW (5.1.2)-1) date 2024-09-29 13:43:39*
%MOMM*%
%LPD*%
G04 APERTURE LIST*
%ADD10C,0.050000*%
%ADD11C,0.200000*%
%ADD12C,0.300000*%
G04 APERTURE END LIST*
D10*
X9677400Y-10972800D02*
X9677400Y-10947400D01*
X15189200Y-10972800D02*
X9677400Y-10972800D01*
X9677400Y-4800600D02*
X9702800Y-4800600D01*
X9702800Y-4800600D02*
X15189200Y-4800600D01*
X9677400Y-10947400D02*
X9677400Y-4800600D01*
X15189200Y-4800600D02*
X15189200Y-10972800D01*
D11*
X13369400Y-10723300D02*
X13404400Y-10758300D01*
X13404400Y-10723300D02*
X13369400Y-10758300D01*
X13379400Y-10690800D02*
X13379400Y-10790800D01*
X13394400Y-10690800D02*
X13394400Y-10790800D01*
X13379400Y-10790800D02*
G75*
G03X13394400Y-10790800I7500J0D01*
G01*
X13394400Y-10690800D02*
G75*
G03X13379400Y-10690800I-7500J0D01*
G01*
X14084400Y-10723300D02*
X14119400Y-10758300D01*
X14119400Y-10723300D02*
X14084400Y-10758300D01*
X14094400Y-10690800D02*
X14094400Y-10790800D01*
X14109400Y-10690800D02*
X14109400Y-10790800D01*
X14094400Y-10790800D02*
G75*
G03X14109400Y-10790800I7500J0D01*
G01*
X14109400Y-10690800D02*
G75*
G03X14094400Y-10690800I-7500J0D01*
G01*
X10459400Y-8991600D02*
G75*
G03X10459400Y-8991600I-20000J0D01*
G01*
X10484800Y-9855200D02*
G75*
G03X10484800Y-9855200I-20000J0D01*
G01*
X10561000Y-8204200D02*
G75*
G03X10561000Y-8204200I-20000J0D01*
G01*
X11018200Y-10160000D02*
G75*
G03X11018200Y-10160000I-20000J0D01*
G01*
X11145200Y-7721600D02*
G75*
G03X11145200Y-7721600I-20000J0D01*
G01*
X11170600Y-10033000D02*
G75*
G03X11170600Y-10033000I-20000J0D01*
G01*
X11704000Y-10033000D02*
G75*
G03X11704000Y-10033000I-20000J0D01*
G01*
X11856400Y-9499600D02*
G75*
G03X11856400Y-9499600I-20000J0D01*
G01*
X11856400Y-9829800D02*
G75*
G03X11856400Y-9829800I-20000J0D01*
G01*
X12008800Y-10033000D02*
G75*
G03X12008800Y-10033000I-20000J0D01*
G01*
X13177200Y-4978400D02*
G75*
G03X13177200Y-4978400I-20000J0D01*
G01*
X13329600Y-9906000D02*
G75*
G03X13329600Y-9906000I-20000J0D01*
G01*
X13812200Y-9833500D02*
G75*
G03X13812200Y-9833500I-20000J0D01*
G01*
X13614400Y-10696800D02*
X13614400Y-10740800D01*
X13592400Y-10718800D02*
X13636400Y-10718800D01*
X13679400Y-10796800D02*
X13679400Y-10840800D01*
X13657400Y-10818800D02*
X13701400Y-10818800D01*
X13744400Y-10696800D02*
X13744400Y-10740800D01*
X13722400Y-10718800D02*
X13766400Y-10718800D01*
X13809400Y-10796800D02*
X13809400Y-10840800D01*
X13787400Y-10818800D02*
X13831400Y-10818800D01*
X13874400Y-10696800D02*
X13874400Y-10740800D01*
X13852400Y-10718800D02*
X13896400Y-10718800D01*
X13359749Y-8559149D02*
X13359749Y-8509651D01*
X13310251Y-8509651D01*
X13310251Y-8559149D01*
X13359749Y-8559149D01*
X13615749Y-8559149D02*
X13615749Y-8509651D01*
X13566251Y-8509651D01*
X13566251Y-8559149D01*
X13615749Y-8559149D01*
X13334349Y-6400149D02*
X13334349Y-6350651D01*
X13284851Y-6350651D01*
X13284851Y-6400149D01*
X13334349Y-6400149D01*
X13842349Y-6400149D02*
X13842349Y-6350651D01*
X13792851Y-6350651D01*
X13792851Y-6400149D01*
X13842349Y-6400149D01*
X11531600Y-8371200D02*
X11571600Y-8331200D01*
X11531600Y-8291200D01*
X11491600Y-8331200D01*
X11531600Y-8371200D01*
X11531600Y-9387200D02*
X11571600Y-9347200D01*
X11531600Y-9307200D01*
X11491600Y-9347200D01*
X11531600Y-9387200D01*
X13309600Y-6745600D02*
X13349600Y-6705600D01*
X13309600Y-6665600D01*
X13269600Y-6705600D01*
X13309600Y-6745600D01*
X13809600Y-6745600D02*
X13849600Y-6705600D01*
X13809600Y-6665600D01*
X13769600Y-6705600D01*
X13809600Y-6745600D01*
X13792200Y-9209400D02*
X13832200Y-9169400D01*
X13792200Y-9129400D01*
X13752200Y-9169400D01*
X13792200Y-9209400D01*
X13792200Y-10225400D02*
X13832200Y-10185400D01*
X13792200Y-10145400D01*
X13752200Y-10185400D01*
X13792200Y-10225400D01*
X13309600Y-9209400D02*
X13349600Y-9169400D01*
X13309600Y-9129400D01*
X13269600Y-9169400D01*
X13309600Y-9209400D01*
X13309600Y-10225400D02*
X13349600Y-10185400D01*
X13309600Y-10145400D01*
X13269600Y-10185400D01*
X13309600Y-10225400D01*
X13335000Y-7075800D02*
X13375000Y-7035800D01*
X13335000Y-6995800D01*
X13295000Y-7035800D01*
X13335000Y-7075800D01*
X13335000Y-8091800D02*
X13375000Y-8051800D01*
X13335000Y-8011800D01*
X13295000Y-8051800D01*
X13335000Y-8091800D01*
X13792200Y-7075800D02*
X13832200Y-7035800D01*
X13792200Y-6995800D01*
X13752200Y-7035800D01*
X13792200Y-7075800D01*
X13792200Y-8091800D02*
X13832200Y-8051800D01*
X13792200Y-8011800D01*
X13752200Y-8051800D01*
X13792200Y-8091800D01*
X13292200Y-8930000D02*
X13332200Y-8890000D01*
X13292200Y-8850000D01*
X13252200Y-8890000D01*
X13292200Y-8930000D01*
X13792200Y-8930000D02*
X13832200Y-8890000D01*
X13792200Y-8850000D01*
X13752200Y-8890000D01*
X13792200Y-8930000D01*
X10545760Y-5225160D02*
X10627040Y-5306440D01*
X10627040Y-5225160D02*
X10545760Y-5306440D01*
X10627040Y-5265800D02*
G75*
G03X10627040Y-5265800I-40640J0D01*
G01*
X10617040Y-5285800D02*
X10617040Y-5245800D01*
X10555760Y-5285800D02*
X10555760Y-5245800D01*
X10617040Y-5245800D02*
G75*
G03X10555760Y-5245800I-30640J0D01*
G01*
X10555760Y-5285800D02*
G75*
G03X10617040Y-5285800I30640J0D01*
G01*
X10545760Y-5725160D02*
X10627040Y-5806440D01*
X10627040Y-5725160D02*
X10545760Y-5806440D01*
X10627040Y-5765800D02*
G75*
G03X10627040Y-5765800I-40640J0D01*
G01*
X10617040Y-5785800D02*
X10617040Y-5745800D01*
X10555760Y-5785800D02*
X10555760Y-5745800D01*
X10617040Y-5745800D02*
G75*
G03X10555760Y-5745800I-30640J0D01*
G01*
X10555760Y-5785800D02*
G75*
G03X10617040Y-5785800I30640J0D01*
G01*
X11795760Y-5225160D02*
X11877040Y-5306440D01*
X11877040Y-5225160D02*
X11795760Y-5306440D01*
X11877040Y-5265800D02*
G75*
G03X11877040Y-5265800I-40640J0D01*
G01*
X11867040Y-5285800D02*
X11867040Y-5245800D01*
X11805760Y-5285800D02*
X11805760Y-5245800D01*
X11867040Y-5245800D02*
G75*
G03X11805760Y-5245800I-30640J0D01*
G01*
X11805760Y-5285800D02*
G75*
G03X11867040Y-5285800I30640J0D01*
G01*
X11795760Y-5725160D02*
X11877040Y-5806440D01*
X11877040Y-5725160D02*
X11795760Y-5806440D01*
X11877040Y-5765800D02*
G75*
G03X11877040Y-5765800I-40640J0D01*
G01*
X11867040Y-5785800D02*
X11867040Y-5745800D01*
X11805760Y-5785800D02*
X11805760Y-5745800D01*
X11867040Y-5745800D02*
G75*
G03X11805760Y-5745800I-30640J0D01*
G01*
X11805760Y-5785800D02*
G75*
G03X11867040Y-5785800I30640J0D01*
G01*
X11334200Y-9784800D02*
X11424200Y-9874800D01*
X11424200Y-9784800D02*
X11334200Y-9874800D01*
X11379200Y-9784800D02*
X11379200Y-9874800D01*
X11334200Y-9829800D02*
X11424200Y-9829800D01*
X11588200Y-9784800D02*
X11678200Y-9874800D01*
X11678200Y-9784800D02*
X11588200Y-9874800D01*
X11633200Y-9784800D02*
X11633200Y-9874800D01*
X11588200Y-9829800D02*
X11678200Y-9829800D01*
X10592600Y-6427000D02*
X10692600Y-6527000D01*
X10692600Y-6427000D02*
X10592600Y-6527000D01*
X10677956Y-6512356D02*
X10677956Y-6441644D01*
X10607244Y-6441644D01*
X10607244Y-6512356D01*
X10677956Y-6512356D01*
X10846600Y-6427000D02*
X10946600Y-6527000D01*
X10946600Y-6427000D02*
X10846600Y-6527000D01*
X10931956Y-6512356D02*
X10931956Y-6441644D01*
X10861244Y-6441644D01*
X10861244Y-6512356D01*
X10931956Y-6512356D01*
X11100600Y-6427000D02*
X11200600Y-6527000D01*
X11200600Y-6427000D02*
X11100600Y-6527000D01*
X11185956Y-6512356D02*
X11185956Y-6441644D01*
X11115244Y-6441644D01*
X11115244Y-6512356D01*
X11185956Y-6512356D01*
X11354600Y-6427000D02*
X11454600Y-6527000D01*
X11454600Y-6427000D02*
X11354600Y-6527000D01*
X11439956Y-6512356D02*
X11439956Y-6441644D01*
X11369244Y-6441644D01*
X11369244Y-6512356D01*
X11439956Y-6512356D01*
X11608600Y-6427000D02*
X11708600Y-6527000D01*
X11708600Y-6427000D02*
X11608600Y-6527000D01*
X11693956Y-6512356D02*
X11693956Y-6441644D01*
X11623244Y-6441644D01*
X11623244Y-6512356D01*
X11693956Y-6512356D01*
X11862600Y-6427000D02*
X11962600Y-6527000D01*
X11962600Y-6427000D02*
X11862600Y-6527000D01*
X11947956Y-6512356D02*
X11947956Y-6441644D01*
X11877244Y-6441644D01*
X11877244Y-6512356D01*
X11947956Y-6512356D01*
X12624600Y-10440200D02*
X12724600Y-10540200D01*
X12724600Y-10440200D02*
X12624600Y-10540200D01*
X12709956Y-10525556D02*
X12709956Y-10454844D01*
X12639244Y-10454844D01*
X12639244Y-10525556D01*
X12709956Y-10525556D01*
X12624600Y-10694200D02*
X12724600Y-10794200D01*
X12724600Y-10694200D02*
X12624600Y-10794200D01*
X12709956Y-10779556D02*
X12709956Y-10708844D01*
X12639244Y-10708844D01*
X12639244Y-10779556D01*
X12709956Y-10779556D01*
X9856000Y-6401600D02*
X9956000Y-6501600D01*
X9956000Y-6401600D02*
X9856000Y-6501600D01*
X9941356Y-6486956D02*
X9941356Y-6416244D01*
X9870644Y-6416244D01*
X9870644Y-6486956D01*
X9941356Y-6486956D01*
X9856000Y-6655600D02*
X9956000Y-6755600D01*
X9956000Y-6655600D02*
X9856000Y-6755600D01*
X9941356Y-6740956D02*
X9941356Y-6670244D01*
X9870644Y-6670244D01*
X9870644Y-6740956D01*
X9941356Y-6740956D01*
X9856000Y-6909600D02*
X9956000Y-7009600D01*
X9956000Y-6909600D02*
X9856000Y-7009600D01*
X9941356Y-6994956D02*
X9941356Y-6924244D01*
X9870644Y-6924244D01*
X9870644Y-6994956D01*
X9941356Y-6994956D01*
X9856000Y-7163600D02*
X9956000Y-7263600D01*
X9956000Y-7163600D02*
X9856000Y-7263600D01*
X9941356Y-7248956D02*
X9941356Y-7178244D01*
X9870644Y-7178244D01*
X9870644Y-7248956D01*
X9941356Y-7248956D01*
X9856000Y-7417600D02*
X9956000Y-7517600D01*
X9956000Y-7417600D02*
X9856000Y-7517600D01*
X9941356Y-7502956D02*
X9941356Y-7432244D01*
X9870644Y-7432244D01*
X9870644Y-7502956D01*
X9941356Y-7502956D01*
X9856000Y-7671600D02*
X9956000Y-7771600D01*
X9956000Y-7671600D02*
X9856000Y-7771600D01*
X9941356Y-7756956D02*
X9941356Y-7686244D01*
X9870644Y-7686244D01*
X9870644Y-7756956D01*
X9941356Y-7756956D01*
X9856000Y-7925600D02*
X9956000Y-8025600D01*
X9956000Y-7925600D02*
X9856000Y-8025600D01*
X9941356Y-8010956D02*
X9941356Y-7940244D01*
X9870644Y-7940244D01*
X9870644Y-8010956D01*
X9941356Y-8010956D01*
X9856000Y-8179600D02*
X9956000Y-8279600D01*
X9956000Y-8179600D02*
X9856000Y-8279600D01*
X9941356Y-8264956D02*
X9941356Y-8194244D01*
X9870644Y-8194244D01*
X9870644Y-8264956D01*
X9941356Y-8264956D01*
X9856000Y-8433600D02*
X9956000Y-8533600D01*
X9956000Y-8433600D02*
X9856000Y-8533600D01*
X9941356Y-8518956D02*
X9941356Y-8448244D01*
X9870644Y-8448244D01*
X9870644Y-8518956D01*
X9941356Y-8518956D01*
X9856000Y-8687600D02*
X9956000Y-8787600D01*
X9956000Y-8687600D02*
X9856000Y-8787600D01*
X9941356Y-8772956D02*
X9941356Y-8702244D01*
X9870644Y-8702244D01*
X9870644Y-8772956D01*
X9941356Y-8772956D01*
X9856000Y-8941600D02*
X9956000Y-9041600D01*
X9956000Y-8941600D02*
X9856000Y-9041600D01*
X9941356Y-9026956D02*
X9941356Y-8956244D01*
X9870644Y-8956244D01*
X9870644Y-9026956D01*
X9941356Y-9026956D01*
X9856000Y-9195600D02*
X9956000Y-9295600D01*
X9956000Y-9195600D02*
X9856000Y-9295600D01*
X9941356Y-9280956D02*
X9941356Y-9210244D01*
X9870644Y-9210244D01*
X9870644Y-9280956D01*
X9941356Y-9280956D01*
X9856000Y-9449600D02*
X9956000Y-9549600D01*
X9956000Y-9449600D02*
X9856000Y-9549600D01*
X9941356Y-9534956D02*
X9941356Y-9464244D01*
X9870644Y-9464244D01*
X9870644Y-9534956D01*
X9941356Y-9534956D01*
X9856000Y-9703600D02*
X9956000Y-9803600D01*
X9956000Y-9703600D02*
X9856000Y-9803600D01*
X9941356Y-9788956D02*
X9941356Y-9718244D01*
X9870644Y-9718244D01*
X9870644Y-9788956D01*
X9941356Y-9788956D01*
X9856000Y-9957600D02*
X9956000Y-10057600D01*
X9956000Y-9957600D02*
X9856000Y-10057600D01*
X9941356Y-10042956D02*
X9941356Y-9972244D01*
X9870644Y-9972244D01*
X9870644Y-10042956D01*
X9941356Y-10042956D01*
X11964200Y-6884200D02*
X12064200Y-6984200D01*
X12064200Y-6884200D02*
X11964200Y-6984200D01*
X12049556Y-6969556D02*
X12049556Y-6898844D01*
X11978844Y-6898844D01*
X11978844Y-6969556D01*
X12049556Y-6969556D01*
X11964200Y-7138200D02*
X12064200Y-7238200D01*
X12064200Y-7138200D02*
X11964200Y-7238200D01*
X12049556Y-7223556D02*
X12049556Y-7152844D01*
X11978844Y-7152844D01*
X11978844Y-7223556D01*
X12049556Y-7223556D01*
X11964200Y-7392200D02*
X12064200Y-7492200D01*
X12064200Y-7392200D02*
X11964200Y-7492200D01*
X12049556Y-7477556D02*
X12049556Y-7406844D01*
X11978844Y-7406844D01*
X11978844Y-7477556D01*
X12049556Y-7477556D01*
X11964200Y-7646200D02*
X12064200Y-7746200D01*
X12064200Y-7646200D02*
X11964200Y-7746200D01*
X12049556Y-7731556D02*
X12049556Y-7660844D01*
X11978844Y-7660844D01*
X11978844Y-7731556D01*
X12049556Y-7731556D01*
X11964200Y-7900200D02*
X12064200Y-8000200D01*
X12064200Y-7900200D02*
X11964200Y-8000200D01*
X12049556Y-7985556D02*
X12049556Y-7914844D01*
X11978844Y-7914844D01*
X11978844Y-7985556D01*
X12049556Y-7985556D01*
X11964200Y-8154200D02*
X12064200Y-8254200D01*
X12064200Y-8154200D02*
X11964200Y-8254200D01*
X12049556Y-8239556D02*
X12049556Y-8168844D01*
X11978844Y-8168844D01*
X11978844Y-8239556D01*
X12049556Y-8239556D01*
X12319800Y-5360200D02*
X12419800Y-5460200D01*
X12419800Y-5360200D02*
X12319800Y-5460200D01*
X12405156Y-5445556D02*
X12405156Y-5374844D01*
X12334444Y-5374844D01*
X12334444Y-5445556D01*
X12405156Y-5445556D01*
X12969800Y-5360200D02*
X13069800Y-5460200D01*
X13069800Y-5360200D02*
X12969800Y-5460200D01*
X13055156Y-5445556D02*
X13055156Y-5374844D01*
X12984444Y-5374844D01*
X12984444Y-5445556D01*
X13055156Y-5445556D01*
X14301000Y-5411000D02*
X14401000Y-5511000D01*
X14401000Y-5411000D02*
X14301000Y-5511000D01*
X14386356Y-5496356D02*
X14386356Y-5425644D01*
X14315644Y-5425644D01*
X14315644Y-5496356D01*
X14386356Y-5496356D01*
X14555000Y-5411000D02*
X14655000Y-5511000D01*
X14655000Y-5411000D02*
X14555000Y-5511000D01*
X14640356Y-5496356D02*
X14640356Y-5425644D01*
X14569644Y-5425644D01*
X14569644Y-5496356D01*
X14640356Y-5496356D01*
X14809000Y-5411000D02*
X14909000Y-5511000D01*
X14909000Y-5411000D02*
X14809000Y-5511000D01*
X14894356Y-5496356D02*
X14894356Y-5425644D01*
X14823644Y-5425644D01*
X14823644Y-5496356D01*
X14894356Y-5496356D01*
X10592600Y-6884200D02*
X10692600Y-6984200D01*
X10692600Y-6884200D02*
X10592600Y-6984200D01*
X10677956Y-6969556D02*
X10677956Y-6898844D01*
X10607244Y-6898844D01*
X10607244Y-6969556D01*
X10677956Y-6969556D01*
X10846600Y-6884200D02*
X10946600Y-6984200D01*
X10946600Y-6884200D02*
X10846600Y-6984200D01*
X10931956Y-6969556D02*
X10931956Y-6898844D01*
X10861244Y-6898844D01*
X10861244Y-6969556D01*
X10931956Y-6969556D01*
X11100600Y-6884200D02*
X11200600Y-6984200D01*
X11200600Y-6884200D02*
X11100600Y-6984200D01*
X11185956Y-6969556D02*
X11185956Y-6898844D01*
X11115244Y-6898844D01*
X11115244Y-6969556D01*
X11185956Y-6969556D01*
X11354600Y-6884200D02*
X11454600Y-6984200D01*
X11454600Y-6884200D02*
X11354600Y-6984200D01*
X11439956Y-6969556D02*
X11439956Y-6898844D01*
X11369244Y-6898844D01*
X11369244Y-6969556D01*
X11439956Y-6969556D01*
X11608600Y-6884200D02*
X11708600Y-6984200D01*
X11708600Y-6884200D02*
X11608600Y-6984200D01*
X11693956Y-6969556D02*
X11693956Y-6898844D01*
X11623244Y-6898844D01*
X11623244Y-6969556D01*
X11693956Y-6969556D01*
X14920200Y-5868200D02*
X15020200Y-5968200D01*
X15020200Y-5868200D02*
X14920200Y-5968200D01*
X15005556Y-5953556D02*
X15005556Y-5882844D01*
X14934844Y-5882844D01*
X14934844Y-5953556D01*
X15005556Y-5953556D01*
X14920200Y-6122200D02*
X15020200Y-6222200D01*
X15020200Y-6122200D02*
X14920200Y-6222200D01*
X15005556Y-6207556D02*
X15005556Y-6136844D01*
X14934844Y-6136844D01*
X14934844Y-6207556D01*
X15005556Y-6207556D01*
X14920200Y-6376200D02*
X15020200Y-6476200D01*
X15020200Y-6376200D02*
X14920200Y-6476200D01*
X15005556Y-6461556D02*
X15005556Y-6390844D01*
X14934844Y-6390844D01*
X14934844Y-6461556D01*
X15005556Y-6461556D01*
X14920200Y-6630200D02*
X15020200Y-6730200D01*
X15020200Y-6630200D02*
X14920200Y-6730200D01*
X15005556Y-6715556D02*
X15005556Y-6644844D01*
X14934844Y-6644844D01*
X14934844Y-6715556D01*
X15005556Y-6715556D01*
X14920200Y-6884200D02*
X15020200Y-6984200D01*
X15020200Y-6884200D02*
X14920200Y-6984200D01*
X15005556Y-6969556D02*
X15005556Y-6898844D01*
X14934844Y-6898844D01*
X14934844Y-6969556D01*
X15005556Y-6969556D01*
X14920200Y-7138200D02*
X15020200Y-7238200D01*
X15020200Y-7138200D02*
X14920200Y-7238200D01*
X15005556Y-7223556D02*
X15005556Y-7152844D01*
X14934844Y-7152844D01*
X14934844Y-7223556D01*
X15005556Y-7223556D01*
X14920200Y-7392200D02*
X15020200Y-7492200D01*
X15020200Y-7392200D02*
X14920200Y-7492200D01*
X15005556Y-7477556D02*
X15005556Y-7406844D01*
X14934844Y-7406844D01*
X14934844Y-7477556D01*
X15005556Y-7477556D01*
X14920200Y-7646200D02*
X15020200Y-7746200D01*
X15020200Y-7646200D02*
X14920200Y-7746200D01*
X15005556Y-7731556D02*
X15005556Y-7660844D01*
X14934844Y-7660844D01*
X14934844Y-7731556D01*
X15005556Y-7731556D01*
X14920200Y-7900200D02*
X15020200Y-8000200D01*
X15020200Y-7900200D02*
X14920200Y-8000200D01*
X15005556Y-7985556D02*
X15005556Y-7914844D01*
X14934844Y-7914844D01*
X14934844Y-7985556D01*
X15005556Y-7985556D01*
X14920200Y-8154200D02*
X15020200Y-8254200D01*
X15020200Y-8154200D02*
X14920200Y-8254200D01*
X15005556Y-8239556D02*
X15005556Y-8168844D01*
X14934844Y-8168844D01*
X14934844Y-8239556D01*
X15005556Y-8239556D01*
X14920200Y-8408200D02*
X15020200Y-8508200D01*
X15020200Y-8408200D02*
X14920200Y-8508200D01*
X15005556Y-8493556D02*
X15005556Y-8422844D01*
X14934844Y-8422844D01*
X14934844Y-8493556D01*
X15005556Y-8493556D01*
X14920200Y-8662200D02*
X15020200Y-8762200D01*
X15020200Y-8662200D02*
X14920200Y-8762200D01*
X15005556Y-8747556D02*
X15005556Y-8676844D01*
X14934844Y-8676844D01*
X14934844Y-8747556D01*
X15005556Y-8747556D01*
X14920200Y-8916200D02*
X15020200Y-9016200D01*
X15020200Y-8916200D02*
X14920200Y-9016200D01*
X15005556Y-9001556D02*
X15005556Y-8930844D01*
X14934844Y-8930844D01*
X14934844Y-9001556D01*
X15005556Y-9001556D01*
X14920200Y-9170200D02*
X15020200Y-9270200D01*
X15020200Y-9170200D02*
X14920200Y-9270200D01*
X15005556Y-9255556D02*
X15005556Y-9184844D01*
X14934844Y-9184844D01*
X14934844Y-9255556D01*
X15005556Y-9255556D01*
X14920200Y-9424200D02*
X15020200Y-9524200D01*
X15020200Y-9424200D02*
X14920200Y-9524200D01*
X15005556Y-9509556D02*
X15005556Y-9438844D01*
X14934844Y-9438844D01*
X14934844Y-9509556D01*
X15005556Y-9509556D01*
X14920200Y-9678200D02*
X15020200Y-9778200D01*
X15020200Y-9678200D02*
X14920200Y-9778200D01*
X15005556Y-9763556D02*
X15005556Y-9692844D01*
X14934844Y-9692844D01*
X14934844Y-9763556D01*
X15005556Y-9763556D01*
X14920200Y-9932200D02*
X15020200Y-10032200D01*
X15020200Y-9932200D02*
X14920200Y-10032200D01*
X15005556Y-10017556D02*
X15005556Y-9946844D01*
X14934844Y-9946844D01*
X14934844Y-10017556D01*
X15005556Y-10017556D01*
X14920200Y-10186200D02*
X15020200Y-10286200D01*
X15020200Y-10186200D02*
X14920200Y-10286200D01*
X15005556Y-10271556D02*
X15005556Y-10200844D01*
X14934844Y-10200844D01*
X14934844Y-10271556D01*
X15005556Y-10271556D01*
X14920200Y-10440200D02*
X15020200Y-10540200D01*
X15020200Y-10440200D02*
X14920200Y-10540200D01*
X15005556Y-10525556D02*
X15005556Y-10454844D01*
X14934844Y-10454844D01*
X14934844Y-10525556D01*
X15005556Y-10525556D01*
X14920200Y-10694200D02*
X15020200Y-10794200D01*
X15020200Y-10694200D02*
X14920200Y-10794200D01*
X15005556Y-10779556D02*
X15005556Y-10708844D01*
X14934844Y-10708844D01*
X14934844Y-10779556D01*
X15005556Y-10779556D01*
X10592600Y-7138200D02*
X10692600Y-7238200D01*
X10692600Y-7138200D02*
X10592600Y-7238200D01*
X10677956Y-7223556D02*
X10677956Y-7152844D01*
X10607244Y-7152844D01*
X10607244Y-7223556D01*
X10677956Y-7223556D01*
X10846600Y-7138200D02*
X10946600Y-7238200D01*
X10946600Y-7138200D02*
X10846600Y-7238200D01*
X10931956Y-7223556D02*
X10931956Y-7152844D01*
X10861244Y-7152844D01*
X10861244Y-7223556D01*
X10931956Y-7223556D01*
X11100600Y-7138200D02*
X11200600Y-7238200D01*
X11200600Y-7138200D02*
X11100600Y-7238200D01*
X11185956Y-7223556D02*
X11185956Y-7152844D01*
X11115244Y-7152844D01*
X11115244Y-7223556D01*
X11185956Y-7223556D01*
X11354600Y-7138200D02*
X11454600Y-7238200D01*
X11454600Y-7138200D02*
X11354600Y-7238200D01*
X11439956Y-7223556D02*
X11439956Y-7152844D01*
X11369244Y-7152844D01*
X11369244Y-7223556D01*
X11439956Y-7223556D01*
X11608600Y-7138200D02*
X11708600Y-7238200D01*
X11708600Y-7138200D02*
X11608600Y-7238200D01*
X11693956Y-7223556D02*
X11693956Y-7152844D01*
X11623244Y-7152844D01*
X11623244Y-7223556D01*
X11693956Y-7223556D01*
X14529600Y-10186200D02*
X14629600Y-10286200D01*
X14629600Y-10186200D02*
X14529600Y-10286200D01*
X14614956Y-10271556D02*
X14614956Y-10200844D01*
X14544244Y-10200844D01*
X14544244Y-10271556D01*
X14614956Y-10271556D01*
X14529600Y-10440200D02*
X14629600Y-10540200D01*
X14629600Y-10440200D02*
X14529600Y-10540200D01*
X14614956Y-10525556D02*
X14614956Y-10454844D01*
X14544244Y-10454844D01*
X14544244Y-10525556D01*
X14614956Y-10525556D01*
X14529600Y-10694200D02*
X14629600Y-10794200D01*
X14629600Y-10694200D02*
X14529600Y-10794200D01*
X14614956Y-10779556D02*
X14614956Y-10708844D01*
X14544244Y-10708844D01*
X14544244Y-10779556D01*
X14614956Y-10779556D01*
X12695000Y-6401600D02*
X12795000Y-6501600D01*
X12795000Y-6401600D02*
X12695000Y-6501600D01*
X12780356Y-6486956D02*
X12780356Y-6416244D01*
X12709644Y-6416244D01*
X12709644Y-6486956D01*
X12780356Y-6486956D01*
X12695000Y-6655600D02*
X12795000Y-6755600D01*
X12795000Y-6655600D02*
X12695000Y-6755600D01*
X12780356Y-6740956D02*
X12780356Y-6670244D01*
X12709644Y-6670244D01*
X12709644Y-6740956D01*
X12780356Y-6740956D01*
X12695000Y-6909600D02*
X12795000Y-7009600D01*
X12795000Y-6909600D02*
X12695000Y-7009600D01*
X12780356Y-6994956D02*
X12780356Y-6924244D01*
X12709644Y-6924244D01*
X12709644Y-6994956D01*
X12780356Y-6994956D01*
X12695000Y-7163600D02*
X12795000Y-7263600D01*
X12795000Y-7163600D02*
X12695000Y-7263600D01*
X12780356Y-7248956D02*
X12780356Y-7178244D01*
X12709644Y-7178244D01*
X12709644Y-7248956D01*
X12780356Y-7248956D01*
X12695000Y-7417600D02*
X12795000Y-7517600D01*
X12795000Y-7417600D02*
X12695000Y-7517600D01*
X12780356Y-7502956D02*
X12780356Y-7432244D01*
X12709644Y-7432244D01*
X12709644Y-7502956D01*
X12780356Y-7502956D01*
X12695000Y-7671600D02*
X12795000Y-7771600D01*
X12795000Y-7671600D02*
X12695000Y-7771600D01*
X12780356Y-7756956D02*
X12780356Y-7686244D01*
X12709644Y-7686244D01*
X12709644Y-7756956D01*
X12780356Y-7756956D01*
X12695000Y-7925600D02*
X12795000Y-8025600D01*
X12795000Y-7925600D02*
X12695000Y-8025600D01*
X12780356Y-8010956D02*
X12780356Y-7940244D01*
X12709644Y-7940244D01*
X12709644Y-8010956D01*
X12780356Y-8010956D01*
X12695000Y-8179600D02*
X12795000Y-8279600D01*
X12795000Y-8179600D02*
X12695000Y-8279600D01*
X12780356Y-8264956D02*
X12780356Y-8194244D01*
X12709644Y-8194244D01*
X12709644Y-8264956D01*
X12780356Y-8264956D01*
X12695000Y-8433600D02*
X12795000Y-8533600D01*
X12795000Y-8433600D02*
X12695000Y-8533600D01*
X12780356Y-8518956D02*
X12780356Y-8448244D01*
X12709644Y-8448244D01*
X12709644Y-8518956D01*
X12780356Y-8518956D01*
X12695000Y-8687600D02*
X12795000Y-8787600D01*
X12795000Y-8687600D02*
X12695000Y-8787600D01*
X12780356Y-8772956D02*
X12780356Y-8702244D01*
X12709644Y-8702244D01*
X12709644Y-8772956D01*
X12780356Y-8772956D01*
X12695000Y-8941600D02*
X12795000Y-9041600D01*
X12795000Y-8941600D02*
X12695000Y-9041600D01*
X12780356Y-9026956D02*
X12780356Y-8956244D01*
X12709644Y-8956244D01*
X12709644Y-9026956D01*
X12780356Y-9026956D01*
X12695000Y-9195600D02*
X12795000Y-9295600D01*
X12795000Y-9195600D02*
X12695000Y-9295600D01*
X12780356Y-9280956D02*
X12780356Y-9210244D01*
X12709644Y-9210244D01*
X12709644Y-9280956D01*
X12780356Y-9280956D01*
X12695000Y-9449600D02*
X12795000Y-9549600D01*
X12795000Y-9449600D02*
X12695000Y-9549600D01*
X12780356Y-9534956D02*
X12780356Y-9464244D01*
X12709644Y-9464244D01*
X12709644Y-9534956D01*
X12780356Y-9534956D01*
X12695000Y-9703600D02*
X12795000Y-9803600D01*
X12795000Y-9703600D02*
X12695000Y-9803600D01*
X12780356Y-9788956D02*
X12780356Y-9718244D01*
X12709644Y-9718244D01*
X12709644Y-9788956D01*
X12780356Y-9788956D01*
X12695000Y-9957600D02*
X12795000Y-10057600D01*
X12795000Y-9957600D02*
X12695000Y-10057600D01*
X12780356Y-10042956D02*
X12780356Y-9972244D01*
X12709644Y-9972244D01*
X12709644Y-10042956D01*
X12780356Y-10042956D01*
X11964200Y-8560600D02*
X12064200Y-8660600D01*
X12064200Y-8560600D02*
X11964200Y-8660600D01*
X12049556Y-8645956D02*
X12049556Y-8575244D01*
X11978844Y-8575244D01*
X11978844Y-8645956D01*
X12049556Y-8645956D01*
X11964200Y-8814600D02*
X12064200Y-8914600D01*
X12064200Y-8814600D02*
X11964200Y-8914600D01*
X12049556Y-8899956D02*
X12049556Y-8829244D01*
X11978844Y-8829244D01*
X11978844Y-8899956D01*
X12049556Y-8899956D01*
X11964200Y-9068600D02*
X12064200Y-9168600D01*
X12064200Y-9068600D02*
X11964200Y-9168600D01*
X12049556Y-9153956D02*
X12049556Y-9083244D01*
X11978844Y-9083244D01*
X11978844Y-9153956D01*
X12049556Y-9153956D01*
X11964200Y-9322600D02*
X12064200Y-9422600D01*
X12064200Y-9322600D02*
X11964200Y-9422600D01*
X12049556Y-9407956D02*
X12049556Y-9337244D01*
X11978844Y-9337244D01*
X11978844Y-9407956D01*
X12049556Y-9407956D01*
X10668800Y-8433600D02*
X10768800Y-8533600D01*
X10768800Y-8433600D02*
X10668800Y-8533600D01*
X10754156Y-8518956D02*
X10754156Y-8448244D01*
X10683444Y-8448244D01*
X10683444Y-8518956D01*
X10754156Y-8518956D01*
X10668800Y-8687600D02*
X10768800Y-8787600D01*
X10768800Y-8687600D02*
X10668800Y-8787600D01*
X10754156Y-8772956D02*
X10754156Y-8702244D01*
X10683444Y-8702244D01*
X10683444Y-8772956D01*
X10754156Y-8772956D01*
X10668800Y-8941600D02*
X10768800Y-9041600D01*
X10768800Y-8941600D02*
X10668800Y-9041600D01*
X10754156Y-9026956D02*
X10754156Y-8956244D01*
X10683444Y-8956244D01*
X10683444Y-9026956D01*
X10754156Y-9026956D01*
X10668800Y-9195600D02*
X10768800Y-9295600D01*
X10768800Y-9195600D02*
X10668800Y-9295600D01*
X10754156Y-9280956D02*
X10754156Y-9210244D01*
X10683444Y-9210244D01*
X10683444Y-9280956D01*
X10754156Y-9280956D01*
X10668800Y-9449600D02*
X10768800Y-9549600D01*
X10768800Y-9449600D02*
X10668800Y-9549600D01*
X10754156Y-9534956D02*
X10754156Y-9464244D01*
X10683444Y-9464244D01*
X10683444Y-9534956D01*
X10754156Y-9534956D01*
X10668800Y-9703600D02*
X10768800Y-9803600D01*
X10768800Y-9703600D02*
X10668800Y-9803600D01*
X10754156Y-9788956D02*
X10754156Y-9718244D01*
X10683444Y-9718244D01*
X10683444Y-9788956D01*
X10754156Y-9788956D01*
X10668800Y-9957600D02*
X10768800Y-10057600D01*
X10768800Y-9957600D02*
X10668800Y-10057600D01*
X10754156Y-10042956D02*
X10754156Y-9972244D01*
X10683444Y-9972244D01*
X10683444Y-10042956D01*
X10754156Y-10042956D01*
X12420400Y-6401600D02*
X12520400Y-6501600D01*
X12520400Y-6401600D02*
X12420400Y-6501600D01*
X12505756Y-6486956D02*
X12505756Y-6416244D01*
X12435044Y-6416244D01*
X12435044Y-6486956D01*
X12505756Y-6486956D01*
X12420400Y-6655600D02*
X12520400Y-6755600D01*
X12520400Y-6655600D02*
X12420400Y-6755600D01*
X12505756Y-6740956D02*
X12505756Y-6670244D01*
X12435044Y-6670244D01*
X12435044Y-6740956D01*
X12505756Y-6740956D01*
X12420400Y-6909600D02*
X12520400Y-7009600D01*
X12520400Y-6909600D02*
X12420400Y-7009600D01*
X12505756Y-6994956D02*
X12505756Y-6924244D01*
X12435044Y-6924244D01*
X12435044Y-6994956D01*
X12505756Y-6994956D01*
X12420400Y-7163600D02*
X12520400Y-7263600D01*
X12520400Y-7163600D02*
X12420400Y-7263600D01*
X12505756Y-7248956D02*
X12505756Y-7178244D01*
X12435044Y-7178244D01*
X12435044Y-7248956D01*
X12505756Y-7248956D01*
X12420400Y-7417600D02*
X12520400Y-7517600D01*
X12520400Y-7417600D02*
X12420400Y-7517600D01*
X12505756Y-7502956D02*
X12505756Y-7432244D01*
X12435044Y-7432244D01*
X12435044Y-7502956D01*
X12505756Y-7502956D01*
X12420400Y-7671600D02*
X12520400Y-7771600D01*
X12520400Y-7671600D02*
X12420400Y-7771600D01*
X12505756Y-7756956D02*
X12505756Y-7686244D01*
X12435044Y-7686244D01*
X12435044Y-7756956D01*
X12505756Y-7756956D01*
X12420400Y-7925600D02*
X12520400Y-8025600D01*
X12520400Y-7925600D02*
X12420400Y-8025600D01*
X12505756Y-8010956D02*
X12505756Y-7940244D01*
X12435044Y-7940244D01*
X12435044Y-8010956D01*
X12505756Y-8010956D01*
X12420400Y-8179600D02*
X12520400Y-8279600D01*
X12520400Y-8179600D02*
X12420400Y-8279600D01*
X12505756Y-8264956D02*
X12505756Y-8194244D01*
X12435044Y-8194244D01*
X12435044Y-8264956D01*
X12505756Y-8264956D01*
X12420400Y-8433600D02*
X12520400Y-8533600D01*
X12520400Y-8433600D02*
X12420400Y-8533600D01*
X12505756Y-8518956D02*
X12505756Y-8448244D01*
X12435044Y-8448244D01*
X12435044Y-8518956D01*
X12505756Y-8518956D01*
X12420400Y-8687600D02*
X12520400Y-8787600D01*
X12520400Y-8687600D02*
X12420400Y-8787600D01*
X12505756Y-8772956D02*
X12505756Y-8702244D01*
X12435044Y-8702244D01*
X12435044Y-8772956D01*
X12505756Y-8772956D01*
X12420400Y-8941600D02*
X12520400Y-9041600D01*
X12520400Y-8941600D02*
X12420400Y-9041600D01*
X12505756Y-9026956D02*
X12505756Y-8956244D01*
X12435044Y-8956244D01*
X12435044Y-9026956D01*
X12505756Y-9026956D01*
X12420400Y-9195600D02*
X12520400Y-9295600D01*
X12520400Y-9195600D02*
X12420400Y-9295600D01*
X12505756Y-9280956D02*
X12505756Y-9210244D01*
X12435044Y-9210244D01*
X12435044Y-9280956D01*
X12505756Y-9280956D01*
X12420400Y-9449600D02*
X12520400Y-9549600D01*
X12520400Y-9449600D02*
X12420400Y-9549600D01*
X12505756Y-9534956D02*
X12505756Y-9464244D01*
X12435044Y-9464244D01*
X12435044Y-9534956D01*
X12505756Y-9534956D01*
X12420400Y-9703600D02*
X12520400Y-9803600D01*
X12520400Y-9703600D02*
X12420400Y-9803600D01*
X12505756Y-9788956D02*
X12505756Y-9718244D01*
X12435044Y-9718244D01*
X12435044Y-9788956D01*
X12505756Y-9788956D01*
X12420400Y-9957600D02*
X12520400Y-10057600D01*
X12520400Y-9957600D02*
X12420400Y-10057600D01*
X12505756Y-10042956D02*
X12505756Y-9972244D01*
X12435044Y-9972244D01*
X12435044Y-10042956D01*
X12505756Y-10042956D01*
X13396200Y-4979200D02*
X13496200Y-5079200D01*
X13496200Y-4979200D02*
X13396200Y-5079200D01*
X13481556Y-5064556D02*
X13481556Y-4993844D01*
X13410844Y-4993844D01*
X13410844Y-5064556D01*
X13481556Y-5064556D01*
X13650200Y-4979200D02*
X13750200Y-5079200D01*
X13750200Y-4979200D02*
X13650200Y-5079200D01*
X13735556Y-5064556D02*
X13735556Y-4993844D01*
X13664844Y-4993844D01*
X13664844Y-5064556D01*
X13735556Y-5064556D01*
X13904200Y-4979200D02*
X14004200Y-5079200D01*
X14004200Y-4979200D02*
X13904200Y-5079200D01*
X13989556Y-5064556D02*
X13989556Y-4993844D01*
X13918844Y-4993844D01*
X13918844Y-5064556D01*
X13989556Y-5064556D01*
X14158200Y-4979200D02*
X14258200Y-5079200D01*
X14258200Y-4979200D02*
X14158200Y-5079200D01*
X14243556Y-5064556D02*
X14243556Y-4993844D01*
X14172844Y-4993844D01*
X14172844Y-5064556D01*
X14243556Y-5064556D01*
X14412200Y-4979200D02*
X14512200Y-5079200D01*
X14512200Y-4979200D02*
X14412200Y-5079200D01*
X14497556Y-5064556D02*
X14497556Y-4993844D01*
X14426844Y-4993844D01*
X14426844Y-5064556D01*
X14497556Y-5064556D01*
X14666200Y-4979200D02*
X14766200Y-5079200D01*
X14766200Y-4979200D02*
X14666200Y-5079200D01*
X14751556Y-5064556D02*
X14751556Y-4993844D01*
X14680844Y-4993844D01*
X14680844Y-5064556D01*
X14751556Y-5064556D01*
X14920200Y-4979200D02*
X15020200Y-5079200D01*
X15020200Y-4979200D02*
X14920200Y-5079200D01*
X15005556Y-5064556D02*
X15005556Y-4993844D01*
X14934844Y-4993844D01*
X14934844Y-5064556D01*
X15005556Y-5064556D01*
X11761000Y-10567200D02*
X11861000Y-10667200D01*
X11861000Y-10567200D02*
X11761000Y-10667200D01*
X11846356Y-10652556D02*
X11846356Y-10581844D01*
X11775644Y-10581844D01*
X11775644Y-10652556D01*
X11846356Y-10652556D01*
X12011000Y-10567200D02*
X12111000Y-10667200D01*
X12111000Y-10567200D02*
X12011000Y-10667200D01*
X12096356Y-10652556D02*
X12096356Y-10581844D01*
X12025644Y-10581844D01*
X12025644Y-10652556D01*
X12096356Y-10652556D01*
X13488200Y-5461800D02*
X13588200Y-5561800D01*
X13588200Y-5461800D02*
X13488200Y-5561800D01*
X13573556Y-5547156D02*
X13573556Y-5476444D01*
X13502844Y-5476444D01*
X13502844Y-5547156D01*
X13573556Y-5547156D01*
X13488200Y-5715800D02*
X13588200Y-5815800D01*
X13588200Y-5715800D02*
X13488200Y-5815800D01*
X13573556Y-5801156D02*
X13573556Y-5730444D01*
X13502844Y-5730444D01*
X13502844Y-5801156D01*
X13573556Y-5801156D01*
X13488200Y-5969800D02*
X13588200Y-6069800D01*
X13588200Y-5969800D02*
X13488200Y-6069800D01*
X13573556Y-6055156D02*
X13573556Y-5984444D01*
X13502844Y-5984444D01*
X13502844Y-6055156D01*
X13573556Y-6055156D01*
X13818400Y-5461800D02*
X13918400Y-5561800D01*
X13918400Y-5461800D02*
X13818400Y-5561800D01*
X13903756Y-5547156D02*
X13903756Y-5476444D01*
X13833044Y-5476444D01*
X13833044Y-5547156D01*
X13903756Y-5547156D01*
X13818400Y-5715800D02*
X13918400Y-5815800D01*
X13918400Y-5715800D02*
X13818400Y-5815800D01*
X13903756Y-5801156D02*
X13903756Y-5730444D01*
X13833044Y-5730444D01*
X13833044Y-5801156D01*
X13903756Y-5801156D01*
X13818400Y-5969800D02*
X13918400Y-6069800D01*
X13918400Y-5969800D02*
X13818400Y-6069800D01*
X13903756Y-6055156D02*
X13903756Y-5984444D01*
X13833044Y-5984444D01*
X13833044Y-6055156D01*
X13903756Y-6055156D01*
X10592600Y-7925600D02*
X10692600Y-8025600D01*
X10692600Y-7925600D02*
X10592600Y-8025600D01*
X10677956Y-8010956D02*
X10677956Y-7940244D01*
X10607244Y-7940244D01*
X10607244Y-8010956D01*
X10677956Y-8010956D01*
X10846600Y-7925600D02*
X10946600Y-8025600D01*
X10946600Y-7925600D02*
X10846600Y-8025600D01*
X10931956Y-8010956D02*
X10931956Y-7940244D01*
X10861244Y-7940244D01*
X10861244Y-8010956D01*
X10931956Y-8010956D01*
X11100600Y-7925600D02*
X11200600Y-8025600D01*
X11200600Y-7925600D02*
X11100600Y-8025600D01*
X11185956Y-8010956D02*
X11185956Y-7940244D01*
X11115244Y-7940244D01*
X11115244Y-8010956D01*
X11185956Y-8010956D01*
X10134400Y-6401600D02*
X10234400Y-6501600D01*
X10234400Y-6401600D02*
X10134400Y-6501600D01*
X10219756Y-6486956D02*
X10219756Y-6416244D01*
X10149044Y-6416244D01*
X10149044Y-6486956D01*
X10219756Y-6486956D01*
X10134400Y-6655600D02*
X10234400Y-6755600D01*
X10234400Y-6655600D02*
X10134400Y-6755600D01*
X10219756Y-6740956D02*
X10219756Y-6670244D01*
X10149044Y-6670244D01*
X10149044Y-6740956D01*
X10219756Y-6740956D01*
X10134400Y-6909600D02*
X10234400Y-7009600D01*
X10234400Y-6909600D02*
X10134400Y-7009600D01*
X10219756Y-6994956D02*
X10219756Y-6924244D01*
X10149044Y-6924244D01*
X10149044Y-6994956D01*
X10219756Y-6994956D01*
X10134400Y-7163600D02*
X10234400Y-7263600D01*
X10234400Y-7163600D02*
X10134400Y-7263600D01*
X10219756Y-7248956D02*
X10219756Y-7178244D01*
X10149044Y-7178244D01*
X10149044Y-7248956D01*
X10219756Y-7248956D01*
X10134400Y-7417600D02*
X10234400Y-7517600D01*
X10234400Y-7417600D02*
X10134400Y-7517600D01*
X10219756Y-7502956D02*
X10219756Y-7432244D01*
X10149044Y-7432244D01*
X10149044Y-7502956D01*
X10219756Y-7502956D01*
X10134400Y-7671600D02*
X10234400Y-7771600D01*
X10234400Y-7671600D02*
X10134400Y-7771600D01*
X10219756Y-7756956D02*
X10219756Y-7686244D01*
X10149044Y-7686244D01*
X10149044Y-7756956D01*
X10219756Y-7756956D01*
X10134400Y-7925600D02*
X10234400Y-8025600D01*
X10234400Y-7925600D02*
X10134400Y-8025600D01*
X10219756Y-8010956D02*
X10219756Y-7940244D01*
X10149044Y-7940244D01*
X10149044Y-8010956D01*
X10219756Y-8010956D01*
X10134400Y-8179600D02*
X10234400Y-8279600D01*
X10234400Y-8179600D02*
X10134400Y-8279600D01*
X10219756Y-8264956D02*
X10219756Y-8194244D01*
X10149044Y-8194244D01*
X10149044Y-8264956D01*
X10219756Y-8264956D01*
X10134400Y-8433600D02*
X10234400Y-8533600D01*
X10234400Y-8433600D02*
X10134400Y-8533600D01*
X10219756Y-8518956D02*
X10219756Y-8448244D01*
X10149044Y-8448244D01*
X10149044Y-8518956D01*
X10219756Y-8518956D01*
X10134400Y-8687600D02*
X10234400Y-8787600D01*
X10234400Y-8687600D02*
X10134400Y-8787600D01*
X10219756Y-8772956D02*
X10219756Y-8702244D01*
X10149044Y-8702244D01*
X10149044Y-8772956D01*
X10219756Y-8772956D01*
X10134400Y-8941600D02*
X10234400Y-9041600D01*
X10234400Y-8941600D02*
X10134400Y-9041600D01*
X10219756Y-9026956D02*
X10219756Y-8956244D01*
X10149044Y-8956244D01*
X10149044Y-9026956D01*
X10219756Y-9026956D01*
X10134400Y-9195600D02*
X10234400Y-9295600D01*
X10234400Y-9195600D02*
X10134400Y-9295600D01*
X10219756Y-9280956D02*
X10219756Y-9210244D01*
X10149044Y-9210244D01*
X10149044Y-9280956D01*
X10219756Y-9280956D01*
X10134400Y-9449600D02*
X10234400Y-9549600D01*
X10234400Y-9449600D02*
X10134400Y-9549600D01*
X10219756Y-9534956D02*
X10219756Y-9464244D01*
X10149044Y-9464244D01*
X10149044Y-9534956D01*
X10219756Y-9534956D01*
X10134400Y-9703600D02*
X10234400Y-9803600D01*
X10234400Y-9703600D02*
X10134400Y-9803600D01*
X10219756Y-9788956D02*
X10219756Y-9718244D01*
X10149044Y-9718244D01*
X10149044Y-9788956D01*
X10219756Y-9788956D01*
X10134400Y-9957600D02*
X10234400Y-10057600D01*
X10234400Y-9957600D02*
X10134400Y-10057600D01*
X10219756Y-10042956D02*
X10219756Y-9972244D01*
X10149044Y-9972244D01*
X10149044Y-10042956D01*
X10219756Y-10042956D01*
X10592600Y-7392200D02*
X10692600Y-7492200D01*
X10692600Y-7392200D02*
X10592600Y-7492200D01*
X10677956Y-7477556D02*
X10677956Y-7406844D01*
X10607244Y-7406844D01*
X10607244Y-7477556D01*
X10677956Y-7477556D01*
X10846600Y-7392200D02*
X10946600Y-7492200D01*
X10946600Y-7392200D02*
X10846600Y-7492200D01*
X10931956Y-7477556D02*
X10931956Y-7406844D01*
X10861244Y-7406844D01*
X10861244Y-7477556D01*
X10931956Y-7477556D01*
X11100600Y-7392200D02*
X11200600Y-7492200D01*
X11200600Y-7392200D02*
X11100600Y-7492200D01*
X11185956Y-7477556D02*
X11185956Y-7406844D01*
X11115244Y-7406844D01*
X11115244Y-7477556D01*
X11185956Y-7477556D01*
X11354600Y-7392200D02*
X11454600Y-7492200D01*
X11454600Y-7392200D02*
X11354600Y-7492200D01*
X11439956Y-7477556D02*
X11439956Y-7406844D01*
X11369244Y-7406844D01*
X11369244Y-7477556D01*
X11439956Y-7477556D01*
X11608600Y-7392200D02*
X11708600Y-7492200D01*
X11708600Y-7392200D02*
X11608600Y-7492200D01*
X11693956Y-7477556D02*
X11693956Y-7406844D01*
X11623244Y-7406844D01*
X11623244Y-7477556D01*
X11693956Y-7477556D01*
X10033800Y-10567200D02*
X10133800Y-10667200D01*
X10133800Y-10567200D02*
X10033800Y-10667200D01*
X10119156Y-10652556D02*
X10119156Y-10581844D01*
X10048444Y-10581844D01*
X10048444Y-10652556D01*
X10119156Y-10652556D01*
X10283800Y-10567200D02*
X10383800Y-10667200D01*
X10383800Y-10567200D02*
X10283800Y-10667200D01*
X10369156Y-10652556D02*
X10369156Y-10581844D01*
X10298444Y-10581844D01*
X10298444Y-10652556D01*
X10369156Y-10652556D01*
X14301000Y-6376200D02*
X14401000Y-6476200D01*
X14401000Y-6376200D02*
X14301000Y-6476200D01*
X14386356Y-6461556D02*
X14386356Y-6390844D01*
X14315644Y-6390844D01*
X14315644Y-6461556D01*
X14386356Y-6461556D01*
X14301000Y-6630200D02*
X14401000Y-6730200D01*
X14401000Y-6630200D02*
X14301000Y-6730200D01*
X14386356Y-6715556D02*
X14386356Y-6644844D01*
X14315644Y-6644844D01*
X14315644Y-6715556D01*
X14386356Y-6715556D01*
X14301000Y-6884200D02*
X14401000Y-6984200D01*
X14401000Y-6884200D02*
X14301000Y-6984200D01*
X14386356Y-6969556D02*
X14386356Y-6898844D01*
X14315644Y-6898844D01*
X14315644Y-6969556D01*
X14386356Y-6969556D01*
X14301000Y-7138200D02*
X14401000Y-7238200D01*
X14401000Y-7138200D02*
X14301000Y-7238200D01*
X14386356Y-7223556D02*
X14386356Y-7152844D01*
X14315644Y-7152844D01*
X14315644Y-7223556D01*
X14386356Y-7223556D01*
X14301000Y-7392200D02*
X14401000Y-7492200D01*
X14401000Y-7392200D02*
X14301000Y-7492200D01*
X14386356Y-7477556D02*
X14386356Y-7406844D01*
X14315644Y-7406844D01*
X14315644Y-7477556D01*
X14386356Y-7477556D01*
X14301000Y-7646200D02*
X14401000Y-7746200D01*
X14401000Y-7646200D02*
X14301000Y-7746200D01*
X14386356Y-7731556D02*
X14386356Y-7660844D01*
X14315644Y-7660844D01*
X14315644Y-7731556D01*
X14386356Y-7731556D01*
X14301000Y-7900200D02*
X14401000Y-8000200D01*
X14401000Y-7900200D02*
X14301000Y-8000200D01*
X14386356Y-7985556D02*
X14386356Y-7914844D01*
X14315644Y-7914844D01*
X14315644Y-7985556D01*
X14386356Y-7985556D01*
X14301000Y-8154200D02*
X14401000Y-8254200D01*
X14401000Y-8154200D02*
X14301000Y-8254200D01*
X14386356Y-8239556D02*
X14386356Y-8168844D01*
X14315644Y-8168844D01*
X14315644Y-8239556D01*
X14386356Y-8239556D01*
X14301000Y-8408200D02*
X14401000Y-8508200D01*
X14401000Y-8408200D02*
X14301000Y-8508200D01*
X14386356Y-8493556D02*
X14386356Y-8422844D01*
X14315644Y-8422844D01*
X14315644Y-8493556D01*
X14386356Y-8493556D01*
X14301000Y-8662200D02*
X14401000Y-8762200D01*
X14401000Y-8662200D02*
X14301000Y-8762200D01*
X14386356Y-8747556D02*
X14386356Y-8676844D01*
X14315644Y-8676844D01*
X14315644Y-8747556D01*
X14386356Y-8747556D01*
X14301000Y-8916200D02*
X14401000Y-9016200D01*
X14401000Y-8916200D02*
X14301000Y-9016200D01*
X14386356Y-9001556D02*
X14386356Y-8930844D01*
X14315644Y-8930844D01*
X14315644Y-9001556D01*
X14386356Y-9001556D01*
X10897400Y-10567200D02*
X10997400Y-10667200D01*
X10997400Y-10567200D02*
X10897400Y-10667200D01*
X10982756Y-10652556D02*
X10982756Y-10581844D01*
X10912044Y-10581844D01*
X10912044Y-10652556D01*
X10982756Y-10652556D01*
X11147400Y-10567200D02*
X11247400Y-10667200D01*
X11247400Y-10567200D02*
X11147400Y-10667200D01*
X11232756Y-10652556D02*
X11232756Y-10581844D01*
X11162044Y-10581844D01*
X11162044Y-10652556D01*
X11232756Y-10652556D01*
D12*
X9961328Y-11441014D02*
X9961328Y-11141014D01*
X10032757Y-11141014D01*
X10075614Y-11155300D01*
X10104186Y-11183872D01*
X10118471Y-11212443D01*
X10132757Y-11269586D01*
X10132757Y-11312443D01*
X10118471Y-11369586D01*
X10104186Y-11398157D01*
X10075614Y-11426729D01*
X10032757Y-11441014D01*
X9961328Y-11441014D01*
X10261328Y-11441014D02*
X10261328Y-11241014D01*
X10261328Y-11298157D02*
X10275614Y-11269586D01*
X10289900Y-11255300D01*
X10318471Y-11241014D01*
X10347043Y-11241014D01*
X10447043Y-11441014D02*
X10447043Y-11241014D01*
X10447043Y-11141014D02*
X10432757Y-11155300D01*
X10447043Y-11169586D01*
X10461328Y-11155300D01*
X10447043Y-11141014D01*
X10447043Y-11169586D01*
X10632757Y-11441014D02*
X10604186Y-11426729D01*
X10589900Y-11398157D01*
X10589900Y-11141014D01*
X10789900Y-11441014D02*
X10761328Y-11426729D01*
X10747043Y-11398157D01*
X10747043Y-11141014D01*
X11132757Y-11441014D02*
X11132757Y-11141014D01*
X11232757Y-11355300D01*
X11332757Y-11141014D01*
X11332757Y-11441014D01*
X11604186Y-11441014D02*
X11604186Y-11283871D01*
X11589900Y-11255300D01*
X11561328Y-11241014D01*
X11504186Y-11241014D01*
X11475614Y-11255300D01*
X11604186Y-11426729D02*
X11575614Y-11441014D01*
X11504186Y-11441014D01*
X11475614Y-11426729D01*
X11461328Y-11398157D01*
X11461328Y-11369586D01*
X11475614Y-11341014D01*
X11504186Y-11326729D01*
X11575614Y-11326729D01*
X11604186Y-11312443D01*
X11747043Y-11241014D02*
X11747043Y-11541014D01*
X11747043Y-11255300D02*
X11775614Y-11241014D01*
X11832757Y-11241014D01*
X11861328Y-11255300D01*
X11875614Y-11269586D01*
X11889900Y-11298157D01*
X11889900Y-11383871D01*
X11875614Y-11412443D01*
X11861328Y-11426729D01*
X11832757Y-11441014D01*
X11775614Y-11441014D01*
X11747043Y-11426729D01*
X12018471Y-11412443D02*
X12032757Y-11426729D01*
X12018471Y-11441014D01*
X12004186Y-11426729D01*
X12018471Y-11412443D01*
X12018471Y-11441014D01*
X12018471Y-11255300D02*
X12032757Y-11269586D01*
X12018471Y-11283871D01*
X12004186Y-11269586D01*
X12018471Y-11255300D01*
X12018471Y-11283871D01*
X9639900Y-11917800D02*
X9674900Y-11952800D01*
X9674900Y-11917800D02*
X9639900Y-11952800D01*
X10018471Y-11771014D02*
X10047043Y-11771014D01*
X10075614Y-11785300D01*
X10089900Y-11799586D01*
X10104186Y-11828157D01*
X10118471Y-11885300D01*
X10118471Y-11956729D01*
X10104186Y-12013871D01*
X10089900Y-12042443D01*
X10075614Y-12056729D01*
X10047043Y-12071014D01*
X10018471Y-12071014D01*
X9989900Y-12056729D01*
X9975614Y-12042443D01*
X9961328Y-12013871D01*
X9947043Y-11956729D01*
X9947043Y-11885300D01*
X9961328Y-11828157D01*
X9975614Y-11799586D01*
X9989900Y-11785300D01*
X10018471Y-11771014D01*
X10247043Y-12042443D02*
X10261328Y-12056729D01*
X10247043Y-12071014D01*
X10232757Y-12056729D01*
X10247043Y-12042443D01*
X10247043Y-12071014D01*
X10361328Y-11771014D02*
X10547043Y-11771014D01*
X10447043Y-11885300D01*
X10489900Y-11885300D01*
X10518471Y-11899586D01*
X10532757Y-11913871D01*
X10547043Y-11942443D01*
X10547043Y-12013871D01*
X10532757Y-12042443D01*
X10518471Y-12056729D01*
X10489900Y-12071014D01*
X10404186Y-12071014D01*
X10375614Y-12056729D01*
X10361328Y-12042443D01*
X10818471Y-11771014D02*
X10675614Y-11771014D01*
X10661328Y-11913871D01*
X10675614Y-11899586D01*
X10704186Y-11885300D01*
X10775614Y-11885300D01*
X10804186Y-11899586D01*
X10818471Y-11913871D01*
X10832757Y-11942443D01*
X10832757Y-12013871D01*
X10818471Y-12042443D01*
X10804186Y-12056729D01*
X10775614Y-12071014D01*
X10704186Y-12071014D01*
X10675614Y-12056729D01*
X10661328Y-12042443D01*
X10961328Y-12071014D02*
X10961328Y-11871014D01*
X10961328Y-11899586D02*
X10975614Y-11885300D01*
X11004186Y-11871014D01*
X11047043Y-11871014D01*
X11075614Y-11885300D01*
X11089900Y-11913871D01*
X11089900Y-12071014D01*
X11089900Y-11913871D02*
X11104186Y-11885300D01*
X11132757Y-11871014D01*
X11175614Y-11871014D01*
X11204186Y-11885300D01*
X11218471Y-11913871D01*
X11218471Y-12071014D01*
X11361328Y-12071014D02*
X11361328Y-11871014D01*
X11361328Y-11899586D02*
X11375614Y-11885300D01*
X11404186Y-11871014D01*
X11447043Y-11871014D01*
X11475614Y-11885300D01*
X11489900Y-11913871D01*
X11489900Y-12071014D01*
X11489900Y-11913871D02*
X11504186Y-11885300D01*
X11532757Y-11871014D01*
X11575614Y-11871014D01*
X11604186Y-11885300D01*
X11618471Y-11913871D01*
X11618471Y-12071014D01*
X12204186Y-11756729D02*
X11947043Y-12142443D01*
X12589900Y-11771014D02*
X12618471Y-11771014D01*
X12647043Y-11785300D01*
X12661328Y-11799586D01*
X12675614Y-11828157D01*
X12689900Y-11885300D01*
X12689900Y-11956729D01*
X12675614Y-12013871D01*
X12661328Y-12042443D01*
X12647043Y-12056729D01*
X12618471Y-12071014D01*
X12589900Y-12071014D01*
X12561328Y-12056729D01*
X12547043Y-12042443D01*
X12532757Y-12013871D01*
X12518471Y-11956729D01*
X12518471Y-11885300D01*
X12532757Y-11828157D01*
X12547043Y-11799586D01*
X12561328Y-11785300D01*
X12589900Y-11771014D01*
X12818471Y-12042443D02*
X12832757Y-12056729D01*
X12818471Y-12071014D01*
X12804186Y-12056729D01*
X12818471Y-12042443D01*
X12818471Y-12071014D01*
X13018471Y-11771014D02*
X13047043Y-11771014D01*
X13075614Y-11785300D01*
X13089900Y-11799586D01*
X13104186Y-11828157D01*
X13118471Y-11885300D01*
X13118471Y-11956729D01*
X13104186Y-12013871D01*
X13089900Y-12042443D01*
X13075614Y-12056729D01*
X13047043Y-12071014D01*
X13018471Y-12071014D01*
X12989900Y-12056729D01*
X12975614Y-12042443D01*
X12961328Y-12013871D01*
X12947043Y-11956729D01*
X12947043Y-11885300D01*
X12961328Y-11828157D01*
X12975614Y-11799586D01*
X12989900Y-11785300D01*
X13018471Y-11771014D01*
X13404186Y-12071014D02*
X13232757Y-12071014D01*
X13318471Y-12071014D02*
X13318471Y-11771014D01*
X13289900Y-11813871D01*
X13261328Y-11842443D01*
X13232757Y-11856729D01*
X13661328Y-11871014D02*
X13661328Y-12071014D01*
X13589900Y-11756729D02*
X13518471Y-11971014D01*
X13704186Y-11971014D01*
X13804186Y-11771014D02*
X13804186Y-11828157D01*
X13918471Y-11771014D02*
X13918471Y-11828157D01*
X14361328Y-12185300D02*
X14347043Y-12171014D01*
X14318471Y-12128157D01*
X14304186Y-12099586D01*
X14289900Y-12056729D01*
X14275614Y-11985300D01*
X14275614Y-11928157D01*
X14289900Y-11856729D01*
X14304186Y-11813871D01*
X14318471Y-11785300D01*
X14347043Y-11742443D01*
X14361328Y-11728157D01*
X14532757Y-11771014D02*
X14561328Y-11771014D01*
X14589900Y-11785300D01*
X14604186Y-11799586D01*
X14618471Y-11828157D01*
X14632757Y-11885300D01*
X14632757Y-11956729D01*
X14618471Y-12013871D01*
X14604186Y-12042443D01*
X14589900Y-12056729D01*
X14561328Y-12071014D01*
X14532757Y-12071014D01*
X14504186Y-12056729D01*
X14489900Y-12042443D01*
X14475614Y-12013871D01*
X14461328Y-11956729D01*
X14461328Y-11885300D01*
X14475614Y-11828157D01*
X14489900Y-11799586D01*
X14504186Y-11785300D01*
X14532757Y-11771014D01*
X14989900Y-12071014D02*
X14989900Y-11771014D01*
X15118471Y-12071014D02*
X15118471Y-11913871D01*
X15104186Y-11885300D01*
X15075614Y-11871014D01*
X15032757Y-11871014D01*
X15004186Y-11885300D01*
X14989900Y-11899586D01*
X15304186Y-12071014D02*
X15275614Y-12056729D01*
X15261328Y-12042443D01*
X15247043Y-12013871D01*
X15247043Y-11928157D01*
X15261328Y-11899586D01*
X15275614Y-11885300D01*
X15304186Y-11871014D01*
X15347043Y-11871014D01*
X15375614Y-11885300D01*
X15389900Y-11899586D01*
X15404186Y-11928157D01*
X15404186Y-12013871D01*
X15389900Y-12042443D01*
X15375614Y-12056729D01*
X15347043Y-12071014D01*
X15304186Y-12071014D01*
X15575614Y-12071014D02*
X15547043Y-12056729D01*
X15532757Y-12028157D01*
X15532757Y-11771014D01*
X15804186Y-12056729D02*
X15775614Y-12071014D01*
X15718471Y-12071014D01*
X15689900Y-12056729D01*
X15675614Y-12028157D01*
X15675614Y-11913871D01*
X15689900Y-11885300D01*
X15718471Y-11871014D01*
X15775614Y-11871014D01*
X15804186Y-11885300D01*
X15818471Y-11913871D01*
X15818471Y-11942443D01*
X15675614Y-11971014D01*
X15932757Y-12056729D02*
X15961328Y-12071014D01*
X16018471Y-12071014D01*
X16047043Y-12056729D01*
X16061328Y-12028157D01*
X16061328Y-12013871D01*
X16047043Y-11985300D01*
X16018471Y-11971014D01*
X15975614Y-11971014D01*
X15947043Y-11956729D01*
X15932757Y-11928157D01*
X15932757Y-11913871D01*
X15947043Y-11885300D01*
X15975614Y-11871014D01*
X16018471Y-11871014D01*
X16047043Y-11885300D01*
X16418471Y-11956729D02*
X16647043Y-11956729D01*
X16532757Y-12071014D02*
X16532757Y-11842443D01*
X17004186Y-11799586D02*
X17018471Y-11785300D01*
X17047043Y-11771014D01*
X17118471Y-11771014D01*
X17147043Y-11785300D01*
X17161328Y-11799586D01*
X17175614Y-11828157D01*
X17175614Y-11856729D01*
X17161328Y-11899586D01*
X16989900Y-12071014D01*
X17175614Y-12071014D01*
X17518471Y-12056729D02*
X17547043Y-12071014D01*
X17604186Y-12071014D01*
X17632757Y-12056729D01*
X17647043Y-12028157D01*
X17647043Y-12013871D01*
X17632757Y-11985300D01*
X17604186Y-11971014D01*
X17561328Y-11971014D01*
X17532757Y-11956729D01*
X17518471Y-11928157D01*
X17518471Y-11913871D01*
X17532757Y-11885300D01*
X17561328Y-11871014D01*
X17604186Y-11871014D01*
X17632757Y-11885300D01*
X17818471Y-12071014D02*
X17789900Y-12056729D01*
X17775614Y-12028157D01*
X17775614Y-11771014D01*
X17975614Y-12071014D02*
X17947043Y-12056729D01*
X17932757Y-12042443D01*
X17918471Y-12013871D01*
X17918471Y-11928157D01*
X17932757Y-11899586D01*
X17947043Y-11885300D01*
X17975614Y-11871014D01*
X18018471Y-11871014D01*
X18047043Y-11885300D01*
X18061328Y-11899586D01*
X18075614Y-11928157D01*
X18075614Y-12013871D01*
X18061328Y-12042443D01*
X18047043Y-12056729D01*
X18018471Y-12071014D01*
X17975614Y-12071014D01*
X18161328Y-11871014D02*
X18275614Y-11871014D01*
X18204186Y-11771014D02*
X18204186Y-12028157D01*
X18218471Y-12056729D01*
X18247043Y-12071014D01*
X18275614Y-12071014D01*
X18361328Y-12056729D02*
X18389900Y-12071014D01*
X18447043Y-12071014D01*
X18475614Y-12056729D01*
X18489900Y-12028157D01*
X18489900Y-12013871D01*
X18475614Y-11985300D01*
X18447043Y-11971014D01*
X18404186Y-11971014D01*
X18375614Y-11956729D01*
X18361328Y-11928157D01*
X18361328Y-11913871D01*
X18375614Y-11885300D01*
X18404186Y-11871014D01*
X18447043Y-11871014D01*
X18475614Y-11885300D01*
X18589900Y-12185300D02*
X18604186Y-12171014D01*
X18632757Y-12128157D01*
X18647043Y-12099586D01*
X18661328Y-12056729D01*
X18675614Y-11985300D01*
X18675614Y-11928157D01*
X18661328Y-11856729D01*
X18647043Y-11813871D01*
X18632757Y-11785300D01*
X18604186Y-11742443D01*
X18589900Y-11728157D01*
X9674900Y-12331300D02*
G75*
G03X9674900Y-12331300I-20000J0D01*
G01*
X10018471Y-12167014D02*
X10047043Y-12167014D01*
X10075614Y-12181300D01*
X10089900Y-12195586D01*
X10104186Y-12224157D01*
X10118471Y-12281300D01*
X10118471Y-12352729D01*
X10104186Y-12409871D01*
X10089900Y-12438443D01*
X10075614Y-12452729D01*
X10047043Y-12467014D01*
X10018471Y-12467014D01*
X9989900Y-12452729D01*
X9975614Y-12438443D01*
X9961328Y-12409871D01*
X9947043Y-12352729D01*
X9947043Y-12281300D01*
X9961328Y-12224157D01*
X9975614Y-12195586D01*
X9989900Y-12181300D01*
X10018471Y-12167014D01*
X10247043Y-12438443D02*
X10261328Y-12452729D01*
X10247043Y-12467014D01*
X10232757Y-12452729D01*
X10247043Y-12438443D01*
X10247043Y-12467014D01*
X10518471Y-12267014D02*
X10518471Y-12467014D01*
X10447043Y-12152729D02*
X10375614Y-12367014D01*
X10561328Y-12367014D01*
X10732757Y-12167014D02*
X10761328Y-12167014D01*
X10789900Y-12181300D01*
X10804186Y-12195586D01*
X10818471Y-12224157D01*
X10832757Y-12281300D01*
X10832757Y-12352729D01*
X10818471Y-12409871D01*
X10804186Y-12438443D01*
X10789900Y-12452729D01*
X10761328Y-12467014D01*
X10732757Y-12467014D01*
X10704186Y-12452729D01*
X10689900Y-12438443D01*
X10675614Y-12409871D01*
X10661328Y-12352729D01*
X10661328Y-12281300D01*
X10675614Y-12224157D01*
X10689900Y-12195586D01*
X10704186Y-12181300D01*
X10732757Y-12167014D01*
X10961328Y-12467014D02*
X10961328Y-12267014D01*
X10961328Y-12295586D02*
X10975614Y-12281300D01*
X11004186Y-12267014D01*
X11047043Y-12267014D01*
X11075614Y-12281300D01*
X11089900Y-12309871D01*
X11089900Y-12467014D01*
X11089900Y-12309871D02*
X11104186Y-12281300D01*
X11132757Y-12267014D01*
X11175614Y-12267014D01*
X11204186Y-12281300D01*
X11218471Y-12309871D01*
X11218471Y-12467014D01*
X11361328Y-12467014D02*
X11361328Y-12267014D01*
X11361328Y-12295586D02*
X11375614Y-12281300D01*
X11404186Y-12267014D01*
X11447043Y-12267014D01*
X11475614Y-12281300D01*
X11489900Y-12309871D01*
X11489900Y-12467014D01*
X11489900Y-12309871D02*
X11504186Y-12281300D01*
X11532757Y-12267014D01*
X11575614Y-12267014D01*
X11604186Y-12281300D01*
X11618471Y-12309871D01*
X11618471Y-12467014D01*
X12204186Y-12152729D02*
X11947043Y-12538443D01*
X12589900Y-12167014D02*
X12618471Y-12167014D01*
X12647043Y-12181300D01*
X12661328Y-12195586D01*
X12675614Y-12224157D01*
X12689900Y-12281300D01*
X12689900Y-12352729D01*
X12675614Y-12409871D01*
X12661328Y-12438443D01*
X12647043Y-12452729D01*
X12618471Y-12467014D01*
X12589900Y-12467014D01*
X12561328Y-12452729D01*
X12547043Y-12438443D01*
X12532757Y-12409871D01*
X12518471Y-12352729D01*
X12518471Y-12281300D01*
X12532757Y-12224157D01*
X12547043Y-12195586D01*
X12561328Y-12181300D01*
X12589900Y-12167014D01*
X12818471Y-12438443D02*
X12832757Y-12452729D01*
X12818471Y-12467014D01*
X12804186Y-12452729D01*
X12818471Y-12438443D01*
X12818471Y-12467014D01*
X13018471Y-12167014D02*
X13047043Y-12167014D01*
X13075614Y-12181300D01*
X13089900Y-12195586D01*
X13104186Y-12224157D01*
X13118471Y-12281300D01*
X13118471Y-12352729D01*
X13104186Y-12409871D01*
X13089900Y-12438443D01*
X13075614Y-12452729D01*
X13047043Y-12467014D01*
X13018471Y-12467014D01*
X12989900Y-12452729D01*
X12975614Y-12438443D01*
X12961328Y-12409871D01*
X12947043Y-12352729D01*
X12947043Y-12281300D01*
X12961328Y-12224157D01*
X12975614Y-12195586D01*
X12989900Y-12181300D01*
X13018471Y-12167014D01*
X13404186Y-12467014D02*
X13232757Y-12467014D01*
X13318471Y-12467014D02*
X13318471Y-12167014D01*
X13289900Y-12209871D01*
X13261328Y-12238443D01*
X13232757Y-12252729D01*
X13661328Y-12167014D02*
X13604186Y-12167014D01*
X13575614Y-12181300D01*
X13561328Y-12195586D01*
X13532757Y-12238443D01*
X13518471Y-12295586D01*
X13518471Y-12409871D01*
X13532757Y-12438443D01*
X13547043Y-12452729D01*
X13575614Y-12467014D01*
X13632757Y-12467014D01*
X13661328Y-12452729D01*
X13675614Y-12438443D01*
X13689900Y-12409871D01*
X13689900Y-12338443D01*
X13675614Y-12309871D01*
X13661328Y-12295586D01*
X13632757Y-12281300D01*
X13575614Y-12281300D01*
X13547043Y-12295586D01*
X13532757Y-12309871D01*
X13518471Y-12338443D01*
X13804186Y-12167014D02*
X13804186Y-12224157D01*
X13918471Y-12167014D02*
X13918471Y-12224157D01*
X14361328Y-12581300D02*
X14347043Y-12567014D01*
X14318471Y-12524157D01*
X14304186Y-12495586D01*
X14289900Y-12452729D01*
X14275614Y-12381300D01*
X14275614Y-12324157D01*
X14289900Y-12252729D01*
X14304186Y-12209871D01*
X14318471Y-12181300D01*
X14347043Y-12138443D01*
X14361328Y-12124157D01*
X14632757Y-12467014D02*
X14461328Y-12467014D01*
X14547043Y-12467014D02*
X14547043Y-12167014D01*
X14518471Y-12209871D01*
X14489900Y-12238443D01*
X14461328Y-12252729D01*
X14732757Y-12167014D02*
X14918471Y-12167014D01*
X14818471Y-12281300D01*
X14861328Y-12281300D01*
X14889900Y-12295586D01*
X14904186Y-12309871D01*
X14918471Y-12338443D01*
X14918471Y-12409871D01*
X14904186Y-12438443D01*
X14889900Y-12452729D01*
X14861328Y-12467014D01*
X14775614Y-12467014D01*
X14747043Y-12452729D01*
X14732757Y-12438443D01*
X15275614Y-12467014D02*
X15275614Y-12167014D01*
X15404186Y-12467014D02*
X15404186Y-12309871D01*
X15389900Y-12281300D01*
X15361328Y-12267014D01*
X15318471Y-12267014D01*
X15289900Y-12281300D01*
X15275614Y-12295586D01*
X15589900Y-12467014D02*
X15561328Y-12452729D01*
X15547043Y-12438443D01*
X15532757Y-12409871D01*
X15532757Y-12324157D01*
X15547043Y-12295586D01*
X15561328Y-12281300D01*
X15589900Y-12267014D01*
X15632757Y-12267014D01*
X15661328Y-12281300D01*
X15675614Y-12295586D01*
X15689900Y-12324157D01*
X15689900Y-12409871D01*
X15675614Y-12438443D01*
X15661328Y-12452729D01*
X15632757Y-12467014D01*
X15589900Y-12467014D01*
X15861328Y-12467014D02*
X15832757Y-12452729D01*
X15818471Y-12424157D01*
X15818471Y-12167014D01*
X16089900Y-12452729D02*
X16061328Y-12467014D01*
X16004186Y-12467014D01*
X15975614Y-12452729D01*
X15961328Y-12424157D01*
X15961328Y-12309871D01*
X15975614Y-12281300D01*
X16004186Y-12267014D01*
X16061328Y-12267014D01*
X16089900Y-12281300D01*
X16104186Y-12309871D01*
X16104186Y-12338443D01*
X15961328Y-12367014D01*
X16218471Y-12452729D02*
X16247043Y-12467014D01*
X16304186Y-12467014D01*
X16332757Y-12452729D01*
X16347043Y-12424157D01*
X16347043Y-12409871D01*
X16332757Y-12381300D01*
X16304186Y-12367014D01*
X16261328Y-12367014D01*
X16232757Y-12352729D01*
X16218471Y-12324157D01*
X16218471Y-12309871D01*
X16232757Y-12281300D01*
X16261328Y-12267014D01*
X16304186Y-12267014D01*
X16332757Y-12281300D01*
X16447043Y-12581300D02*
X16461328Y-12567014D01*
X16489900Y-12524157D01*
X16504186Y-12495586D01*
X16518471Y-12452729D01*
X16532757Y-12381300D01*
X16532757Y-12324157D01*
X16518471Y-12252729D01*
X16504186Y-12209871D01*
X16489900Y-12181300D01*
X16461328Y-12138443D01*
X16447043Y-12124157D01*
X9652900Y-12705300D02*
X9652900Y-12749300D01*
X9630900Y-12727300D02*
X9674900Y-12727300D01*
X10018471Y-12563014D02*
X10047043Y-12563014D01*
X10075614Y-12577300D01*
X10089900Y-12591586D01*
X10104186Y-12620157D01*
X10118471Y-12677300D01*
X10118471Y-12748729D01*
X10104186Y-12805871D01*
X10089900Y-12834443D01*
X10075614Y-12848729D01*
X10047043Y-12863014D01*
X10018471Y-12863014D01*
X9989900Y-12848729D01*
X9975614Y-12834443D01*
X9961328Y-12805871D01*
X9947043Y-12748729D01*
X9947043Y-12677300D01*
X9961328Y-12620157D01*
X9975614Y-12591586D01*
X9989900Y-12577300D01*
X10018471Y-12563014D01*
X10247043Y-12834443D02*
X10261328Y-12848729D01*
X10247043Y-12863014D01*
X10232757Y-12848729D01*
X10247043Y-12834443D01*
X10247043Y-12863014D01*
X10518471Y-12663014D02*
X10518471Y-12863014D01*
X10447043Y-12548729D02*
X10375614Y-12763014D01*
X10561328Y-12763014D01*
X10804186Y-12663014D02*
X10804186Y-12863014D01*
X10732757Y-12548729D02*
X10661328Y-12763014D01*
X10847043Y-12763014D01*
X10961328Y-12863014D02*
X10961328Y-12663014D01*
X10961328Y-12691586D02*
X10975614Y-12677300D01*
X11004186Y-12663014D01*
X11047043Y-12663014D01*
X11075614Y-12677300D01*
X11089900Y-12705871D01*
X11089900Y-12863014D01*
X11089900Y-12705871D02*
X11104186Y-12677300D01*
X11132757Y-12663014D01*
X11175614Y-12663014D01*
X11204186Y-12677300D01*
X11218471Y-12705871D01*
X11218471Y-12863014D01*
X11361328Y-12863014D02*
X11361328Y-12663014D01*
X11361328Y-12691586D02*
X11375614Y-12677300D01*
X11404186Y-12663014D01*
X11447043Y-12663014D01*
X11475614Y-12677300D01*
X11489900Y-12705871D01*
X11489900Y-12863014D01*
X11489900Y-12705871D02*
X11504186Y-12677300D01*
X11532757Y-12663014D01*
X11575614Y-12663014D01*
X11604186Y-12677300D01*
X11618471Y-12705871D01*
X11618471Y-12863014D01*
X12204186Y-12548729D02*
X11947043Y-12934443D01*
X12589900Y-12563014D02*
X12618471Y-12563014D01*
X12647043Y-12577300D01*
X12661328Y-12591586D01*
X12675614Y-12620157D01*
X12689900Y-12677300D01*
X12689900Y-12748729D01*
X12675614Y-12805871D01*
X12661328Y-12834443D01*
X12647043Y-12848729D01*
X12618471Y-12863014D01*
X12589900Y-12863014D01*
X12561328Y-12848729D01*
X12547043Y-12834443D01*
X12532757Y-12805871D01*
X12518471Y-12748729D01*
X12518471Y-12677300D01*
X12532757Y-12620157D01*
X12547043Y-12591586D01*
X12561328Y-12577300D01*
X12589900Y-12563014D01*
X12818471Y-12834443D02*
X12832757Y-12848729D01*
X12818471Y-12863014D01*
X12804186Y-12848729D01*
X12818471Y-12834443D01*
X12818471Y-12863014D01*
X13018471Y-12563014D02*
X13047043Y-12563014D01*
X13075614Y-12577300D01*
X13089900Y-12591586D01*
X13104186Y-12620157D01*
X13118471Y-12677300D01*
X13118471Y-12748729D01*
X13104186Y-12805871D01*
X13089900Y-12834443D01*
X13075614Y-12848729D01*
X13047043Y-12863014D01*
X13018471Y-12863014D01*
X12989900Y-12848729D01*
X12975614Y-12834443D01*
X12961328Y-12805871D01*
X12947043Y-12748729D01*
X12947043Y-12677300D01*
X12961328Y-12620157D01*
X12975614Y-12591586D01*
X12989900Y-12577300D01*
X13018471Y-12563014D01*
X13404186Y-12863014D02*
X13232757Y-12863014D01*
X13318471Y-12863014D02*
X13318471Y-12563014D01*
X13289900Y-12605871D01*
X13261328Y-12634443D01*
X13232757Y-12648729D01*
X13504186Y-12563014D02*
X13704186Y-12563014D01*
X13575614Y-12863014D01*
X13804186Y-12563014D02*
X13804186Y-12620157D01*
X13918471Y-12563014D02*
X13918471Y-12620157D01*
X14361328Y-12977300D02*
X14347043Y-12963014D01*
X14318471Y-12920157D01*
X14304186Y-12891586D01*
X14289900Y-12848729D01*
X14275614Y-12777300D01*
X14275614Y-12720157D01*
X14289900Y-12648729D01*
X14304186Y-12605871D01*
X14318471Y-12577300D01*
X14347043Y-12534443D01*
X14361328Y-12520157D01*
X14618471Y-12563014D02*
X14475614Y-12563014D01*
X14461328Y-12705871D01*
X14475614Y-12691586D01*
X14504186Y-12677300D01*
X14575614Y-12677300D01*
X14604186Y-12691586D01*
X14618471Y-12705871D01*
X14632757Y-12734443D01*
X14632757Y-12805871D01*
X14618471Y-12834443D01*
X14604186Y-12848729D01*
X14575614Y-12863014D01*
X14504186Y-12863014D01*
X14475614Y-12848729D01*
X14461328Y-12834443D01*
X14989900Y-12863014D02*
X14989900Y-12563014D01*
X15118471Y-12863014D02*
X15118471Y-12705871D01*
X15104186Y-12677300D01*
X15075614Y-12663014D01*
X15032757Y-12663014D01*
X15004186Y-12677300D01*
X14989900Y-12691586D01*
X15304186Y-12863014D02*
X15275614Y-12848729D01*
X15261328Y-12834443D01*
X15247043Y-12805871D01*
X15247043Y-12720157D01*
X15261328Y-12691586D01*
X15275614Y-12677300D01*
X15304186Y-12663014D01*
X15347043Y-12663014D01*
X15375614Y-12677300D01*
X15389900Y-12691586D01*
X15404186Y-12720157D01*
X15404186Y-12805871D01*
X15389900Y-12834443D01*
X15375614Y-12848729D01*
X15347043Y-12863014D01*
X15304186Y-12863014D01*
X15575614Y-12863014D02*
X15547043Y-12848729D01*
X15532757Y-12820157D01*
X15532757Y-12563014D01*
X15804186Y-12848729D02*
X15775614Y-12863014D01*
X15718471Y-12863014D01*
X15689900Y-12848729D01*
X15675614Y-12820157D01*
X15675614Y-12705871D01*
X15689900Y-12677300D01*
X15718471Y-12663014D01*
X15775614Y-12663014D01*
X15804186Y-12677300D01*
X15818471Y-12705871D01*
X15818471Y-12734443D01*
X15675614Y-12763014D01*
X15932757Y-12848729D02*
X15961328Y-12863014D01*
X16018471Y-12863014D01*
X16047043Y-12848729D01*
X16061328Y-12820157D01*
X16061328Y-12805871D01*
X16047043Y-12777300D01*
X16018471Y-12763014D01*
X15975614Y-12763014D01*
X15947043Y-12748729D01*
X15932757Y-12720157D01*
X15932757Y-12705871D01*
X15947043Y-12677300D01*
X15975614Y-12663014D01*
X16018471Y-12663014D01*
X16047043Y-12677300D01*
X16161328Y-12977300D02*
X16175614Y-12963014D01*
X16204186Y-12920157D01*
X16218471Y-12891586D01*
X16232757Y-12848729D01*
X16247043Y-12777300D01*
X16247043Y-12720157D01*
X16232757Y-12648729D01*
X16218471Y-12605871D01*
X16204186Y-12577300D01*
X16175614Y-12534443D01*
X16161328Y-12520157D01*
X9664649Y-13148049D02*
X9664649Y-13098551D01*
X9615151Y-13098551D01*
X9615151Y-13148049D01*
X9664649Y-13148049D01*
X10018471Y-12959014D02*
X10047043Y-12959014D01*
X10075614Y-12973300D01*
X10089900Y-12987586D01*
X10104186Y-13016157D01*
X10118471Y-13073300D01*
X10118471Y-13144729D01*
X10104186Y-13201871D01*
X10089900Y-13230443D01*
X10075614Y-13244729D01*
X10047043Y-13259014D01*
X10018471Y-13259014D01*
X9989900Y-13244729D01*
X9975614Y-13230443D01*
X9961328Y-13201871D01*
X9947043Y-13144729D01*
X9947043Y-13073300D01*
X9961328Y-13016157D01*
X9975614Y-12987586D01*
X9989900Y-12973300D01*
X10018471Y-12959014D01*
X10247043Y-13230443D02*
X10261328Y-13244729D01*
X10247043Y-13259014D01*
X10232757Y-13244729D01*
X10247043Y-13230443D01*
X10247043Y-13259014D01*
X10361328Y-12959014D02*
X10561328Y-12959014D01*
X10432757Y-13259014D01*
X10732757Y-12959014D02*
X10761328Y-12959014D01*
X10789900Y-12973300D01*
X10804186Y-12987586D01*
X10818471Y-13016157D01*
X10832757Y-13073300D01*
X10832757Y-13144729D01*
X10818471Y-13201871D01*
X10804186Y-13230443D01*
X10789900Y-13244729D01*
X10761328Y-13259014D01*
X10732757Y-13259014D01*
X10704186Y-13244729D01*
X10689900Y-13230443D01*
X10675614Y-13201871D01*
X10661328Y-13144729D01*
X10661328Y-13073300D01*
X10675614Y-13016157D01*
X10689900Y-12987586D01*
X10704186Y-12973300D01*
X10732757Y-12959014D01*
X10961328Y-13259014D02*
X10961328Y-13059014D01*
X10961328Y-13087586D02*
X10975614Y-13073300D01*
X11004186Y-13059014D01*
X11047043Y-13059014D01*
X11075614Y-13073300D01*
X11089900Y-13101871D01*
X11089900Y-13259014D01*
X11089900Y-13101871D02*
X11104186Y-13073300D01*
X11132757Y-13059014D01*
X11175614Y-13059014D01*
X11204186Y-13073300D01*
X11218471Y-13101871D01*
X11218471Y-13259014D01*
X11361328Y-13259014D02*
X11361328Y-13059014D01*
X11361328Y-13087586D02*
X11375614Y-13073300D01*
X11404186Y-13059014D01*
X11447043Y-13059014D01*
X11475614Y-13073300D01*
X11489900Y-13101871D01*
X11489900Y-13259014D01*
X11489900Y-13101871D02*
X11504186Y-13073300D01*
X11532757Y-13059014D01*
X11575614Y-13059014D01*
X11604186Y-13073300D01*
X11618471Y-13101871D01*
X11618471Y-13259014D01*
X12204186Y-12944729D02*
X11947043Y-13330443D01*
X12589900Y-12959014D02*
X12618471Y-12959014D01*
X12647043Y-12973300D01*
X12661328Y-12987586D01*
X12675614Y-13016157D01*
X12689900Y-13073300D01*
X12689900Y-13144729D01*
X12675614Y-13201871D01*
X12661328Y-13230443D01*
X12647043Y-13244729D01*
X12618471Y-13259014D01*
X12589900Y-13259014D01*
X12561328Y-13244729D01*
X12547043Y-13230443D01*
X12532757Y-13201871D01*
X12518471Y-13144729D01*
X12518471Y-13073300D01*
X12532757Y-13016157D01*
X12547043Y-12987586D01*
X12561328Y-12973300D01*
X12589900Y-12959014D01*
X12818471Y-13230443D02*
X12832757Y-13244729D01*
X12818471Y-13259014D01*
X12804186Y-13244729D01*
X12818471Y-13230443D01*
X12818471Y-13259014D01*
X13018471Y-12959014D02*
X13047043Y-12959014D01*
X13075614Y-12973300D01*
X13089900Y-12987586D01*
X13104186Y-13016157D01*
X13118471Y-13073300D01*
X13118471Y-13144729D01*
X13104186Y-13201871D01*
X13089900Y-13230443D01*
X13075614Y-13244729D01*
X13047043Y-13259014D01*
X13018471Y-13259014D01*
X12989900Y-13244729D01*
X12975614Y-13230443D01*
X12961328Y-13201871D01*
X12947043Y-13144729D01*
X12947043Y-13073300D01*
X12961328Y-13016157D01*
X12975614Y-12987586D01*
X12989900Y-12973300D01*
X13018471Y-12959014D01*
X13232757Y-12987586D02*
X13247043Y-12973300D01*
X13275614Y-12959014D01*
X13347043Y-12959014D01*
X13375614Y-12973300D01*
X13389900Y-12987586D01*
X13404186Y-13016157D01*
X13404186Y-13044729D01*
X13389900Y-13087586D01*
X13218471Y-13259014D01*
X13404186Y-13259014D01*
X13575614Y-13087586D02*
X13547043Y-13073300D01*
X13532757Y-13059014D01*
X13518471Y-13030443D01*
X13518471Y-13016157D01*
X13532757Y-12987586D01*
X13547043Y-12973300D01*
X13575614Y-12959014D01*
X13632757Y-12959014D01*
X13661328Y-12973300D01*
X13675614Y-12987586D01*
X13689900Y-13016157D01*
X13689900Y-13030443D01*
X13675614Y-13059014D01*
X13661328Y-13073300D01*
X13632757Y-13087586D01*
X13575614Y-13087586D01*
X13547043Y-13101871D01*
X13532757Y-13116157D01*
X13518471Y-13144729D01*
X13518471Y-13201871D01*
X13532757Y-13230443D01*
X13547043Y-13244729D01*
X13575614Y-13259014D01*
X13632757Y-13259014D01*
X13661328Y-13244729D01*
X13675614Y-13230443D01*
X13689900Y-13201871D01*
X13689900Y-13144729D01*
X13675614Y-13116157D01*
X13661328Y-13101871D01*
X13632757Y-13087586D01*
X13804186Y-12959014D02*
X13804186Y-13016157D01*
X13918471Y-12959014D02*
X13918471Y-13016157D01*
X14361328Y-13373300D02*
X14347043Y-13359014D01*
X14318471Y-13316157D01*
X14304186Y-13287586D01*
X14289900Y-13244729D01*
X14275614Y-13173300D01*
X14275614Y-13116157D01*
X14289900Y-13044729D01*
X14304186Y-13001871D01*
X14318471Y-12973300D01*
X14347043Y-12930443D01*
X14361328Y-12916157D01*
X14604186Y-13059014D02*
X14604186Y-13259014D01*
X14532757Y-12944729D02*
X14461328Y-13159014D01*
X14647043Y-13159014D01*
X14989900Y-13259014D02*
X14989900Y-12959014D01*
X15118471Y-13259014D02*
X15118471Y-13101871D01*
X15104186Y-13073300D01*
X15075614Y-13059014D01*
X15032757Y-13059014D01*
X15004186Y-13073300D01*
X14989900Y-13087586D01*
X15304186Y-13259014D02*
X15275614Y-13244729D01*
X15261328Y-13230443D01*
X15247043Y-13201871D01*
X15247043Y-13116157D01*
X15261328Y-13087586D01*
X15275614Y-13073300D01*
X15304186Y-13059014D01*
X15347043Y-13059014D01*
X15375614Y-13073300D01*
X15389900Y-13087586D01*
X15404186Y-13116157D01*
X15404186Y-13201871D01*
X15389900Y-13230443D01*
X15375614Y-13244729D01*
X15347043Y-13259014D01*
X15304186Y-13259014D01*
X15575614Y-13259014D02*
X15547043Y-13244729D01*
X15532757Y-13216157D01*
X15532757Y-12959014D01*
X15804186Y-13244729D02*
X15775614Y-13259014D01*
X15718471Y-13259014D01*
X15689900Y-13244729D01*
X15675614Y-13216157D01*
X15675614Y-13101871D01*
X15689900Y-13073300D01*
X15718471Y-13059014D01*
X15775614Y-13059014D01*
X15804186Y-13073300D01*
X15818471Y-13101871D01*
X15818471Y-13130443D01*
X15675614Y-13159014D01*
X15932757Y-13244729D02*
X15961328Y-13259014D01*
X16018471Y-13259014D01*
X16047043Y-13244729D01*
X16061328Y-13216157D01*
X16061328Y-13201871D01*
X16047043Y-13173300D01*
X16018471Y-13159014D01*
X15975614Y-13159014D01*
X15947043Y-13144729D01*
X15932757Y-13116157D01*
X15932757Y-13101871D01*
X15947043Y-13073300D01*
X15975614Y-13059014D01*
X16018471Y-13059014D01*
X16047043Y-13073300D01*
X16161328Y-13373300D02*
X16175614Y-13359014D01*
X16204186Y-13316157D01*
X16218471Y-13287586D01*
X16232757Y-13244729D01*
X16247043Y-13173300D01*
X16247043Y-13116157D01*
X16232757Y-13044729D01*
X16218471Y-13001871D01*
X16204186Y-12973300D01*
X16175614Y-12930443D01*
X16161328Y-12916157D01*
X9634900Y-13559300D02*
X9674900Y-13519300D01*
X9634900Y-13479300D01*
X9594900Y-13519300D01*
X9634900Y-13559300D01*
X10018471Y-13355014D02*
X10047043Y-13355014D01*
X10075614Y-13369300D01*
X10089900Y-13383586D01*
X10104186Y-13412157D01*
X10118471Y-13469300D01*
X10118471Y-13540729D01*
X10104186Y-13597871D01*
X10089900Y-13626443D01*
X10075614Y-13640729D01*
X10047043Y-13655014D01*
X10018471Y-13655014D01*
X9989900Y-13640729D01*
X9975614Y-13626443D01*
X9961328Y-13597871D01*
X9947043Y-13540729D01*
X9947043Y-13469300D01*
X9961328Y-13412157D01*
X9975614Y-13383586D01*
X9989900Y-13369300D01*
X10018471Y-13355014D01*
X10247043Y-13626443D02*
X10261328Y-13640729D01*
X10247043Y-13655014D01*
X10232757Y-13640729D01*
X10247043Y-13626443D01*
X10247043Y-13655014D01*
X10432757Y-13483586D02*
X10404186Y-13469300D01*
X10389900Y-13455014D01*
X10375614Y-13426443D01*
X10375614Y-13412157D01*
X10389900Y-13383586D01*
X10404186Y-13369300D01*
X10432757Y-13355014D01*
X10489900Y-13355014D01*
X10518471Y-13369300D01*
X10532757Y-13383586D01*
X10547043Y-13412157D01*
X10547043Y-13426443D01*
X10532757Y-13455014D01*
X10518471Y-13469300D01*
X10489900Y-13483586D01*
X10432757Y-13483586D01*
X10404186Y-13497871D01*
X10389900Y-13512157D01*
X10375614Y-13540729D01*
X10375614Y-13597871D01*
X10389900Y-13626443D01*
X10404186Y-13640729D01*
X10432757Y-13655014D01*
X10489900Y-13655014D01*
X10518471Y-13640729D01*
X10532757Y-13626443D01*
X10547043Y-13597871D01*
X10547043Y-13540729D01*
X10532757Y-13512157D01*
X10518471Y-13497871D01*
X10489900Y-13483586D01*
X10732757Y-13355014D02*
X10761328Y-13355014D01*
X10789900Y-13369300D01*
X10804186Y-13383586D01*
X10818471Y-13412157D01*
X10832757Y-13469300D01*
X10832757Y-13540729D01*
X10818471Y-13597871D01*
X10804186Y-13626443D01*
X10789900Y-13640729D01*
X10761328Y-13655014D01*
X10732757Y-13655014D01*
X10704186Y-13640729D01*
X10689900Y-13626443D01*
X10675614Y-13597871D01*
X10661328Y-13540729D01*
X10661328Y-13469300D01*
X10675614Y-13412157D01*
X10689900Y-13383586D01*
X10704186Y-13369300D01*
X10732757Y-13355014D01*
X10961328Y-13655014D02*
X10961328Y-13455014D01*
X10961328Y-13483586D02*
X10975614Y-13469300D01*
X11004186Y-13455014D01*
X11047043Y-13455014D01*
X11075614Y-13469300D01*
X11089900Y-13497871D01*
X11089900Y-13655014D01*
X11089900Y-13497871D02*
X11104186Y-13469300D01*
X11132757Y-13455014D01*
X11175614Y-13455014D01*
X11204186Y-13469300D01*
X11218471Y-13497871D01*
X11218471Y-13655014D01*
X11361328Y-13655014D02*
X11361328Y-13455014D01*
X11361328Y-13483586D02*
X11375614Y-13469300D01*
X11404186Y-13455014D01*
X11447043Y-13455014D01*
X11475614Y-13469300D01*
X11489900Y-13497871D01*
X11489900Y-13655014D01*
X11489900Y-13497871D02*
X11504186Y-13469300D01*
X11532757Y-13455014D01*
X11575614Y-13455014D01*
X11604186Y-13469300D01*
X11618471Y-13497871D01*
X11618471Y-13655014D01*
X12204186Y-13340729D02*
X11947043Y-13726443D01*
X12589900Y-13355014D02*
X12618471Y-13355014D01*
X12647043Y-13369300D01*
X12661328Y-13383586D01*
X12675614Y-13412157D01*
X12689900Y-13469300D01*
X12689900Y-13540729D01*
X12675614Y-13597871D01*
X12661328Y-13626443D01*
X12647043Y-13640729D01*
X12618471Y-13655014D01*
X12589900Y-13655014D01*
X12561328Y-13640729D01*
X12547043Y-13626443D01*
X12532757Y-13597871D01*
X12518471Y-13540729D01*
X12518471Y-13469300D01*
X12532757Y-13412157D01*
X12547043Y-13383586D01*
X12561328Y-13369300D01*
X12589900Y-13355014D01*
X12818471Y-13626443D02*
X12832757Y-13640729D01*
X12818471Y-13655014D01*
X12804186Y-13640729D01*
X12818471Y-13626443D01*
X12818471Y-13655014D01*
X13018471Y-13355014D02*
X13047043Y-13355014D01*
X13075614Y-13369300D01*
X13089900Y-13383586D01*
X13104186Y-13412157D01*
X13118471Y-13469300D01*
X13118471Y-13540729D01*
X13104186Y-13597871D01*
X13089900Y-13626443D01*
X13075614Y-13640729D01*
X13047043Y-13655014D01*
X13018471Y-13655014D01*
X12989900Y-13640729D01*
X12975614Y-13626443D01*
X12961328Y-13597871D01*
X12947043Y-13540729D01*
X12947043Y-13469300D01*
X12961328Y-13412157D01*
X12975614Y-13383586D01*
X12989900Y-13369300D01*
X13018471Y-13355014D01*
X13218471Y-13355014D02*
X13404186Y-13355014D01*
X13304186Y-13469300D01*
X13347043Y-13469300D01*
X13375614Y-13483586D01*
X13389900Y-13497871D01*
X13404186Y-13526443D01*
X13404186Y-13597871D01*
X13389900Y-13626443D01*
X13375614Y-13640729D01*
X13347043Y-13655014D01*
X13261328Y-13655014D01*
X13232757Y-13640729D01*
X13218471Y-13626443D01*
X13689900Y-13655014D02*
X13518471Y-13655014D01*
X13604186Y-13655014D02*
X13604186Y-13355014D01*
X13575614Y-13397871D01*
X13547043Y-13426443D01*
X13518471Y-13440729D01*
X13804186Y-13355014D02*
X13804186Y-13412157D01*
X13918471Y-13355014D02*
X13918471Y-13412157D01*
X14361328Y-13769300D02*
X14347043Y-13755014D01*
X14318471Y-13712157D01*
X14304186Y-13683586D01*
X14289900Y-13640729D01*
X14275614Y-13569300D01*
X14275614Y-13512157D01*
X14289900Y-13440729D01*
X14304186Y-13397871D01*
X14318471Y-13369300D01*
X14347043Y-13326443D01*
X14361328Y-13312157D01*
X14632757Y-13655014D02*
X14461328Y-13655014D01*
X14547043Y-13655014D02*
X14547043Y-13355014D01*
X14518471Y-13397871D01*
X14489900Y-13426443D01*
X14461328Y-13440729D01*
X14889900Y-13455014D02*
X14889900Y-13655014D01*
X14818471Y-13340729D02*
X14747043Y-13555014D01*
X14932757Y-13555014D01*
X15275614Y-13655014D02*
X15275614Y-13355014D01*
X15404186Y-13655014D02*
X15404186Y-13497871D01*
X15389900Y-13469300D01*
X15361328Y-13455014D01*
X15318471Y-13455014D01*
X15289900Y-13469300D01*
X15275614Y-13483586D01*
X15589900Y-13655014D02*
X15561328Y-13640729D01*
X15547043Y-13626443D01*
X15532757Y-13597871D01*
X15532757Y-13512157D01*
X15547043Y-13483586D01*
X15561328Y-13469300D01*
X15589900Y-13455014D01*
X15632757Y-13455014D01*
X15661328Y-13469300D01*
X15675614Y-13483586D01*
X15689900Y-13512157D01*
X15689900Y-13597871D01*
X15675614Y-13626443D01*
X15661328Y-13640729D01*
X15632757Y-13655014D01*
X15589900Y-13655014D01*
X15861328Y-13655014D02*
X15832757Y-13640729D01*
X15818471Y-13612157D01*
X15818471Y-13355014D01*
X16089900Y-13640729D02*
X16061328Y-13655014D01*
X16004186Y-13655014D01*
X15975614Y-13640729D01*
X15961328Y-13612157D01*
X15961328Y-13497871D01*
X15975614Y-13469300D01*
X16004186Y-13455014D01*
X16061328Y-13455014D01*
X16089900Y-13469300D01*
X16104186Y-13497871D01*
X16104186Y-13526443D01*
X15961328Y-13555014D01*
X16218471Y-13640729D02*
X16247043Y-13655014D01*
X16304186Y-13655014D01*
X16332757Y-13640729D01*
X16347043Y-13612157D01*
X16347043Y-13597871D01*
X16332757Y-13569300D01*
X16304186Y-13555014D01*
X16261328Y-13555014D01*
X16232757Y-13540729D01*
X16218471Y-13512157D01*
X16218471Y-13497871D01*
X16232757Y-13469300D01*
X16261328Y-13455014D01*
X16304186Y-13455014D01*
X16332757Y-13469300D01*
X16447043Y-13769300D02*
X16461328Y-13755014D01*
X16489900Y-13712157D01*
X16504186Y-13683586D01*
X16518471Y-13640729D01*
X16532757Y-13569300D01*
X16532757Y-13512157D01*
X16518471Y-13440729D01*
X16504186Y-13397871D01*
X16489900Y-13369300D01*
X16461328Y-13326443D01*
X16447043Y-13312157D01*
X9593620Y-13874660D02*
X9674900Y-13955940D01*
X9674900Y-13874660D02*
X9593620Y-13955940D01*
X9674900Y-13915300D02*
G75*
G03X9674900Y-13915300I-40640J0D01*
G01*
X10018471Y-13751014D02*
X10047043Y-13751014D01*
X10075614Y-13765300D01*
X10089900Y-13779586D01*
X10104186Y-13808157D01*
X10118471Y-13865300D01*
X10118471Y-13936729D01*
X10104186Y-13993871D01*
X10089900Y-14022443D01*
X10075614Y-14036729D01*
X10047043Y-14051014D01*
X10018471Y-14051014D01*
X9989900Y-14036729D01*
X9975614Y-14022443D01*
X9961328Y-13993871D01*
X9947043Y-13936729D01*
X9947043Y-13865300D01*
X9961328Y-13808157D01*
X9975614Y-13779586D01*
X9989900Y-13765300D01*
X10018471Y-13751014D01*
X10247043Y-14022443D02*
X10261328Y-14036729D01*
X10247043Y-14051014D01*
X10232757Y-14036729D01*
X10247043Y-14022443D01*
X10247043Y-14051014D01*
X10432757Y-13879586D02*
X10404186Y-13865300D01*
X10389900Y-13851014D01*
X10375614Y-13822443D01*
X10375614Y-13808157D01*
X10389900Y-13779586D01*
X10404186Y-13765300D01*
X10432757Y-13751014D01*
X10489900Y-13751014D01*
X10518471Y-13765300D01*
X10532757Y-13779586D01*
X10547043Y-13808157D01*
X10547043Y-13822443D01*
X10532757Y-13851014D01*
X10518471Y-13865300D01*
X10489900Y-13879586D01*
X10432757Y-13879586D01*
X10404186Y-13893871D01*
X10389900Y-13908157D01*
X10375614Y-13936729D01*
X10375614Y-13993871D01*
X10389900Y-14022443D01*
X10404186Y-14036729D01*
X10432757Y-14051014D01*
X10489900Y-14051014D01*
X10518471Y-14036729D01*
X10532757Y-14022443D01*
X10547043Y-13993871D01*
X10547043Y-13936729D01*
X10532757Y-13908157D01*
X10518471Y-13893871D01*
X10489900Y-13879586D01*
X10832757Y-14051014D02*
X10661328Y-14051014D01*
X10747043Y-14051014D02*
X10747043Y-13751014D01*
X10718471Y-13793871D01*
X10689900Y-13822443D01*
X10661328Y-13836729D01*
X10961328Y-14051014D02*
X10961328Y-13851014D01*
X10961328Y-13879586D02*
X10975614Y-13865300D01*
X11004186Y-13851014D01*
X11047043Y-13851014D01*
X11075614Y-13865300D01*
X11089900Y-13893871D01*
X11089900Y-14051014D01*
X11089900Y-13893871D02*
X11104186Y-13865300D01*
X11132757Y-13851014D01*
X11175614Y-13851014D01*
X11204186Y-13865300D01*
X11218471Y-13893871D01*
X11218471Y-14051014D01*
X11361328Y-14051014D02*
X11361328Y-13851014D01*
X11361328Y-13879586D02*
X11375614Y-13865300D01*
X11404186Y-13851014D01*
X11447043Y-13851014D01*
X11475614Y-13865300D01*
X11489900Y-13893871D01*
X11489900Y-14051014D01*
X11489900Y-13893871D02*
X11504186Y-13865300D01*
X11532757Y-13851014D01*
X11575614Y-13851014D01*
X11604186Y-13865300D01*
X11618471Y-13893871D01*
X11618471Y-14051014D01*
X12204186Y-13736729D02*
X11947043Y-14122443D01*
X12589900Y-13751014D02*
X12618471Y-13751014D01*
X12647043Y-13765300D01*
X12661328Y-13779586D01*
X12675614Y-13808157D01*
X12689900Y-13865300D01*
X12689900Y-13936729D01*
X12675614Y-13993871D01*
X12661328Y-14022443D01*
X12647043Y-14036729D01*
X12618471Y-14051014D01*
X12589900Y-14051014D01*
X12561328Y-14036729D01*
X12547043Y-14022443D01*
X12532757Y-13993871D01*
X12518471Y-13936729D01*
X12518471Y-13865300D01*
X12532757Y-13808157D01*
X12547043Y-13779586D01*
X12561328Y-13765300D01*
X12589900Y-13751014D01*
X12818471Y-14022443D02*
X12832757Y-14036729D01*
X12818471Y-14051014D01*
X12804186Y-14036729D01*
X12818471Y-14022443D01*
X12818471Y-14051014D01*
X13018471Y-13751014D02*
X13047043Y-13751014D01*
X13075614Y-13765300D01*
X13089900Y-13779586D01*
X13104186Y-13808157D01*
X13118471Y-13865300D01*
X13118471Y-13936729D01*
X13104186Y-13993871D01*
X13089900Y-14022443D01*
X13075614Y-14036729D01*
X13047043Y-14051014D01*
X13018471Y-14051014D01*
X12989900Y-14036729D01*
X12975614Y-14022443D01*
X12961328Y-13993871D01*
X12947043Y-13936729D01*
X12947043Y-13865300D01*
X12961328Y-13808157D01*
X12975614Y-13779586D01*
X12989900Y-13765300D01*
X13018471Y-13751014D01*
X13218471Y-13751014D02*
X13404186Y-13751014D01*
X13304186Y-13865300D01*
X13347043Y-13865300D01*
X13375614Y-13879586D01*
X13389900Y-13893871D01*
X13404186Y-13922443D01*
X13404186Y-13993871D01*
X13389900Y-14022443D01*
X13375614Y-14036729D01*
X13347043Y-14051014D01*
X13261328Y-14051014D01*
X13232757Y-14036729D01*
X13218471Y-14022443D01*
X13518471Y-13779586D02*
X13532757Y-13765300D01*
X13561328Y-13751014D01*
X13632757Y-13751014D01*
X13661328Y-13765300D01*
X13675614Y-13779586D01*
X13689900Y-13808157D01*
X13689900Y-13836729D01*
X13675614Y-13879586D01*
X13504186Y-14051014D01*
X13689900Y-14051014D01*
X13804186Y-13751014D02*
X13804186Y-13808157D01*
X13918471Y-13751014D02*
X13918471Y-13808157D01*
X14361328Y-14165300D02*
X14347043Y-14151014D01*
X14318471Y-14108157D01*
X14304186Y-14079586D01*
X14289900Y-14036729D01*
X14275614Y-13965300D01*
X14275614Y-13908157D01*
X14289900Y-13836729D01*
X14304186Y-13793871D01*
X14318471Y-13765300D01*
X14347043Y-13722443D01*
X14361328Y-13708157D01*
X14532757Y-13751014D02*
X14561328Y-13751014D01*
X14589900Y-13765300D01*
X14604186Y-13779586D01*
X14618471Y-13808157D01*
X14632757Y-13865300D01*
X14632757Y-13936729D01*
X14618471Y-13993871D01*
X14604186Y-14022443D01*
X14589900Y-14036729D01*
X14561328Y-14051014D01*
X14532757Y-14051014D01*
X14504186Y-14036729D01*
X14489900Y-14022443D01*
X14475614Y-13993871D01*
X14461328Y-13936729D01*
X14461328Y-13865300D01*
X14475614Y-13808157D01*
X14489900Y-13779586D01*
X14504186Y-13765300D01*
X14532757Y-13751014D01*
X14989900Y-14051014D02*
X14989900Y-13751014D01*
X15118471Y-14051014D02*
X15118471Y-13893871D01*
X15104186Y-13865300D01*
X15075614Y-13851014D01*
X15032757Y-13851014D01*
X15004186Y-13865300D01*
X14989900Y-13879586D01*
X15304186Y-14051014D02*
X15275614Y-14036729D01*
X15261328Y-14022443D01*
X15247043Y-13993871D01*
X15247043Y-13908157D01*
X15261328Y-13879586D01*
X15275614Y-13865300D01*
X15304186Y-13851014D01*
X15347043Y-13851014D01*
X15375614Y-13865300D01*
X15389900Y-13879586D01*
X15404186Y-13908157D01*
X15404186Y-13993871D01*
X15389900Y-14022443D01*
X15375614Y-14036729D01*
X15347043Y-14051014D01*
X15304186Y-14051014D01*
X15575614Y-14051014D02*
X15547043Y-14036729D01*
X15532757Y-14008157D01*
X15532757Y-13751014D01*
X15804186Y-14036729D02*
X15775614Y-14051014D01*
X15718471Y-14051014D01*
X15689900Y-14036729D01*
X15675614Y-14008157D01*
X15675614Y-13893871D01*
X15689900Y-13865300D01*
X15718471Y-13851014D01*
X15775614Y-13851014D01*
X15804186Y-13865300D01*
X15818471Y-13893871D01*
X15818471Y-13922443D01*
X15675614Y-13951014D01*
X15932757Y-14036729D02*
X15961328Y-14051014D01*
X16018471Y-14051014D01*
X16047043Y-14036729D01*
X16061328Y-14008157D01*
X16061328Y-13993871D01*
X16047043Y-13965300D01*
X16018471Y-13951014D01*
X15975614Y-13951014D01*
X15947043Y-13936729D01*
X15932757Y-13908157D01*
X15932757Y-13893871D01*
X15947043Y-13865300D01*
X15975614Y-13851014D01*
X16018471Y-13851014D01*
X16047043Y-13865300D01*
X16418471Y-13936729D02*
X16647043Y-13936729D01*
X16532757Y-14051014D02*
X16532757Y-13822443D01*
X17147043Y-13851014D02*
X17147043Y-14051014D01*
X17075614Y-13736729D02*
X17004186Y-13951014D01*
X17189900Y-13951014D01*
X17518471Y-14036729D02*
X17547043Y-14051014D01*
X17604186Y-14051014D01*
X17632757Y-14036729D01*
X17647043Y-14008157D01*
X17647043Y-13993871D01*
X17632757Y-13965300D01*
X17604186Y-13951014D01*
X17561328Y-13951014D01*
X17532757Y-13936729D01*
X17518471Y-13908157D01*
X17518471Y-13893871D01*
X17532757Y-13865300D01*
X17561328Y-13851014D01*
X17604186Y-13851014D01*
X17632757Y-13865300D01*
X17818471Y-14051014D02*
X17789900Y-14036729D01*
X17775614Y-14008157D01*
X17775614Y-13751014D01*
X17975614Y-14051014D02*
X17947043Y-14036729D01*
X17932757Y-14022443D01*
X17918471Y-13993871D01*
X17918471Y-13908157D01*
X17932757Y-13879586D01*
X17947043Y-13865300D01*
X17975614Y-13851014D01*
X18018471Y-13851014D01*
X18047043Y-13865300D01*
X18061328Y-13879586D01*
X18075614Y-13908157D01*
X18075614Y-13993871D01*
X18061328Y-14022443D01*
X18047043Y-14036729D01*
X18018471Y-14051014D01*
X17975614Y-14051014D01*
X18161328Y-13851014D02*
X18275614Y-13851014D01*
X18204186Y-13751014D02*
X18204186Y-14008157D01*
X18218471Y-14036729D01*
X18247043Y-14051014D01*
X18275614Y-14051014D01*
X18361328Y-14036729D02*
X18389900Y-14051014D01*
X18447043Y-14051014D01*
X18475614Y-14036729D01*
X18489900Y-14008157D01*
X18489900Y-13993871D01*
X18475614Y-13965300D01*
X18447043Y-13951014D01*
X18404186Y-13951014D01*
X18375614Y-13936729D01*
X18361328Y-13908157D01*
X18361328Y-13893871D01*
X18375614Y-13865300D01*
X18404186Y-13851014D01*
X18447043Y-13851014D01*
X18475614Y-13865300D01*
X18589900Y-14165300D02*
X18604186Y-14151014D01*
X18632757Y-14108157D01*
X18647043Y-14079586D01*
X18661328Y-14036729D01*
X18675614Y-13965300D01*
X18675614Y-13908157D01*
X18661328Y-13836729D01*
X18647043Y-13793871D01*
X18632757Y-13765300D01*
X18604186Y-13722443D01*
X18589900Y-13708157D01*
X9584900Y-14266300D02*
X9674900Y-14356300D01*
X9674900Y-14266300D02*
X9584900Y-14356300D01*
X9629900Y-14266300D02*
X9629900Y-14356300D01*
X9584900Y-14311300D02*
X9674900Y-14311300D01*
X10018471Y-14147014D02*
X10047043Y-14147014D01*
X10075614Y-14161300D01*
X10089900Y-14175586D01*
X10104186Y-14204157D01*
X10118471Y-14261300D01*
X10118471Y-14332729D01*
X10104186Y-14389871D01*
X10089900Y-14418443D01*
X10075614Y-14432729D01*
X10047043Y-14447014D01*
X10018471Y-14447014D01*
X9989900Y-14432729D01*
X9975614Y-14418443D01*
X9961328Y-14389871D01*
X9947043Y-14332729D01*
X9947043Y-14261300D01*
X9961328Y-14204157D01*
X9975614Y-14175586D01*
X9989900Y-14161300D01*
X10018471Y-14147014D01*
X10247043Y-14418443D02*
X10261328Y-14432729D01*
X10247043Y-14447014D01*
X10232757Y-14432729D01*
X10247043Y-14418443D01*
X10247043Y-14447014D01*
X10404186Y-14447014D02*
X10461328Y-14447014D01*
X10489900Y-14432729D01*
X10504186Y-14418443D01*
X10532757Y-14375586D01*
X10547043Y-14318443D01*
X10547043Y-14204157D01*
X10532757Y-14175586D01*
X10518471Y-14161300D01*
X10489900Y-14147014D01*
X10432757Y-14147014D01*
X10404186Y-14161300D01*
X10389900Y-14175586D01*
X10375614Y-14204157D01*
X10375614Y-14275586D01*
X10389900Y-14304157D01*
X10404186Y-14318443D01*
X10432757Y-14332729D01*
X10489900Y-14332729D01*
X10518471Y-14318443D01*
X10532757Y-14304157D01*
X10547043Y-14275586D01*
X10732757Y-14147014D02*
X10761328Y-14147014D01*
X10789900Y-14161300D01*
X10804186Y-14175586D01*
X10818471Y-14204157D01*
X10832757Y-14261300D01*
X10832757Y-14332729D01*
X10818471Y-14389871D01*
X10804186Y-14418443D01*
X10789900Y-14432729D01*
X10761328Y-14447014D01*
X10732757Y-14447014D01*
X10704186Y-14432729D01*
X10689900Y-14418443D01*
X10675614Y-14389871D01*
X10661328Y-14332729D01*
X10661328Y-14261300D01*
X10675614Y-14204157D01*
X10689900Y-14175586D01*
X10704186Y-14161300D01*
X10732757Y-14147014D01*
X10961328Y-14447014D02*
X10961328Y-14247014D01*
X10961328Y-14275586D02*
X10975614Y-14261300D01*
X11004186Y-14247014D01*
X11047043Y-14247014D01*
X11075614Y-14261300D01*
X11089900Y-14289871D01*
X11089900Y-14447014D01*
X11089900Y-14289871D02*
X11104186Y-14261300D01*
X11132757Y-14247014D01*
X11175614Y-14247014D01*
X11204186Y-14261300D01*
X11218471Y-14289871D01*
X11218471Y-14447014D01*
X11361328Y-14447014D02*
X11361328Y-14247014D01*
X11361328Y-14275586D02*
X11375614Y-14261300D01*
X11404186Y-14247014D01*
X11447043Y-14247014D01*
X11475614Y-14261300D01*
X11489900Y-14289871D01*
X11489900Y-14447014D01*
X11489900Y-14289871D02*
X11504186Y-14261300D01*
X11532757Y-14247014D01*
X11575614Y-14247014D01*
X11604186Y-14261300D01*
X11618471Y-14289871D01*
X11618471Y-14447014D01*
X12204186Y-14132729D02*
X11947043Y-14518443D01*
X12589900Y-14147014D02*
X12618471Y-14147014D01*
X12647043Y-14161300D01*
X12661328Y-14175586D01*
X12675614Y-14204157D01*
X12689900Y-14261300D01*
X12689900Y-14332729D01*
X12675614Y-14389871D01*
X12661328Y-14418443D01*
X12647043Y-14432729D01*
X12618471Y-14447014D01*
X12589900Y-14447014D01*
X12561328Y-14432729D01*
X12547043Y-14418443D01*
X12532757Y-14389871D01*
X12518471Y-14332729D01*
X12518471Y-14261300D01*
X12532757Y-14204157D01*
X12547043Y-14175586D01*
X12561328Y-14161300D01*
X12589900Y-14147014D01*
X12818471Y-14418443D02*
X12832757Y-14432729D01*
X12818471Y-14447014D01*
X12804186Y-14432729D01*
X12818471Y-14418443D01*
X12818471Y-14447014D01*
X13018471Y-14147014D02*
X13047043Y-14147014D01*
X13075614Y-14161300D01*
X13089900Y-14175586D01*
X13104186Y-14204157D01*
X13118471Y-14261300D01*
X13118471Y-14332729D01*
X13104186Y-14389871D01*
X13089900Y-14418443D01*
X13075614Y-14432729D01*
X13047043Y-14447014D01*
X13018471Y-14447014D01*
X12989900Y-14432729D01*
X12975614Y-14418443D01*
X12961328Y-14389871D01*
X12947043Y-14332729D01*
X12947043Y-14261300D01*
X12961328Y-14204157D01*
X12975614Y-14175586D01*
X12989900Y-14161300D01*
X13018471Y-14147014D01*
X13218471Y-14147014D02*
X13404186Y-14147014D01*
X13304186Y-14261300D01*
X13347043Y-14261300D01*
X13375614Y-14275586D01*
X13389900Y-14289871D01*
X13404186Y-14318443D01*
X13404186Y-14389871D01*
X13389900Y-14418443D01*
X13375614Y-14432729D01*
X13347043Y-14447014D01*
X13261328Y-14447014D01*
X13232757Y-14432729D01*
X13218471Y-14418443D01*
X13675614Y-14147014D02*
X13532757Y-14147014D01*
X13518471Y-14289871D01*
X13532757Y-14275586D01*
X13561328Y-14261300D01*
X13632757Y-14261300D01*
X13661328Y-14275586D01*
X13675614Y-14289871D01*
X13689900Y-14318443D01*
X13689900Y-14389871D01*
X13675614Y-14418443D01*
X13661328Y-14432729D01*
X13632757Y-14447014D01*
X13561328Y-14447014D01*
X13532757Y-14432729D01*
X13518471Y-14418443D01*
X13804186Y-14147014D02*
X13804186Y-14204157D01*
X13918471Y-14147014D02*
X13918471Y-14204157D01*
X14361328Y-14561300D02*
X14347043Y-14547014D01*
X14318471Y-14504157D01*
X14304186Y-14475586D01*
X14289900Y-14432729D01*
X14275614Y-14361300D01*
X14275614Y-14304157D01*
X14289900Y-14232729D01*
X14304186Y-14189871D01*
X14318471Y-14161300D01*
X14347043Y-14118443D01*
X14361328Y-14104157D01*
X14461328Y-14175586D02*
X14475614Y-14161300D01*
X14504186Y-14147014D01*
X14575614Y-14147014D01*
X14604186Y-14161300D01*
X14618471Y-14175586D01*
X14632757Y-14204157D01*
X14632757Y-14232729D01*
X14618471Y-14275586D01*
X14447043Y-14447014D01*
X14632757Y-14447014D01*
X14989900Y-14447014D02*
X14989900Y-14147014D01*
X15118471Y-14447014D02*
X15118471Y-14289871D01*
X15104186Y-14261300D01*
X15075614Y-14247014D01*
X15032757Y-14247014D01*
X15004186Y-14261300D01*
X14989900Y-14275586D01*
X15304186Y-14447014D02*
X15275614Y-14432729D01*
X15261328Y-14418443D01*
X15247043Y-14389871D01*
X15247043Y-14304157D01*
X15261328Y-14275586D01*
X15275614Y-14261300D01*
X15304186Y-14247014D01*
X15347043Y-14247014D01*
X15375614Y-14261300D01*
X15389900Y-14275586D01*
X15404186Y-14304157D01*
X15404186Y-14389871D01*
X15389900Y-14418443D01*
X15375614Y-14432729D01*
X15347043Y-14447014D01*
X15304186Y-14447014D01*
X15575614Y-14447014D02*
X15547043Y-14432729D01*
X15532757Y-14404157D01*
X15532757Y-14147014D01*
X15804186Y-14432729D02*
X15775614Y-14447014D01*
X15718471Y-14447014D01*
X15689900Y-14432729D01*
X15675614Y-14404157D01*
X15675614Y-14289871D01*
X15689900Y-14261300D01*
X15718471Y-14247014D01*
X15775614Y-14247014D01*
X15804186Y-14261300D01*
X15818471Y-14289871D01*
X15818471Y-14318443D01*
X15675614Y-14347014D01*
X15932757Y-14432729D02*
X15961328Y-14447014D01*
X16018471Y-14447014D01*
X16047043Y-14432729D01*
X16061328Y-14404157D01*
X16061328Y-14389871D01*
X16047043Y-14361300D01*
X16018471Y-14347014D01*
X15975614Y-14347014D01*
X15947043Y-14332729D01*
X15932757Y-14304157D01*
X15932757Y-14289871D01*
X15947043Y-14261300D01*
X15975614Y-14247014D01*
X16018471Y-14247014D01*
X16047043Y-14261300D01*
X16161328Y-14561300D02*
X16175614Y-14547014D01*
X16204186Y-14504157D01*
X16218471Y-14475586D01*
X16232757Y-14432729D01*
X16247043Y-14361300D01*
X16247043Y-14304157D01*
X16232757Y-14232729D01*
X16218471Y-14189871D01*
X16204186Y-14161300D01*
X16175614Y-14118443D01*
X16161328Y-14104157D01*
X9574900Y-14657300D02*
X9674900Y-14757300D01*
X9674900Y-14657300D02*
X9574900Y-14757300D01*
X9660256Y-14742656D02*
X9660256Y-14671944D01*
X9589544Y-14671944D01*
X9589544Y-14742656D01*
X9660256Y-14742656D01*
X10118471Y-14843014D02*
X9947043Y-14843014D01*
X10032757Y-14843014D02*
X10032757Y-14543014D01*
X10004186Y-14585871D01*
X9975614Y-14614443D01*
X9947043Y-14628729D01*
X10247043Y-14814443D02*
X10261328Y-14828729D01*
X10247043Y-14843014D01*
X10232757Y-14828729D01*
X10247043Y-14814443D01*
X10247043Y-14843014D01*
X10447043Y-14543014D02*
X10475614Y-14543014D01*
X10504186Y-14557300D01*
X10518471Y-14571586D01*
X10532757Y-14600157D01*
X10547043Y-14657300D01*
X10547043Y-14728729D01*
X10532757Y-14785871D01*
X10518471Y-14814443D01*
X10504186Y-14828729D01*
X10475614Y-14843014D01*
X10447043Y-14843014D01*
X10418471Y-14828729D01*
X10404186Y-14814443D01*
X10389900Y-14785871D01*
X10375614Y-14728729D01*
X10375614Y-14657300D01*
X10389900Y-14600157D01*
X10404186Y-14571586D01*
X10418471Y-14557300D01*
X10447043Y-14543014D01*
X10732757Y-14543014D02*
X10761328Y-14543014D01*
X10789900Y-14557300D01*
X10804186Y-14571586D01*
X10818471Y-14600157D01*
X10832757Y-14657300D01*
X10832757Y-14728729D01*
X10818471Y-14785871D01*
X10804186Y-14814443D01*
X10789900Y-14828729D01*
X10761328Y-14843014D01*
X10732757Y-14843014D01*
X10704186Y-14828729D01*
X10689900Y-14814443D01*
X10675614Y-14785871D01*
X10661328Y-14728729D01*
X10661328Y-14657300D01*
X10675614Y-14600157D01*
X10689900Y-14571586D01*
X10704186Y-14557300D01*
X10732757Y-14543014D01*
X10961328Y-14843014D02*
X10961328Y-14643014D01*
X10961328Y-14671586D02*
X10975614Y-14657300D01*
X11004186Y-14643014D01*
X11047043Y-14643014D01*
X11075614Y-14657300D01*
X11089900Y-14685871D01*
X11089900Y-14843014D01*
X11089900Y-14685871D02*
X11104186Y-14657300D01*
X11132757Y-14643014D01*
X11175614Y-14643014D01*
X11204186Y-14657300D01*
X11218471Y-14685871D01*
X11218471Y-14843014D01*
X11361328Y-14843014D02*
X11361328Y-14643014D01*
X11361328Y-14671586D02*
X11375614Y-14657300D01*
X11404186Y-14643014D01*
X11447043Y-14643014D01*
X11475614Y-14657300D01*
X11489900Y-14685871D01*
X11489900Y-14843014D01*
X11489900Y-14685871D02*
X11504186Y-14657300D01*
X11532757Y-14643014D01*
X11575614Y-14643014D01*
X11604186Y-14657300D01*
X11618471Y-14685871D01*
X11618471Y-14843014D01*
X12204186Y-14528729D02*
X11947043Y-14914443D01*
X12589900Y-14543014D02*
X12618471Y-14543014D01*
X12647043Y-14557300D01*
X12661328Y-14571586D01*
X12675614Y-14600157D01*
X12689900Y-14657300D01*
X12689900Y-14728729D01*
X12675614Y-14785871D01*
X12661328Y-14814443D01*
X12647043Y-14828729D01*
X12618471Y-14843014D01*
X12589900Y-14843014D01*
X12561328Y-14828729D01*
X12547043Y-14814443D01*
X12532757Y-14785871D01*
X12518471Y-14728729D01*
X12518471Y-14657300D01*
X12532757Y-14600157D01*
X12547043Y-14571586D01*
X12561328Y-14557300D01*
X12589900Y-14543014D01*
X12818471Y-14814443D02*
X12832757Y-14828729D01*
X12818471Y-14843014D01*
X12804186Y-14828729D01*
X12818471Y-14814443D01*
X12818471Y-14843014D01*
X13018471Y-14543014D02*
X13047043Y-14543014D01*
X13075614Y-14557300D01*
X13089900Y-14571586D01*
X13104186Y-14600157D01*
X13118471Y-14657300D01*
X13118471Y-14728729D01*
X13104186Y-14785871D01*
X13089900Y-14814443D01*
X13075614Y-14828729D01*
X13047043Y-14843014D01*
X13018471Y-14843014D01*
X12989900Y-14828729D01*
X12975614Y-14814443D01*
X12961328Y-14785871D01*
X12947043Y-14728729D01*
X12947043Y-14657300D01*
X12961328Y-14600157D01*
X12975614Y-14571586D01*
X12989900Y-14557300D01*
X13018471Y-14543014D01*
X13218471Y-14543014D02*
X13404186Y-14543014D01*
X13304186Y-14657300D01*
X13347043Y-14657300D01*
X13375614Y-14671586D01*
X13389900Y-14685871D01*
X13404186Y-14714443D01*
X13404186Y-14785871D01*
X13389900Y-14814443D01*
X13375614Y-14828729D01*
X13347043Y-14843014D01*
X13261328Y-14843014D01*
X13232757Y-14828729D01*
X13218471Y-14814443D01*
X13547043Y-14843014D02*
X13604186Y-14843014D01*
X13632757Y-14828729D01*
X13647043Y-14814443D01*
X13675614Y-14771586D01*
X13689900Y-14714443D01*
X13689900Y-14600157D01*
X13675614Y-14571586D01*
X13661328Y-14557300D01*
X13632757Y-14543014D01*
X13575614Y-14543014D01*
X13547043Y-14557300D01*
X13532757Y-14571586D01*
X13518471Y-14600157D01*
X13518471Y-14671586D01*
X13532757Y-14700157D01*
X13547043Y-14714443D01*
X13575614Y-14728729D01*
X13632757Y-14728729D01*
X13661328Y-14714443D01*
X13675614Y-14700157D01*
X13689900Y-14671586D01*
X13804186Y-14543014D02*
X13804186Y-14600157D01*
X13918471Y-14543014D02*
X13918471Y-14600157D01*
X14361328Y-14957300D02*
X14347043Y-14943014D01*
X14318471Y-14900157D01*
X14304186Y-14871586D01*
X14289900Y-14828729D01*
X14275614Y-14757300D01*
X14275614Y-14700157D01*
X14289900Y-14628729D01*
X14304186Y-14585871D01*
X14318471Y-14557300D01*
X14347043Y-14514443D01*
X14361328Y-14500157D01*
X14632757Y-14843014D02*
X14461328Y-14843014D01*
X14547043Y-14843014D02*
X14547043Y-14543014D01*
X14518471Y-14585871D01*
X14489900Y-14614443D01*
X14461328Y-14628729D01*
X14889900Y-14543014D02*
X14832757Y-14543014D01*
X14804186Y-14557300D01*
X14789900Y-14571586D01*
X14761328Y-14614443D01*
X14747043Y-14671586D01*
X14747043Y-14785871D01*
X14761328Y-14814443D01*
X14775614Y-14828729D01*
X14804186Y-14843014D01*
X14861328Y-14843014D01*
X14889900Y-14828729D01*
X14904186Y-14814443D01*
X14918471Y-14785871D01*
X14918471Y-14714443D01*
X14904186Y-14685871D01*
X14889900Y-14671586D01*
X14861328Y-14657300D01*
X14804186Y-14657300D01*
X14775614Y-14671586D01*
X14761328Y-14685871D01*
X14747043Y-14714443D01*
X15204186Y-14843014D02*
X15032757Y-14843014D01*
X15118471Y-14843014D02*
X15118471Y-14543014D01*
X15089900Y-14585871D01*
X15061328Y-14614443D01*
X15032757Y-14628729D01*
X15561328Y-14843014D02*
X15561328Y-14543014D01*
X15689900Y-14843014D02*
X15689900Y-14685871D01*
X15675614Y-14657300D01*
X15647043Y-14643014D01*
X15604186Y-14643014D01*
X15575614Y-14657300D01*
X15561328Y-14671586D01*
X15875614Y-14843014D02*
X15847043Y-14828729D01*
X15832757Y-14814443D01*
X15818471Y-14785871D01*
X15818471Y-14700157D01*
X15832757Y-14671586D01*
X15847043Y-14657300D01*
X15875614Y-14643014D01*
X15918471Y-14643014D01*
X15947043Y-14657300D01*
X15961328Y-14671586D01*
X15975614Y-14700157D01*
X15975614Y-14785871D01*
X15961328Y-14814443D01*
X15947043Y-14828729D01*
X15918471Y-14843014D01*
X15875614Y-14843014D01*
X16147043Y-14843014D02*
X16118471Y-14828729D01*
X16104186Y-14800157D01*
X16104186Y-14543014D01*
X16375614Y-14828729D02*
X16347043Y-14843014D01*
X16289900Y-14843014D01*
X16261328Y-14828729D01*
X16247043Y-14800157D01*
X16247043Y-14685871D01*
X16261328Y-14657300D01*
X16289900Y-14643014D01*
X16347043Y-14643014D01*
X16375614Y-14657300D01*
X16389900Y-14685871D01*
X16389900Y-14714443D01*
X16247043Y-14743014D01*
X16504186Y-14828729D02*
X16532757Y-14843014D01*
X16589900Y-14843014D01*
X16618471Y-14828729D01*
X16632757Y-14800157D01*
X16632757Y-14785871D01*
X16618471Y-14757300D01*
X16589900Y-14743014D01*
X16547043Y-14743014D01*
X16518471Y-14728729D01*
X16504186Y-14700157D01*
X16504186Y-14685871D01*
X16518471Y-14657300D01*
X16547043Y-14643014D01*
X16589900Y-14643014D01*
X16618471Y-14657300D01*
X16732757Y-14957300D02*
X16747043Y-14943014D01*
X16775614Y-14900157D01*
X16789900Y-14871586D01*
X16804186Y-14828729D01*
X16818471Y-14757300D01*
X16818471Y-14700157D01*
X16804186Y-14628729D01*
X16789900Y-14585871D01*
X16775614Y-14557300D01*
X16747043Y-14514443D01*
X16732757Y-14500157D01*
M02*
